<svg xmlns="http://www.w3.org/2000/svg" width="158.522" height="33.473" viewBox="0 0 158.522 33.473"><g transform="translate(0 0)"><g transform="translate(0 0)"><g transform="translate(0 0)"><g transform="translate(0 0)"><g transform="translate(0 0)"><g transform="translate(0 0)"><path d="M57.082,20.254c0,3.672,1.717,6.8,5.8,6.8,3.193,0,5.3-2,5.313-4.5h1.073v.04c0,2.94-2.509,5.441-6.386,5.441-4.843,0-6.9-3.5-6.9-7.9V17.061c0-4.39,2.147-7.942,6.842-7.942,4.065,0,6.319,2.86,6.319,5.521v.04H68.07a4.911,4.911,0,0,0-5.246-4.563c-3.958,0-5.742,3.113-5.742,6.825Z" transform="translate(-11.14 -1.815)" fill="#a7a7a7" fill-rule="evenodd"/><path d="M78.391,21.231v1.73c0,3.432,1.919,5.255,4.588,5.255,2.63,0,4.575-1.783,4.575-5.255v-1.73c0-3.432-1.945-5.295-4.588-5.295s-4.575,1.836-4.575,5.295m10.25-.106V23.08c0,3.9-2.388,6.119-5.675,6.119s-5.648-2.222-5.648-6.119V21.125c0-3.925,2.334-6.16,5.648-6.16,3.26,0,5.675,2.288,5.675,6.16" transform="translate(-15.386 -2.978)" fill="#a7a7a7" fill-rule="evenodd"/><path d="M97.06,28.178h1.073V14.409H97.06ZM97.6,9.833a.958.958,0,0,1,.966.958.947.947,0,0,1-.966.945.935.935,0,0,1-.952-.945A.946.946,0,0,1,97.6,9.833Z" transform="translate(-19.231 -1.957)" fill="#a7a7a7" fill-rule="evenodd"/><path d="M105.017,15.49h1.073v2.554h.054a4.464,4.464,0,0,1,4.468-2.781c2.79,0,4.83,1.769,4.83,4.989v9.006h-1.087V20.386c0-2.394-1.422-4.124-3.9-4.124a4.294,4.294,0,0,0-4.36,4.6v8.394h-1.073Z" transform="translate(-20.898 -3.037)" fill="#a7a7a7" fill-rule="evenodd"/><path d="M124.527,22.822c.175,1.8,1.69,3.392,4.709,3.392,2.657,0,4.4-1.3,4.4-3.392,0-1.636-1.019-2.528-3.18-3.086l-3.166-.838c-2.173-.572-4.226-1.929-4.226-4.7,0-3.326,2.978-5.148,6.212-5.148,3.072,0,6.131,1.61,6.2,5.055h-2.012c-.161-1.783-1.516-3.246-4.226-3.246-2.4,0-4.132,1.157-4.132,3.206,0,1.424.872,2.408,2.71,2.887l3.1.838c2.884.772,4.776,2.035,4.776,4.9,0,3.512-2.992,5.335-6.708,5.335-4.749,0-6.413-2.914-6.48-5.2Z" transform="translate(-24.377 -1.801)" fill="#a7a7a7" fill-rule="evenodd"/><path d="M144.9,10.813h1.972v3.5h2.871v1.663h-2.871v8.581c0,1.716.563,2.142,2.348,2.142a4.869,4.869,0,0,0,.644-.027v1.61a6.882,6.882,0,0,1-1.14.093c-3.206,0-3.824-1.25-3.824-3.938Z" transform="translate(-28.834 -2.152)" fill="#a7a7a7" fill-rule="evenodd"/><path d="M164.523,24.294V22.578h-3.757c-2.053,0-2.925.971-2.925,2.328,0,1.729,1.436,2.567,3.019,2.567,2.093,0,3.663-1.3,3.663-3.179m-4.132,4.869c-2.723,0-4.588-1.663-4.588-4.217,0-2.408,1.691-3.951,4.9-3.965h3.824v-1.5c0-1.956-1.154-3.007-3.153-3.007-1.932,0-2.992.945-3.153,2.421h-1.865c.161-2.421,1.838-4.111,5.1-4.111,2.925,0,5.045,1.61,5.045,4.47v9.685h-1.919V27.128h-.054a4.517,4.517,0,0,1-4.132,2.036" transform="translate(-31.003 -2.942)" fill="#a7a7a7" fill-rule="evenodd"/><path d="M174.5,10.813h1.972v3.5h2.871v1.663h-2.871v8.581c0,1.716.563,2.142,2.348,2.142a4.87,4.87,0,0,0,.644-.027v1.61a6.881,6.881,0,0,1-1.14.093c-3.206,0-3.824-1.25-3.824-3.938Z" transform="translate(-34.724 -2.152)" fill="#a7a7a7" fill-rule="evenodd"/><path d="M190.024,14.782c3.314,0,4.9,1.929,4.9,4.111h-1.865c-.067-1.091-.778-2.435-3.113-2.435-1.757,0-3.059.759-3.059,2.248,0,1.61,1.784,2,3.488,2.328,2.616.479,4.9,1.131,4.9,3.871s-2.267,4.257-5.46,4.257c-3.072,0-5.138-1.53-5.138-3.925H186.6c.188,1.277,1.315,2.248,3.367,2.248,2.241,0,3.341-1.038,3.341-2.355,0-1.649-1.529-1.969-3.6-2.394-2.643-.572-4.776-1.33-4.776-3.818,0-2.86,2.415-4.138,5.085-4.138" transform="translate(-36.748 -2.942)" fill="#a7a7a7" fill-rule="evenodd"/><path d="M7.885,24.813,4.418,28.251A16.727,16.727,0,0,1,4.913,5.083,16.974,16.974,0,0,1,11.762.958l1.07,4.769a12.056,12.056,0,0,0-4.464,2.8,11.817,11.817,0,0,0-.482,16.288" transform="translate(0 -0.191)" fill="#a7a7a7" fill-rule="evenodd"/><path d="M20.115,16.727,16.449.39a16.993,16.993,0,0,1,8.326.275A17.164,17.164,0,0,1,32.1,4.957,16.561,16.561,0,0,1,36.6,20.378Z" transform="translate(-3.273 0)" fill="#a7a7a7" fill-rule="evenodd"/><path d="M26.626,36.348A16.917,16.917,0,0,1,6.777,34.206l3.467-3.438a12,12,0,0,0,19.228-4.914L34.3,26.923a16.7,16.7,0,0,1-7.674,9.425" transform="translate(-1.349 -5.145)" fill="#a7a7a7" fill-rule="evenodd"/></g></g></g></g></g></g></svg>