<svg xmlns="http://www.w3.org/2000/svg" width="198" height="41.809" viewBox="0 0 198 41.809"><g transform="translate(-115 -1)"><g transform="translate(115 1)"><g transform="translate(0 0)"><g transform="translate(0 0)"><g transform="translate(0 0)"><g transform="translate(0 0)"><g transform="translate(0 0)"><path d="M57.356,23.027c0,4.586,2.145,8.491,7.239,8.491,3.988,0,6.619-2.493,6.636-5.617h1.34v.05c0,3.672-3.134,6.8-7.976,6.8-6.049,0-8.613-4.37-8.613-9.87V19.039c0-5.484,2.681-9.92,8.546-9.92,5.078,0,7.893,3.573,7.893,6.9v.05H71.08c-.034-2.692-2.38-5.7-6.552-5.7-4.943,0-7.172,3.889-7.172,8.525Z" transform="translate(0.027 0.004)" fill="#050440" fill-rule="evenodd"/><path d="M78.658,22.791v2.16c0,4.287,2.4,6.564,5.731,6.564,3.284,0,5.714-2.227,5.714-6.564v-2.16c0-4.287-2.43-6.613-5.731-6.613s-5.714,2.293-5.714,6.613m12.8-.133V25.1c0,4.868-2.983,7.643-7.088,7.643S77.318,29.97,77.318,25.1V22.659c0-4.9,2.916-7.694,7.055-7.694,4.072,0,7.088,2.858,7.088,7.694" transform="translate(0.038 0.007)" fill="#050440" fill-rule="evenodd"/><path d="M97.163,32.747H98.5v-17.2h-1.34Zm.67-22.914a1.2,1.2,0,0,1,1.206,1.2,1.183,1.183,0,0,1-1.206,1.18,1.168,1.168,0,0,1-1.19-1.18A1.182,1.182,0,0,1,97.834,9.833Z" transform="translate(0.047 0.005)" fill="#050440" fill-rule="evenodd"/><path d="M105.017,15.547h1.341v3.191h.067c.57-1.629,2.346-3.473,5.58-3.473,3.485,0,6.033,2.21,6.033,6.231V32.745h-1.357V21.661c0-2.991-1.776-5.151-4.876-5.151-3.636,0-5.446,2.825-5.446,5.749V32.745h-1.341Z" transform="translate(0.052 0.007)" fill="#050440" fill-rule="evenodd"/><path d="M125.032,26.251c.218,2.243,2.111,4.237,5.882,4.237,3.318,0,5.5-1.628,5.5-4.237,0-2.044-1.273-3.157-3.971-3.855l-3.955-1.047c-2.715-.715-5.278-2.41-5.278-5.866,0-4.154,3.72-6.43,7.758-6.43,3.838,0,7.658,2.01,7.742,6.314h-2.513c-.2-2.227-1.893-4.055-5.279-4.055-3,0-5.161,1.446-5.161,4,0,1.778,1.089,3.008,3.385,3.606l3.871,1.047c3.6.964,5.966,2.542,5.966,6.115,0,4.387-3.737,6.663-8.379,6.663-5.932,0-8.01-3.639-8.094-6.5Z" transform="translate(0.06 0.004)" fill="#050440" fill-rule="evenodd"/><path d="M144.9,10.813h2.463v4.37h3.586V17.26h-3.586V27.978c0,2.144.7,2.675,2.933,2.675a6.081,6.081,0,0,0,.8-.033v2.011a8.6,8.6,0,0,1-1.424.116c-4,0-4.776-1.562-4.776-4.918Z" transform="translate(0.071 0.005)" fill="#050440" fill-rule="evenodd"/><path d="M166.694,26.663V24.52H162c-2.564,0-3.653,1.213-3.653,2.908,0,2.16,1.793,3.207,3.77,3.207,2.614,0,4.575-1.628,4.575-3.971m-5.161,6.082c-3.4,0-5.731-2.077-5.731-5.268,0-3.008,2.112-4.935,6.116-4.952h4.776V20.648c0-2.443-1.441-3.756-3.938-3.756-2.413,0-3.737,1.18-3.938,3.024h-2.329c.2-3.024,2.3-5.135,6.368-5.135,3.653,0,6.3,2.011,6.3,5.583v12.1h-2.4V30.2h-.067a5.642,5.642,0,0,1-5.161,2.543" transform="translate(0.076 0.007)" fill="#050440" fill-rule="evenodd"/><path d="M174.5,10.813h2.463v4.37h3.586V17.26h-3.586V27.978c0,2.144.7,2.675,2.933,2.675a6.082,6.082,0,0,0,.8-.033v2.011a8.6,8.6,0,0,1-1.424.116c-4,0-4.776-1.562-4.776-4.918Z" transform="translate(0.086 0.005)" fill="#050440" fill-rule="evenodd"/><path d="M191.357,14.782c4.139,0,6.117,2.41,6.117,5.135h-2.329c-.084-1.363-.972-3.041-3.888-3.041-2.2,0-3.821.947-3.821,2.808,0,2.011,2.229,2.493,4.357,2.908,3.268.6,6.116,1.413,6.116,4.835,0,3.44-2.832,5.317-6.82,5.317-3.838,0-6.418-1.911-6.418-4.9h2.413c.235,1.6,1.642,2.808,4.206,2.808,2.8,0,4.173-1.3,4.173-2.941,0-2.06-1.91-2.459-4.491-2.991-3.3-.714-5.966-1.662-5.966-4.769,0-3.573,3.016-5.168,6.351-5.168" transform="translate(0.091 0.007)" fill="#050440" fill-rule="evenodd"/><path d="M9.849,30.754l-4.33,4.294A20.893,20.893,0,0,1,6.136,6.11,21.2,21.2,0,0,1,14.691.958l1.337,5.957a15.059,15.059,0,0,0-5.576,3.494,14.76,14.76,0,0,0-.6,20.345" transform="translate(0 0)" fill="#050440" fill-rule="evenodd"/><path d="M21.028,20.893,16.449.488a21.225,21.225,0,0,1,10.4.344A21.439,21.439,0,0,1,36,6.191a20.685,20.685,0,0,1,5.629,19.261Z" transform="translate(0.008 0)" fill="#050440" fill-rule="evenodd"/><path d="M31.569,38.961A21.13,21.13,0,0,1,6.777,36.285l4.331-4.294a14.992,14.992,0,0,0,24.016-6.137l6.03,1.335a20.865,20.865,0,0,1-9.585,11.772" transform="translate(0.003 0.013)" fill="#050440" fill-rule="evenodd"/></g></g></g></g></g></g></g></svg>