<svg xmlns="http://www.w3.org/2000/svg" width="240" height="17.444" viewBox="0 0 240 17.444">
  <g id="livecoinwatch" transform="translate(0 -74)">
    <g id="logo-light-beta" transform="translate(0 74)">
      <path id="Path" d="M468.826,2.523A8.342,8.342,0,0,0,466.109.682a9.488,9.488,0,0,0-7.064,0,8.821,8.821,0,0,0-2.785,1.909,9.958,9.958,0,0,0-1.834,2.8,9.119,9.119,0,0,0-.611,3.341,9.119,9.119,0,0,0,.611,3.341,7.744,7.744,0,0,0,1.7,2.659l2.377-4.5,2.445,2.387L463.6,6.137l-1.155-.477L464,4.5l1.562-1.159.2,1.909.2,1.909-1.155-.477L461.354,15l-2.581-2.591-1.7,3.137a9.158,9.158,0,0,0,1.766,1.023,9.488,9.488,0,0,0,7.064,0,8.235,8.235,0,0,0,4.551-4.637,9.119,9.119,0,0,0,.611-3.341,9.119,9.119,0,0,0-.611-3.341A6.244,6.244,0,0,0,468.826,2.523Z" transform="translate(-366.402 0)" fill="#050440" fill-rule="evenodd"/>
      <path id="Shape" d="M0,16.992H11.873v-2.73H3V0H0V16.992ZM16.444,0V16.924h3V0ZM32.138,13.034,27.021,0H23.745l7.028,17.061h2.593L40.394,0H37.187L32.138,13.034ZM57.18,0H44.625V16.924H57.316V14.263H47.559V9.69h8.529V7.029H47.559V2.661H57.18Z" fill="#050440"/>
      <path id="Shape-2" data-name="Shape" d="M419.142,11.878,410.013.2h-2.725V17.037h2.93V5.091L419.551,17.1h2.521V.2h-2.93V11.878ZM372.677,14.39l-1.908-1.9a11.37,11.37,0,0,1-2.18,1.629,5.484,5.484,0,0,1-2.657.611,4.952,4.952,0,0,1-2.248-.475,5.67,5.67,0,0,1-1.771-1.29,5.936,5.936,0,0,1-1.158-1.9,6.692,6.692,0,0,1-.409-2.376,6.32,6.32,0,0,1,.409-2.308,5.936,5.936,0,0,1,1.158-1.9,5.67,5.67,0,0,1,1.771-1.29,4.952,4.952,0,0,1,2.248-.475,5.4,5.4,0,0,1,2.589.611,11.307,11.307,0,0,1,2.18,1.493l1.908-2.172a9.946,9.946,0,0,0-1.294-1.086,6.419,6.419,0,0,0-1.5-.815A10.914,10.914,0,0,0,368.044.2a10.135,10.135,0,0,0-2.112-.2,8.677,8.677,0,0,0-3.543.679,7.861,7.861,0,0,0-2.725,1.9,8.456,8.456,0,0,0-1.771,2.783,9.377,9.377,0,0,0-.613,3.394,7.959,7.959,0,0,0,.681,3.394,8.456,8.456,0,0,0,1.771,2.783,8.371,8.371,0,0,0,2.725,1.833,8.04,8.04,0,0,0,3.407.679,10.82,10.82,0,0,0,2.18-.2,6.8,6.8,0,0,0,1.771-.611,12.007,12.007,0,0,0,1.567-.95l1.294-1.29ZM398.567.2V17.037h3V.2Z" transform="translate(-288.462 0)" fill="#050440"/>
      <path id="Shape-3" data-name="Shape" d="M760.608,12.693,756.581.2h-3.208l5.939,16.969h2.594l4.164-12.15,4.164,12.15h2.594L778.767.2h-3.14L771.6,12.693,767.435.136h-2.526l-4.3,12.557ZM789.553.068h-2.731l-7.441,16.969h3.072l1.775-4.073h7.987l1.707,4.073h3.14L789.553.068Zm1.5,10.317h-5.871l2.935-6.72,2.935,6.72Zm15.086-7.4h5.393V.272H797.744V2.987h5.393V17.1h3V2.987Zm23.62,11.4-1.911-1.9a11.393,11.393,0,0,1-2.184,1.629,5.5,5.5,0,0,1-2.662.611,4.97,4.97,0,0,1-2.253-.475,5.679,5.679,0,0,1-1.775-1.29,5.934,5.934,0,0,1-1.16-1.9,6.68,6.68,0,0,1-.41-2.376,6.309,6.309,0,0,1,.41-2.308,5.934,5.934,0,0,1,1.16-1.9,5.679,5.679,0,0,1,1.775-1.29A4.97,4.97,0,0,1,823,2.715a5.418,5.418,0,0,1,2.594.611,11.33,11.33,0,0,1,2.185,1.493l1.911-2.172a9.958,9.958,0,0,0-1.3-1.086,6.433,6.433,0,0,0-1.5-.815A10.949,10.949,0,0,0,825.118.2,10.173,10.173,0,0,0,823,0a8.71,8.71,0,0,0-3.55.679,7.876,7.876,0,0,0-2.731,1.9,8.451,8.451,0,0,0-1.775,2.783,9.358,9.358,0,0,0-.614,3.394,7.945,7.945,0,0,0,.683,3.394,8.055,8.055,0,0,0,4.505,4.616,8.07,8.07,0,0,0,3.413.679,10.862,10.862,0,0,0,2.184-.2,6.821,6.821,0,0,0,1.775-.611,12.033,12.033,0,0,0,1.57-.95c.41-.407.887-.815,1.3-1.29Zm15.5-4.412V17.1h3V.2h-3V7.195h-8.124V.2h-3V17.037h3V9.978Z" transform="translate(-608.26 0)" fill="#050440"/>
    </g>
  </g>
</svg>
