<svg xmlns="http://www.w3.org/2000/svg" width="386.113" height="386.115" viewBox="0 0 386.113 386.115"><g transform="translate(-2013.697 -5796)"><g transform="translate(2013.697 5796)"><path d="M162.937,0A162.938,162.938,0,1,1,0,162.938,162.936,162.936,0,0,1,162.937,0Z" transform="matrix(0.978, -0.206, 0.206, 0.978, 0, 67.256)" fill="#f2d043"/><path d="M815.881,520.274a145.844,145.844,0,0,0,145.812,145.87,140.356,140.356,0,0,0,20.56-1.468A145.862,145.862,0,0,0,1107.314,528.5c.147-2.743.236-5.487.236-8.23A145.858,145.858,0,0,0,961.693,374.415c-1.614,0-3.218.045-4.821.09a145.015,145.015,0,0,0-80.737,27.6,148.616,148.616,0,0,0-22.681,20.469,144.716,144.716,0,0,0-35.6,73.827A142.145,142.145,0,0,0,815.881,520.274Z" transform="translate(-768.655 -327.232)" fill="#f2d043" style="mix-blend-mode:multiply;isolation:isolate"/><path d="M132.865,0A132.865,132.865,0,1,1,0,132.865,132.864,132.864,0,0,1,132.865,0Z" transform="translate(23.917 111.217) rotate(-19.18)" fill="#f2d043" style="mix-blend-mode:multiply;isolation:isolate"/><g transform="translate(62.095 60.188)" opacity="0.46" style="mix-blend-mode:screen;isolation:isolate"><path d="M821.9,400.722,1005.625,588.75a132.043,132.043,0,0,0,26.87-72.89L895.444,375.567A132.089,132.089,0,0,0,821.9,400.722Z" transform="translate(-768.813 -375.567)" fill="#f2d043"/><path d="M817.2,446.7,966.951,599.99a131.791,131.791,0,0,0,67.944-30.834L849.611,379.446A131.778,131.778,0,0,0,817.2,446.7Z" transform="translate(-817.197 -335.651)" fill="#f2d043"/></g></g><g transform="translate(2139.085 5910.164)"><path d="M935.236,538.135l37.559-39.447-37.559-39.447,37.559-39.447h0l-37.559-39.447H822.8V538.135Z" transform="translate(-822.803 -380.347)" fill="#f2d456"/><path d="M846.482,380.37l-18.7,39.161,56.262,39.478Z" transform="translate(-771.607 -380.115)" fill="#f2d456" style="isolation:isolate"/><path d="M884.082,387.335l-56.307,39.511,18.749,39.383Z" transform="translate(-771.649 -308.441)" fill="#f2d456" style="isolation:isolate"/><path d="M822.8,387.335v78.894l56.126-39.383L860.12,387.335Z" transform="translate(-822.803 -308.441)" fill="#f2d456" style="isolation:isolate"/><path d="M826.109,387.335l18.809,39.511,56.307-39.511Z" transform="translate(-788.793 -308.441)" fill="#f2d456" opacity="0.2" style="isolation:isolate"/><path d="M826.109,387.335l18.809,39.511,56.307-39.511Z" transform="translate(-788.793 -308.441)" fill="#f2d456" style="isolation:isolate"/><path d="M878.974,419.763,822.8,380.347v78.894H860.12Z" transform="translate(-822.803 -380.347)" fill="#f2d456" style="isolation:isolate"/><path d="M901.225,423.317l-56.262-39.478-18.854,39.478Z" transform="translate(-788.793 -344.423)" fill="#f2d456" opacity="0.2" style="isolation:isolate"/><path d="M901.225,423.317l-56.262-39.478-18.854,39.478Z" transform="translate(-788.793 -344.423)" fill="#f2d456" style="isolation:isolate"/><path d="M935.236,538.135l37.559-39.447-37.559-39.447,37.559-39.447h0l-37.559-39.447H822.8V538.135Z" transform="translate(-822.803 -380.347)" fill="#f2d456"/><path d="M826.108,459.009l37.559-78.639,37.559,78.639L863.667,537.9Z" transform="translate(-788.792 -380.115)" fill="#f2d456" opacity="0.2" style="isolation:isolate"/><path d="M822.8,466.229V387.335H935.236Z" transform="translate(-822.803 -308.441)" fill="#f2d456" opacity="0.3" style="isolation:isolate"/><path d="M822.8,380.347v78.894H935.236Z" transform="translate(-822.803 -380.347)" fill="#f2d456" opacity="0.5" style="isolation:isolate"/></g></g></svg>