<svg xmlns="http://www.w3.org/2000/svg" width="58" height="56" viewBox="0 0 58 56"><g transform="translate(-827 -4429)"><ellipse cx="29" cy="28" rx="29" ry="28" transform="translate(827 4429)" fill="#edf4f8"/><g transform="translate(768.204 4441)"><path d="M85.329,33.508V36.63h5.2v2.081h3.122V36.63h2.081v2.081h3.122V36.63a7.282,7.282,0,0,0,4.5-13.008,6.789,6.789,0,0,0,.65-.572,7.284,7.284,0,0,0-5.151-12.436V8.533H95.735v2.081H93.654V8.533H90.532v2.081h-5.2v3.122H87.41V33.508Zm5.2-19.772h8.325a4.163,4.163,0,1,1,0,8.325H90.532Zm0,11.447h8.325a4.163,4.163,0,0,1,0,8.325H90.532Z" transform="translate(-8.013 -8.013)" fill="#1d44f9"/><path d="M91.365,31.219H87.2V29.138H86.162v2.081H82V29.138H76.8V24.975h2.081V6.244H76.8V2.081H82V0h4.163V2.081H87.2V0h4.163V2.1a7.8,7.8,0,0,1,5,13.306c-.07.071-.142.139-.215.208a7.8,7.8,0,0,1-4.784,13.509v2.1Zm-3.122-1.041h2.081V28.1h.52a6.761,6.761,0,0,0,4.179-12.078l-.526-.413.529-.409a6.213,6.213,0,0,0,.6-.528A6.764,6.764,0,0,0,90.845,3.122h-.52V1.041H88.243V3.122H85.121V1.041H83.04V3.122h-5.2V5.2h2.081V26.016H77.837V28.1h5.2v2.081h2.081V28.1h3.122Zm2.6-4.163H82V16.65h8.845a4.683,4.683,0,0,1,0,9.366Zm-7.8-1.041h7.8a3.642,3.642,0,0,0,0-7.284h-7.8Zm7.8-10.406H82V5.2h8.845a4.683,4.683,0,0,1,0,9.366Zm-7.8-1.041h7.8a3.642,3.642,0,0,0,0-7.284h-7.8Z" transform="translate(0)" fill="#1d44f9"/></g></g></svg>