<svg xmlns="http://www.w3.org/2000/svg" xmlns:xlink="http://www.w3.org/1999/xlink" width="61" height="61" viewBox="0 0 61 61"><defs><linearGradient id="a" x1="1.139" y1="1" x2="-0.206" y2="-0.435" gradientUnits="objectBoundingBox"><stop offset="0" stop-color="#0078be"/><stop offset="1" stop-color="#14c2f3"/></linearGradient></defs><g transform="translate(-0.5)"><path d="M30.5,0A30.5,30.5,0,1,1,0,30.5,30.5,30.5,0,0,1,30.5,0Z" transform="translate(0.5)" fill="url(#a)"/><g transform="translate(-7.084 2.516)"><g transform="translate(21.585 10.482)"><path d="M847.213,414.6l8.154-8.564-8.154-8.564,8.154-8.564h0l-8.154-8.564H822.8V414.6Z" transform="translate(-822.804 -380.347)" fill="#fff"/><path d="M831.839,380.37l-4.06,8.5,12.214,8.571Z" transform="translate(-815.584 -380.315)" fill="#fff" style="isolation:isolate"/><path d="M840,387.335l-12.224,8.578,4.07,8.55Z" transform="translate(-815.59 -370.207)" fill="#fff" style="isolation:isolate"/><path d="M822.8,387.335v17.128l12.185-8.55-4.083-8.578Z" transform="translate(-822.803 -370.207)" fill="#fff" style="isolation:isolate"/><path d="M826.109,387.335l4.083,8.578,12.224-8.578Z" transform="translate(-818.008 -370.207)" fill="#fff" opacity="0.2" style="isolation:isolate"/><path d="M826.109,387.335l4.083,8.578,12.224-8.578Z" transform="translate(-818.008 -370.207)" fill="#fff" style="isolation:isolate"/><path d="M835,388.9,822.8,380.347v17.128h8.1Z" transform="translate(-822.803 -380.347)" fill="#fff" style="isolation:isolate"/><path d="M842.417,392.409,830.2,383.838l-4.093,8.571Z" transform="translate(-818.008 -375.281)" fill="#fff" opacity="0.2" style="isolation:isolate"/><path d="M842.417,392.409,830.2,383.838l-4.093,8.571Z" transform="translate(-818.008 -375.281)" fill="#fff" style="isolation:isolate"/><path d="M847.213,414.6l8.154-8.564-8.154-8.564,8.154-8.564h0l-8.154-8.564H822.8V414.6Z" transform="translate(-822.804 -380.347)" fill="#fff"/><path d="M826.108,397.442l8.154-17.072,8.154,17.072-8.154,17.128Z" transform="translate(-818.007 -380.315)" fill="#fff" opacity="0.2" style="isolation:isolate"/><path d="M822.8,404.463V387.335h24.409Z" transform="translate(-822.804 -370.207)" fill="#fff" opacity="0.3" style="isolation:isolate"/><path d="M822.8,380.347v17.128h24.409Z" transform="translate(-822.804 -380.347)" fill="#fff" opacity="0.5" style="isolation:isolate"/></g></g></g></svg>