<svg xmlns="http://www.w3.org/2000/svg" xmlns:xlink="http://www.w3.org/1999/xlink" width="68.735" height="72.307" viewBox="0 0 68.735 72.307"><defs><linearGradient id="a" y1="0.5" x2="1" y2="0.5" gradientUnits="objectBoundingBox"><stop offset="0" stop-color="#0078be"/><stop offset="1" stop-color="#14c2f3"/></linearGradient></defs><path d="M90.524,82.154l17.211-18.077L90.524,46l17.211-18.077h0L90.524,9.847H39V82.154Z" transform="translate(-39 -9.847)" fill="#0082ca"/><path d="M396.5,11.428l-8.571,17.946,25.782,18.091Z" transform="translate(-362.188 -11.311)" fill="#4197cb" style="isolation:isolate"/><path d="M413.45,499.924l-25.8,18.106,8.592,18.048Z" transform="translate(-361.926 -463.77)" fill="#4197cb" style="isolation:isolate"/><path d="M39,499.924v36.154L64.72,518.03,56.1,499.924Z" transform="translate(-39 -463.77)" fill="#009ade" style="isolation:isolate"/><path d="M270.8,499.924l8.62,18.106,25.8-18.106Z" transform="translate(-253.703 -463.77)" fill="#fff" opacity="0.2" style="isolation:isolate"/><path d="M270.8,499.924l8.62,18.106,25.8-18.106Z" transform="translate(-253.703 -463.77)" fill="#65b2e8" style="isolation:isolate"/><path d="M64.741,27.909,39,9.847V46H56.1Z" transform="translate(-39 -9.847)" fill="#5eb3e4" style="isolation:isolate"/><path d="M305.227,272.78l-25.782-18.091L270.8,272.78Z" transform="translate(-253.703 -236.626)" fill="#fff" opacity="0.2" style="isolation:isolate"/><path d="M305.227,272.78l-25.782-18.091L270.8,272.78Z" transform="translate(-253.703 -236.626)" fill="#8dc6e8" style="isolation:isolate"/><path d="M90.524,82.154l17.211-18.077L90.524,46l17.211-18.077h0L90.524,9.847H39V82.154Z" transform="translate(-39 -9.847)" fill="url(#a)"/><path d="M270.8,47.465l17.211-36.037,17.212,36.037L288.015,83.618Z" transform="translate(-253.703 -11.311)" fill="#fff" opacity="0.2" style="isolation:isolate"/><path d="M39,536.077V499.923H90.524Z" transform="translate(-39 -463.77)" fill="#c4e8fa" opacity="0.3" style="isolation:isolate"/><path d="M39,9.847V46H90.524Z" transform="translate(-39 -9.847)" fill="#fff" opacity="0.5" style="isolation:isolate"/></svg>