<svg xmlns="http://www.w3.org/2000/svg" xmlns:xlink="http://www.w3.org/1999/xlink" width="1850.341" height="622.16" viewBox="0 0 1850.341 622.16"><defs><linearGradient id="a" x1="0.5" x2="0.5" y2="1" gradientUnits="objectBoundingBox"><stop offset="0" stop-color="#0078be"/><stop offset="1" stop-color="#14c2f3"/></linearGradient></defs><g transform="translate(-60.199 -5738.896)"><path d="M2017.094,520.045c-85.8-5.626-222.747,42.357-212.131,126.633,3,23.786,24.162,45.436,52.035,53.223s60.985,1.3,81.406-15.942c13.122-11.082,20.968-28.1,13.033-42.055-6.3-11.09-20.992-17.614-35.681-20.3-74.72-13.653-172.445,35.744-166.792,102.1,1.949,22.9,14.364,43.395,20.034,65.569,6.166,24.13,3.478,50.271-11.389,71.76s-42.828,37.523-73.184,38.524c-24.453.8-47.8-7.667-71.97-10.763C1552,881.055,1487.41,911.7,1466.1,958.244" transform="matrix(0.921, 0.391, -0.391, 0.921, 199.553, 4689.211)" fill="none" stroke="#0086ca" stroke-linecap="round" stroke-miterlimit="10" stroke-width="2" stroke-dasharray="5"/><path d="M1744.54,468.874l-4.5-16.062-12.844,3.6a34.423,34.423,0,0,0-6.385-7.7l6.642-11.816-14.542-8.175-6.814,12.121a34.456,34.456,0,0,0-9.572-1.047l-3.764-13.426-16.064,4.5,3.763,13.426a34.459,34.459,0,0,0-7.667,5.908h0l-12-6.748L1652.612,458l11.721,6.59a34.412,34.412,0,0,0-1.44,10.018l-12.634,3.541,4.5,16.062,12.211-3.423a34.427,34.427,0,0,0,6.436,8.553l-6.063,10.782,14.542,8.174,5.932-10.551a34.486,34.486,0,0,0,10.988,1.383l3.229,11.521,16.064-4.5-3.251-11.6a34.35,34.35,0,0,0,8.564-6.943l10.6,5.959,8.175-14.542-10.957-6.158a34.5,34.5,0,0,0,.965-10.532Zm-29.333,8.221A17.9,17.9,0,0,1,1710,487.249a17.282,17.282,0,0,1-2.014,1.687,17.815,17.815,0,0,1-23.979-2.918,17.387,17.387,0,0,1-1.739-2.432,17.815,17.815,0,0,1-1.862-13.882,17.818,17.818,0,0,1,29.218-8.367,17.7,17.7,0,0,1,5.111,8.323,17.847,17.847,0,0,1,.658,4.3A17.5,17.5,0,0,1,1715.207,477.1Z" transform="translate(166 5515.211)" fill="url(#a)"/><g transform="translate(60.199 6020.949)"><ellipse cx="76.007" cy="76.007" rx="76.007" ry="76.007" transform="translate(0 0)" fill="#88a0ea"/><path d="M1424.556,584.956h-76.008c0,41.7,34.311,76.008,76.008,76.008s76.007-34.311,76.007-76.008-34.311-76.007-76.007-76.007a76.018,76.018,0,0,0-39.857,11.288Z" transform="translate(-1348.548 -508.949)" fill="#0086ca"/></g><g transform="translate(220.693 6096.957)"><path d="M1339.84,602.829q.179,3.116.571,6.212" transform="translate(-1339.84 -558.257)" fill="none" stroke="#0086ca" stroke-linecap="round" stroke-miterlimit="10" stroke-width="2"/><path d="M1175.2,647.816a100.023,100.023,0,0,0,43.159,58.786c26.576,16.579,61.341,19.722,90.544,8.182,46.732-18.465,72.08-67.629,111.027-99.035,35.089-28.3,86.391-41.159,126.859-20.966s58.81,79.281,28.41,112.412c-13.068,14.24-32.178,21.792-46.116,35.211-10.76,10.362-17.214,27.67-12.629,40.591" transform="translate(-1172.303 -584.956)" fill="none" stroke="#0086ca" stroke-linecap="round" stroke-miterlimit="10" stroke-width="2" stroke-dasharray="4.934 4.934"/><path d="M1201.533,666.555a22.121,22.121,0,0,0,4.23,4.546" transform="translate(-853.391 -463.058)" fill="none" stroke="#0086ca" stroke-linecap="round" stroke-miterlimit="10" stroke-width="2"/></g></g></svg>