<svg xmlns="http://www.w3.org/2000/svg" width="894.859" height="854.229" viewBox="0 0 894.859 854.229"><g transform="translate(-150 -8549.389)"><g transform="translate(-3673 6838.369)"><g transform="translate(4079.025 2066.439)"><g transform="translate(0 0)"><path d="M4469.476,2133.4a67.288,67.288,0,0,1-.849,10.69,66.206,66.206,0,0,1-2.886,11.412,65.346,65.346,0,0,1-3.951,9.065,66.952,66.952,0,1,1,5.2-49.307,66.014,66.014,0,0,1,1.959,9.722A67.8,67.8,0,0,1,4469.476,2133.4Z" transform="translate(-4335.551 -2066.439)" fill="#e07000"/></g><g transform="translate(9.757 9.76)"><circle cx="57.203" cy="57.203" r="57.203" fill="#ff9a36"/></g><g transform="translate(41.458 34.242)"><g transform="translate(0 7.206)"><path d="M4660.76,2377.077c-.914-5.986-5.146-9.388-10.108-10.765,5.846-2.336,7.644-5.534,7.644-12.1,0-6.125-3.2-10.346-9.84-12.23a34.17,34.17,0,0,0-9.28-1.109h-29.121v10.066h4.532v34.343h-4.532v10.152h29.659a45.441,45.441,0,0,0,8.742-.732c8.762-1.723,12.5-6.557,12.5-15.115A15.366,15.366,0,0,0,4660.76,2377.077Zm-30.014-25.9h4.909c2.972,0,5.156,2.1,5.156,5.7,0,3.746-1.172,6.007-5.307,6.007h-4.758Zm6.245,34.106h-6.245V2371.7h6.007a6.03,6.03,0,0,1,6.438,5.372,9.767,9.767,0,0,1,.118,1.5A6.345,6.345,0,0,1,4636.991,2385.281Z" transform="translate(-4610.055 -2340.872)" fill="#01013f"/></g><g transform="translate(9.192)"><rect width="10.364" height="67.835" fill="#01013f"/></g><g transform="translate(28.036)"><rect width="10.364" height="14.132" fill="#01013f"/></g><g transform="translate(28.036 53.703)"><rect width="10.364" height="14.132" fill="#01013f"/></g></g></g><g transform="translate(4200.677 2096.582)"><g transform="translate(0 0)"><path d="M5236.2,2313.534v.076a47.279,47.279,0,0,1-1.917,13.371,45.622,45.622,0,0,1-2.885,7.471,47.583,47.583,0,0,1-90.1-15.761,46.545,46.545,0,0,1-.269-5.082v-.076a47.575,47.575,0,0,1,77.275-37.1,46.842,46.842,0,0,1,5.813,5.5A47.406,47.406,0,0,1,5236.2,2313.534Z" transform="translate(-5141.029 -2266.026)" fill="#e07000"/></g><g transform="translate(6.933 6.935)"><circle cx="40.649" cy="40.649" r="40.649" fill="#ff9a36"/></g><g transform="translate(29.455 24.333)"><g transform="translate(0 5.122)"><path d="M5364.906,2479.127c.021-.01.032-.01.054-.021,4.111-1.658,5.383-3.94,5.383-8.57,0-4.359-2.282-7.364-7-8.7a24.473,24.473,0,0,0-6.6-.786h-20.692v7.148h3.219v24.406h-3.219v7.214h21.09a32.664,32.664,0,0,0,6.2-.517c6.222-1.216,8.882-4.65,8.882-10.744C5372.227,2483.175,5368.9,2480.236,5364.906,2479.127Zm-14.146-10.754h3.5c2.1,0,3.66,1.5,3.66,4.047,0,2.659-.839,4.275-3.779,4.275h-3.38Zm4.436,24.233h-4.436v-9.646h4.273c3.046,0,4.662,2.045,4.662,4.876A4.5,4.5,0,0,1,5355.2,2492.606Z" transform="translate(-5336.054 -2461.052)" fill="#01013f"/></g><g transform="translate(6.538)"><rect width="7.365" height="48.205" fill="#01013f"/></g><g transform="translate(19.928)"><rect width="7.365" height="10.043" fill="#01013f"/></g><g transform="translate(19.928 38.162)"><rect width="7.365" height="10.043" fill="#01013f"/></g></g></g><g transform="translate(4273.884 2076.128)"><g transform="translate(0 0)"><path d="M5727.37,2181.406a50.807,50.807,0,0,1-9.6,29.756,51.922,51.922,0,0,1-5.243,6.147,50.827,50.827,0,0,1-85.124-48.8,48.142,48.142,0,0,1,2.412-7.052,50.835,50.835,0,0,1,91.517-4.113,49.328,49.328,0,0,1,3.241,7.407A50.405,50.405,0,0,1,5727.37,2181.406Z" transform="translate(-5625.743 -2130.592)" fill="#e07000"/></g><g transform="translate(7.404 7.406)"><circle cx="43.408" cy="43.408" r="43.408" fill="#ff9a36"/></g><g transform="translate(31.457 25.984)"><g transform="translate(0 5.462)"><path d="M5864.834,2358.118c4.435-1.777,5.8-4.21,5.8-9.183,0-4.65-2.435-7.859-7.473-9.291a26.159,26.159,0,0,0-7.04-.84h-22.1v7.644h3.434v26.064h-3.434v7.7h22.512a35.293,35.293,0,0,0,6.631-.549c3.639-.721,6.126-2.132,7.644-4.339a12.3,12.3,0,0,0,1.84-7.138C5872.649,2362.445,5869.1,2359.3,5864.834,2358.118Zm-15.116-11.5h3.736c2.25,0,3.909,1.6,3.909,4.328,0,2.842-.884,4.564-4.027,4.564h-3.618Zm0,15.589h4.566c3.261,0,4.972,2.185,4.972,5.21a4.808,4.808,0,0,1-4.789,5.092h-4.749Z" transform="translate(-5834.022 -2338.804)" fill="#01013f"/></g><g transform="translate(6.979)"><rect width="7.864" height="51.476" fill="#01013f"/></g><g transform="translate(21.278)"><rect width="7.864" height="10.724" fill="#01013f"/></g><g transform="translate(21.278 40.752)"><rect width="7.864" height="10.724" fill="#01013f"/></g></g></g><g transform="translate(4354.625 2087.97)"><g transform="translate(0 0)"><path d="M6261.979,2259.816c0,1.787-.1,3.563-.27,5.307a50.6,50.6,0,0,1-8.709,23.555,50.038,50.038,0,0,1-3.983,5.038,50.831,50.831,0,0,1-82.627-9.84,49.423,49.423,0,0,1-3.24-7.406,50.154,50.154,0,0,1-2.529-11.347c-.172-1.744-.27-3.52-.27-5.307a50.668,50.668,0,0,1,9.6-29.756,52.006,52.006,0,0,1,5.243-6.147,50.829,50.829,0,0,1,79.709,10.033,48.734,48.734,0,0,1,2.928,5.728A50.653,50.653,0,0,1,6261.979,2259.816Z" transform="translate(-6160.352 -2209.002)" fill="#e07000"/></g><g transform="translate(7.404 7.406)"><circle cx="43.408" cy="43.408" r="43.408" fill="#ff9a36"/></g><g transform="translate(31.457 25.984)"><g transform="translate(0 5.462)"><path d="M6406.269,2441.889a10.278,10.278,0,0,0-6.826-5.361c4.437-1.776,5.8-4.209,5.8-9.183,0-4.651-2.433-7.859-7.47-9.291a26.19,26.19,0,0,0-7.04-.84h-22.1v7.644h3.435v26.064h-3.435v7.7h22.511a35.34,35.34,0,0,0,6.633-.549c6.652-1.313,9.483-4.974,9.483-11.477A10.907,10.907,0,0,0,6406.269,2441.889Zm-21.941-16.859h3.736c2.25,0,3.908,1.6,3.908,4.328,0,2.842-.882,4.565-4.026,4.565h-3.618Zm4.748,25.892h-4.748v-10.3h4.565a4.875,4.875,0,0,1,3.51,1.271,5.318,5.318,0,0,1,1.464,3.941A4.809,4.809,0,0,1,6389.076,2450.921Z" transform="translate(-6368.631 -2417.214)" fill="#01013f"/></g><g transform="translate(6.979)"><rect width="7.864" height="51.476" fill="#01013f"/></g><g transform="translate(21.278)"><rect width="7.864" height="10.724" fill="#01013f"/></g><g transform="translate(21.278 40.752)"><rect width="7.864" height="10.724" fill="#01013f"/></g></g></g><g transform="translate(4433.752 2103.042)"><g transform="translate(0 0)"><path d="M6769.746,2351.535a42.733,42.733,0,0,1-75.94,26.9,41.409,41.409,0,0,1-4.3-6.385,42.426,42.426,0,0,1-5.242-20.519c0-.571.01-1.131.032-1.691a42.461,42.461,0,0,1,9.947-25.751,41.828,41.828,0,0,1,5.448-5.426,42.734,42.734,0,0,1,70.019,31.177C6769.736,2350.4,6769.746,2350.964,6769.746,2351.535Z" transform="translate(-6684.268 -2308.795)" fill="#e07000"/></g><g transform="translate(6.227 6.229)"><circle cx="36.51" cy="36.51" r="36.51" fill="#ff9a36"/></g><g transform="translate(26.462 21.855)"><g transform="translate(0 4.596)"><path d="M6885.388,2500.178a9.256,9.256,0,0,0,2.82-1.647c1.529-1.367,2.057-3.23,2.057-6.083,0-3.908-2.046-6.61-6.288-7.805a21.507,21.507,0,0,0-5.92-.71h-18.582v6.427h2.885v21.919h-2.885v6.481h18.937a29.211,29.211,0,0,0,5.565-.463c5.6-1.1,7.978-4.177,7.978-9.646C6891.954,2503.817,6888.972,2501.169,6885.388,2500.178Zm-12.714-9.668h3.143c1.9,0,3.284,1.346,3.284,3.639,0,2.389-.743,3.832-3.381,3.832h-3.046Zm3.993,21.769h-3.993v-8.667h3.843c2.734,0,4.178,1.841,4.178,4.382A4.046,4.046,0,0,1,6876.666,2512.279Z" transform="translate(-6859.475 -2483.933)" fill="#01013f"/></g><g transform="translate(5.866)"><rect width="6.615" height="43.297" fill="#01013f"/></g><g transform="translate(17.893)"><rect width="6.615" height="9.02" fill="#01013f"/></g><g transform="translate(17.893 34.277)"><rect width="6.615" height="9.02" fill="#01013f"/></g></g></g><g transform="translate(4079.876 2150.551)" opacity="0.14"><g transform="translate(0 0)"><path d="M4780.539,2625.049a42.733,42.733,0,0,1-75.94,26.9,50.832,50.832,0,0,1-82.627-9.84,50.82,50.82,0,0,1-69.622,2.165,47.6,47.6,0,0,1-85.78-.441,66.973,66.973,0,0,1-125.386-20.477h439.322C4780.528,2623.918,4780.539,2624.478,4780.539,2625.049Z" transform="translate(-4341.184 -2623.358)"/></g></g><g transform="translate(4033.39 2157.01)"><g transform="translate(0 0)"><path d="M4574.8,2666.128l-43.256,311.492-.173,1.206H4076.819l-2.767-19.938-40.662-292.76Z" transform="translate(-4033.39 -2666.128)" fill="#ff931d"/></g></g><g transform="translate(4074.052 2157.01)" opacity="0.11"><g transform="translate(0 0)"><path d="M4803.372,2666.128l-43.257,311.492c-.388.409-.775.807-1.173,1.206H4305.385l-2.767-19.938h421.948a14.6,14.6,0,0,0,14.394-12.521l39.413-280.24Z" transform="translate(-4302.619 -2666.128)"/></g></g><g transform="translate(4048.128 2087.969)"><g transform="translate(0 0)"><path d="M4800.7,2227.585a17.106,17.106,0,0,1-17.107,16.891h-.216l-99.3-1.259-46.186,328.438a48.984,48.984,0,0,1-48.284,41.964H4148.081a17.108,17.108,0,0,1-17.108-17.106,17.891,17.891,0,0,1,.3-3.23,17.133,17.133,0,0,1,16.808-13.877h441.528a14.6,14.6,0,0,0,14.394-12.52l46.325-329.375a33.265,33.265,0,0,1,33.234-28.518l100.249,1.271a17.091,17.091,0,0,1,16.579,13.877A16.58,16.58,0,0,1,4800.7,2227.585Z" transform="translate(-4130.973 -2208.991)" fill="#bc6915"/></g></g><g transform="translate(4048.429 2087.969)"><g transform="translate(0 0)"><path d="M4802.083,2224.14a17.1,17.1,0,0,1-16.794,13.876h-.216l-99.3-1.259L4639.588,2565.2a48.986,48.986,0,0,1-48.286,41.964h-441.53a14.132,14.132,0,1,1,0-27.753H4591.3a14.6,14.6,0,0,0,14.394-12.52l46.326-329.375a33.265,33.265,0,0,1,33.233-28.518l100.251,1.271A17.091,17.091,0,0,1,4802.083,2224.14Z" transform="translate(-4132.967 -2208.991)" fill="#bc6915"/></g></g><g transform="translate(4048.128 2103.117)" opacity="0.4"><g transform="translate(0 0)"><path d="M4800.7,2312.739a17.107,17.107,0,0,1-17.107,16.891h-.216l-99.3-1.26-46.186,328.438a48.984,48.984,0,0,1-48.284,41.964H4148.081a17.108,17.108,0,0,1-17.108-17.106,17.869,17.869,0,0,1,.3-3.229,17.122,17.122,0,0,0,16.808,13.876h441.528a48.984,48.984,0,0,0,48.284-41.964l46.186-328.437,99.3,1.259h.216a17.1,17.1,0,0,0,16.795-13.877A16.58,16.58,0,0,1,4800.7,2312.739Z" transform="translate(-4130.973 -2309.294)"/></g></g><g transform="translate(4123.144 2501.552)"><circle cx="31.848" cy="31.848" r="31.848" fill="#01013f"/></g><g transform="translate(4412.671 2501.552)"><circle cx="31.848" cy="31.848" r="31.848" fill="#01013f"/></g><g transform="translate(4204.458 2208.021)" opacity="0.33"><g transform="translate(0 0)"><circle cx="108.396" cy="108.396" r="108.396"/></g><g transform="translate(15.799 15.799)"><circle cx="92.597" cy="92.597" r="92.597"/></g><g transform="translate(67.115 55.429)"><g transform="translate(0 11.656)"><path d="M5610.435,3536.393v-16.427h7.33v-55.6h-7.33v-16.3h47.134c20.977,0,30.959,7.835,30.959,21.608,0,10.615-2.906,15.8-12.384,19.587,9.1,2.528,16.68,9.225,16.68,21.481,0,17.818-9.982,25.653-34.372,25.653Zm33.487-71.649V3483.7h7.708c6.7,0,8.593-3.665,8.593-9.73,0-5.813-3.539-9.224-8.34-9.224Zm10.108,55.221c5.307,0,10.237-4.043,10.237-10.867,0-6.445-3.665-11.121-10.616-11.121h-9.729v21.988Z" transform="translate(-5610.435 -3448.064)"/></g><g transform="translate(14.88)"><rect width="16.776" height="109.809"/></g><g transform="translate(45.383)"><rect width="16.776" height="22.877"/></g><g transform="translate(45.383 86.932)"><rect width="16.776" height="22.877"/></g></g></g><g transform="translate(4188.309 2197.255)"><g transform="translate(0 0)"><circle cx="108.396" cy="108.396" r="108.396" fill="#e07000"/></g><g transform="translate(15.799 15.799)"><circle cx="92.597" cy="92.597" r="92.597" fill="#ff9a36"/></g><g transform="translate(67.115 55.429)"><g transform="translate(0 11.656)"><path d="M5503.513,3465.111v-16.427h7.328v-55.6h-7.328v-16.3h47.135c20.976,0,30.959,7.834,30.959,21.609,0,10.615-2.908,15.8-12.385,19.587,9.1,2.527,16.68,9.225,16.68,21.482,0,17.816-9.982,25.651-34.37,25.651ZM5537,3393.462v18.955h7.709c6.7,0,8.594-3.665,8.594-9.729,0-5.813-3.539-9.225-8.341-9.225Zm10.109,55.221c5.309,0,10.236-4.043,10.236-10.867,0-6.444-3.665-11.121-10.615-11.121H5537v21.987Z" transform="translate(-5503.513 -3376.782)" fill="#01013f"/></g><g transform="translate(14.88)"><rect width="16.776" height="109.809" fill="#01013f"/></g><g transform="translate(45.383)"><rect width="16.776" height="22.877" fill="#01013f"/></g><g transform="translate(45.383 86.932)"><rect width="16.776" height="22.877" fill="#01013f"/></g></g></g></g><g transform="translate(150 8845.413)"><g transform="translate(399.708 93.799)"><path d="M789.453,174.614c.156-.122.32-.207.468-.337,2.143-1.953-1.32-6.12-3.475-4.167-.152.139-.342.2-.494.325-.017-1.523-1.561-3.5-4.239-2.328-.772.337-11.684,5.247-21.878,3.767,2.008-1.211,5.378-3.18,8.031-3.737,2.817-.595,2.159-5.1-.666-4.471a44.545,44.545,0,0,0-4.547,1.282c-12.679,3.977-24.636,12.409-34.143,21.772a60.226,60.226,0,0,0-4.812,4.492,2.251,2.251,0,0,0-.274,2.261c1.371,3.488,6.124,10.27,8.529,13.122a2.257,2.257,0,0,0,.848.6c-.9,2.2,2.223,4.332,3.817,2.16,4.256-5.8,13.5-15.117,13.594-15.184,12.691-.957,24.961-2.1,36.628-7.364,2.357-1.063,1.274-5.04-.873-4.922l-.059-.055.1-.055a32.714,32.714,0,0,0,4.648-2.636C792.287,177.862,790.954,175.108,789.453,174.614Z" transform="translate(-723.245 -163.605)" fill="#ea3e72"/><path d="M733.043,172.936H732.7a.527.527,0,0,1,0-1.054h.338c11.371,0,23.789-6.652,23.915-6.723a.542.542,0,0,1,.717.215.537.537,0,0,1-.215.717C757.333,166.158,744.684,172.936,733.043,172.936Z" transform="translate(-694.5 -158.797)" fill="#2a2b3c"/><path d="M733.965,175.572c-.329,0-.658-.013-.979-.03a.528.528,0,0,1,.034-1.055h.034c9.452.574,26.231-8.25,26.4-8.339a.527.527,0,0,1,.494.932C759.276,167.44,743.843,175.572,733.965,175.572Z" transform="translate(-693.49 -155.609)" fill="#2a2b3c"/><path d="M733.39,174.672a.527.527,0,0,1-.008-1.055c7.254-.122,21.3-5.711,21.435-5.77a.53.53,0,0,1,.4.983c-.586.228-14.362,5.715-21.814,5.842Z" transform="translate(-692.296 -150.065)" fill="#2a2b3c"/></g><path d="M681.917,158.57c46.535-17.576,92.1,43.482,115.433,75.495s7.221,55.557-9.152,51.829C736.837,274.2,653.717,169.224,681.917,158.57Z" transform="translate(-474.836 -96.037)" fill="#2483e2"/><path d="M809.311,163.635c-35.32,7.208-79.553,31-105.4,44.388-19.545,10.123,12.8,52.71,20.115,51.938s75.191-15.682,109.026-48.931C833.049,211.031,816.228,162.222,809.311,163.635Z" transform="translate(-405.676 -69.806)" fill="#2483e2"/><path d="M688.37,158.568s23.223,46.649,43.511,91.641c8.2,18.187,22.224,25.961,22.224,25.961s-38.222-4.808-46.371-13.742C690.985,244.059,688.37,158.568,688.37,158.568Z" transform="translate(-435.758 -86.014)" fill="#17171d"/><path d="M632.344,437.545c7.339,36.948,26.188,72.757,56.518,95.829,35.936,27.416,82.37,29.23,125.818,29.356,50.656.169,80.139,4.3,129.483-8.815,35.223-9.368,57.616-37.328,66.6-66.895a103.2,103.2,0,0,0,4.176-21c7.972-87.1-47.071-138.64-92.37-158.97-24.759-12.611-46.012-30.073-62.546-52.849-15.817-21.768-27.416-46.733-46.991-65.671-29.057-28.091-67.734-32.1-100.591-10.334-2.067,1.35-4.049,2.784-6.036,4.344-33.447,26.066-47.239,70.564-59.3,109.452C632.551,338.638,622.643,388.83,632.344,437.545Z" transform="translate(-628.478 -67.643)" fill="#edf1f4"/><path d="M632.344,426.93c7.339,36.948,26.188,72.757,56.518,95.829,35.936,27.416,82.37,29.23,125.818,29.356,50.656.169,80.139,4.3,129.483-8.815,35.223-9.368,57.616-37.328,66.6-66.895-7.293.844-15.349,4.471-20.621,6.369-25.058,8.9-48.336,17.082-75.246,18.179-28.091,1.139-56.523-1.818-84.357-4.981-29.993-3.412-62.639-6.533-91.738-15.222-55.127-16.576-73.854-94.817-74.744-145.135-1.008-58.29,19.318-113.966,47.619-164.158a5.753,5.753,0,0,0,.764-3.88c-2.067,1.35-4.049,2.784-6.036,4.344-33.447,26.066-47.239,70.564-59.3,109.452C632.551,328.022,622.643,378.214,632.344,426.93Z" transform="translate(-628.478 -57.027)" fill="#e4eaef"/><path d="M704.631,254.968s-24.885-42.807-59.682-59.176c0,0,54.832,25.809,78.03,65.878Z" transform="translate(-575.479 33.767)" fill="#17171d"/><g transform="translate(427.909 446.605)"><path d="M736,292.65c-2.543-4.572-3.783-8.41-3.842-16.154a.18.18,0,0,1-.013-.139c-.021-6.019-1.974-21.254-2.218-27.116,7.689-5.42,20.984,2.05,32.262,1.185,1.08,7.967,2.737,16.011,5.356,19.786A10.135,10.135,0,0,0,769,271.953c7.343,7.377,24.118,8.613,32.144,12.624,2.2,1,3.716,2.248,4.264,3.826C808.281,296.417,742.2,303.6,736,292.65Z" transform="translate(-729.931 -247.252)" fill="#e93e72"/><path d="M803.323,268.717a2.431,2.431,0,0,1,.456.865c3.26,8.524-64.271,16.142-70.223,5.551l-.046-.038a8.978,8.978,0,0,1-1.08-1.8c-2.649-5.538-1.957-14.408-1.839-15.661a.059.059,0,0,1-.008-.084c19.343,5.454,36.821-4.45,36.821-4.45,6.449,6.487,20.115,8.259,28.778,11.236C799.59,265.276,802.18,266.706,803.323,268.717Z" transform="translate(-728.351 -228.422)" fill="#ffd357"/><path d="M801.791,256.805a2.432,2.432,0,0,1,.456.865c3.26,8.524-64.271,16.142-70.223,5.551l-.046-.038a8.98,8.98,0,0,1-1.08-1.8,61.239,61.239,0,0,0,23.915,3.644C769.849,264.557,785.557,263.4,801.791,256.805Z" transform="translate(-726.819 -216.51)" fill="#2a2b3b"/></g><path d="M942.974,240.648c-15.593-31.967-179.54-43.077-201.114-45.3-15.23-1.539-34.62,8.322-49.226,13.94-27.454,10.587-36.737,28.251-21.84,62.036,9.6,21.663,46.91,19.351,73.618,20.545,32.962,1.493,121.288-13.21,123.713-13.286C897.017,277.643,956.859,269.1,942.974,240.648Z" transform="translate(-515.065 31.835)" fill="#343751"/><path d="M706.848,258.167c5,5.854,10.229,11.6,15.526,17.234,16.238,17.445,28.706,3.707,38.724,25.362,14.724,31.836,29.415,99.482,29.538,96.917,9,1.565,41.613-.612,64.659-9.254,0-54.3-33.076-164.727-50.977-180.94C783.271,188.425,692.174,240.929,706.848,258.167Z" transform="translate(-381.42 58.178)" fill="#343751"/><path d="M695.692,198.6s93.787,10.983,108.8,41.082c17.1,34.27,0,113.472,0,113.472L784.6,259.341Z" transform="translate(-412.197 42.802)" fill="#17171d"/><path d="M664.1,268.56c8.309,26.4,45.81,24.843,72.3,28.259,42.726,5.483,77.435,7.255,104.556,6.158a244.211,244.211,0,0,0,34.3-3.459c27.833-5.061,41.166-14.851,41.166-26.868a23.978,23.978,0,0,0-1.86-9.279,3.024,3.024,0,0,0-.211-.422c-.375-.806-.717-1.561-1.092-2.32-.042-.127-.131-.215-.173-.337,0,0,0-.042-.038-.042-23.413-41.841-162.217-54.161-181.835-57.573-15.138-2.615-26.615-13.2-41.541-7.212A58.835,58.835,0,0,0,672.2,205.756a37.456,37.456,0,0,0-11.894,18.98C657.269,235.956,658.37,250.208,664.1,268.56Z" transform="translate(-531.365 26.894)" fill="#3f4261"/><path d="M699.658,222.294c.279,1.468.616,5.251.953,10.389,1.455,20.971,7.432,56.131,8.71,66.6,3.851,30.339-5.656,68.6-5.858,81.438,21.157-3.2,43.3-2.792,62.373-1.261,8.883.666,17.057,1.586,24.177,2.5,4.273-33.827,2.4-120.267-5.66-162.04-.038-.186-47.767-16.5-70.792-10.081C704.382,212.361,698.443,216.322,699.658,222.294Z" transform="translate(-399.941 74.142)" fill="#3f4261"/><path d="M664.1,259.328c8.309,26.4,45.81,24.843,72.3,28.259,42.726,5.483,67.4,7.563,94.525,6.466,6.618,19.95,6.305,45.354,6.689,63.609.641,30.571-5.724,48.589-2.729,61.074,17.782-2.315,34.721-2.417,52.179-2.708-1.851-4.256-23.708-94.623-26.286-110.768-3.986-25.041-9.14-38.192-37.834-40.154-17.318-1.185-34.249-5.867-51.078-10.038-16.956-4.218-33.742-9.068-50.525-14-15.99-4.682-46.316-14.341-36.569-37.454a2.283,2.283,0,0,0-1.522-3.079,1.755,1.755,0,0,0-.717-.759,20.648,20.648,0,0,0-10.334-3.248,37.456,37.456,0,0,0-11.894,18.98C657.269,226.725,658.37,240.977,664.1,259.328Z" transform="translate(-531.365 36.125)" fill="#343751"/><path d="M855.24,418.929a.76.76,0,0,1-.751-.675c-.122-1.046-12.173-104.948-17.71-133.262-4.239-21.646-22.911-23.363-63.812-27.121-7.6-.7-16.209-1.489-25.526-2.489-58.653-6.31-78.65-57.978-78.844-58.5a.761.761,0,0,1,1.426-.536c.194.519,19.879,51.314,77.583,57.514,9.3,1,17.909,1.793,25.5,2.493,41.68,3.83,60.7,5.58,65.161,28.348,5.555,28.365,17.609,132.33,17.728,133.376a.755.755,0,0,1-.667.839Z" transform="translate(-499.54 33.988)" fill="#2a2b3c"/><path d="M659.112,340.472s.089-154.309,44.026-179.734c28.285-16.361,71.931-1.965,81.674,19.512,19.005,41.9,51.179,153.934,51.179,153.934S732.312,361.6,659.112,340.472Z" transform="translate(-529.905 -101.748)" fill="#4093f6"/><path d="M696.935,152.007s-.51,16.787-1.075,20.562c-.173,1.156-2.535,4.732-4.534,6.09-7.052-5.053-12.886-3.863-15.1-6.09,1.712-4.716,2.6-11.612,2.6-20.562C678.824,143.534,696.935,152.007,696.935,152.007Z" transform="translate(-474.835 -119.244)" fill="#e93e72"/><path d="M676.3,153.246s3.922,22.818,18.339,23.266,5.382-31.064,3.218-31.929S681.639,140.652,676.3,153.246Z" transform="translate(-474.6 -134.11)" fill="#e93e72"/><path d="M697.868,163.165l-3-10.108-11.229,1.162-9.444,1.977Z" transform="translate(-481.379 -103.748)" fill="#f2f8ff"/><path d="M679.806,163.165l3.744-10.108,4.65,5.709Z" transform="translate(-463.316 -103.748)" fill="#f2f8ff"/><path d="M696.805,142.391c-4.964.848-9.705.042-14.273,1.78A11.721,11.721,0,0,0,674.911,153c-2.256,9.705,1.712,23.067,12.658,24.759a2.136,2.136,0,0,0,2.375-2.366c-.211-3.488-.574-6.917-1.1-10.367a2.173,2.173,0,0,0-.3-.806,21.313,21.313,0,0,0,.532-8.208c9.275,1.637,18.385,4.509,21.616-6.58C713.773,138.873,703.052,141.328,696.805,142.391Z" transform="translate(-481.028 -141.366)" fill="#17171d"/><path d="M685.142,149.686s-2.189-4.205-6.171-3.606-4.9,10.089,1.839,10.911S685.142,149.686,685.142,149.686Z" transform="translate(-476.016 -126.387)" fill="#e93e72"/><path d="M700.453,251.257C699,247.726,783.886,247.216,787,252.5,791.246,259.684,704.692,261.548,700.453,251.257Z" transform="translate(-396.936 203.588)" fill="#17171d"/><g transform="translate(328.283 452.199)"><path d="M707.686,283.541c-1.388-5.049-1.679-9.068.1-16.606a.2.2,0,0,1,.021-.135c1.409-5.854,3.134-12.206,4.281-17.959,11.578-.548,22.924-.114,31,.169-.839,7.993-1.08,15.931.561,20.224a10.446,10.446,0,0,0,1,2.033c5.382,8.908,21.385,14.092,28.226,19.9,1.906,1.489,3.083,3.062,3.239,4.724C777.005,304.356,711.106,295.642,707.686,283.541Z" transform="translate(-705.55 -248.578)" fill="#e93e72"/><path d="M776.589,281.007a2.373,2.373,0,0,1,.232.949c1.152,9.056-66.262.43-69.527-11.266l-.038-.051a8.679,8.679,0,0,1-.62-2c-1.261-6.006,1.514-14.463,1.928-15.648a.056.056,0,0,1,.013-.084c17.5,9.887,36.821,4.416,36.821,4.416,4.728,7.828,17.58,12.8,25.29,17.744C773.78,276.781,775.957,278.789,776.589,281.007Z" transform="translate(-706.311 -234.656)" fill="#ffd357"/><path d="M776.341,269a2.372,2.372,0,0,1,.232.949c1.151,9.056-66.262.43-69.527-11.266l-.038-.051a8.688,8.688,0,0,1-.62-2,61.074,61.074,0,0,0,22.363,9.216C743.471,268.967,759,271.565,776.341,269Z" transform="translate(-706.062 -222.654)" fill="#2a2b3b"/></g><path d="M651.2,281.484c13.8,55.439,52.323,49.964,104.746,50.112,49.437.139,57.113-53.377,53.95-53.617-32.688-44.823-81.986-69.969-153.423-68.691C638.375,209.608,646.162,261.226,651.2,281.484Z" transform="translate(-574.878 77.043)" fill="#edf1f4"/><path d="M801.247,278.916s-61.462-69.5-153.423-68.691C647.824,210.224,736.786,193.8,801.247,278.916Z" transform="translate(-566.228 76.106)" fill="#17171d"/><path d="M707.874,156.034s26.682,15.96,23.73,79.325c-1.928,41.347,79.961,96.6,79.961,96.6s-62.154,22.456-152.453.928l3.551-98.511Z" transform="translate(-529.905 -94.168)" fill="#2483e2"/><path d="M694.894,159.041l-29.065,105.99,87.735,32.92s-60.429-43.587-60.783-48.859S720.791,187.748,694.894,159.041Z" transform="translate(-508.291 -84.492)" fill="#17171d"/><g transform="translate(234.011 180.539)"><g transform="translate(0 71.579)"><rect width="136.383" height="5.974" transform="matrix(0.999, -0.033, 0.033, 0.999, 61.917, 17.104)" fill="#aabfce"/><path d="M746.074,216.881l-61.917-7.493-.2-5.968,61.916,7.488Z" transform="translate(-683.96 -193.806)" fill="#bed0e2"/><path d="M683.96,210.754l154.527-9.614,43.7,12.625-136.309,4.477Z" transform="translate(-683.96 -201.141)" fill="#dce8ef"/></g><g transform="translate(58.88)"><path d="M833.426,268.5,697.92,271.508l14.869-82.878,133.825-4.461,4.7,3.048Z" transform="translate(-697.92 -184.17)" fill="#dce8ef"/><path d="M834.409,266.065l-135.77,4.461L712.607,190.8l136.387-5.9Z" transform="translate(-695.604 -181.844)" fill="#bed0e2"/></g></g><g transform="translate(167.516 211.729)"><path d="M777.863,246.773a55.064,55.064,0,0,0-15.576-21.827c.042-.219.017-.422.042-.645a38.176,38.176,0,0,1,16.445,11.11c2.577,2.944,6.854-3.159,4.294-6.078-9.212-10.507-19.87-15.163-33.38-16.471-18.972-1.831-38.981-8.693-53.878-20.566a2.3,2.3,0,0,0-1.265-.506,3.057,3.057,0,0,0-3.657,1.173q-10.907,13.28-21.814,26.555c-1.523,1.86-.924,4.842.708,5.5A289.214,289.214,0,0,0,718.033,239.9a52.594,52.594,0,0,0,13.636,1.033c5.648-.236,12.392-1.94,17.555.291,6.213,2.678,9.423,9.423,12.565,15.635,1.522,3,5.251.321,5.584-2.754a.968.968,0,0,1,.055.1c1.375,2.851,4.75.692,5.483-2.143C774.767,254.863,779.365,250.4,777.863,246.773Z" transform="translate(-668.195 -191.565)" fill="#ea3e72"/><path d="M698.789,208.891a.829.829,0,0,1-.738-.46c-.953-1.89-5.7-6.192-7.453-7.685a.83.83,0,0,1,1.08-1.261c.266.228,6.555,5.622,7.854,8.2a.832.832,0,0,1-.367,1.118A.786.786,0,0,1,698.789,208.891Z" transform="translate(-597.045 -166.733)" fill="#2a2b3c"/><path d="M705.671,224.335a.821.821,0,0,1-.776-.531c-.055-.135-5.412-13.716-15.5-21.886a.832.832,0,0,1,1.046-1.295c10.431,8.457,15.775,22.009,16,22.582a.832.832,0,0,1-.472,1.076A.853.853,0,0,1,705.671,224.335Z" transform="translate(-600.954 -163.011)" fill="#2a2b3c"/><path d="M702.9,221.653a.839.839,0,0,1-.755-.485c-.059-.139-6.331-13.7-13.484-17.711a.822.822,0,0,1-.32-1.126.832.832,0,0,1,1.126-.32c7.634,4.264,13.923,17.888,14.189,18.466a.823.823,0,0,1-.409,1.1A.782.782,0,0,1,702.9,221.653Z" transform="translate(-603.719 -158.284)" fill="#2a2b3c"/></g><path d="M731.731,157.9c33.439,36.826,4.121,102.067-17.082,135.531s-62.744,2.725-62.951-8.946S711.465,135.582,731.731,157.9Z" transform="translate(-553.762 -96.037)" fill="#4093f6"/><path d="M797.479,233.1c-27.9-22.835-93.539-51.141-115.471-53.086s-32.785,43.212-27.564,48.4,73.606,53.368,120.761,58.6C775.2,287.011,802.946,237.57,797.479,233.1Z" transform="translate(-549.089 -17.189)" fill="#4093f6"/><path d="M712.288,157.781S654.7,235.068,651.627,277.154s96.365,69.565,104.286,75.588c0,0-94.526-53.056-90.574-74.719S712.288,157.781,712.288,157.781Z" transform="translate(-554.214 -88.546)" fill="#2483e2"/></g><g transform="translate(47 43)"><path d="M724.187,80.015h210.97c15.577,0,28.211,14.958,28.211,33.417V292.216c0,18.454-12.634,33.417-28.211,33.417H811.865L782.106,373.1c-3.163,5.049-9.935,2.391-9.927-3.894l.042-43.574H724.187c-15.581,0-28.208-14.963-28.208-33.417V113.432C695.979,94.973,708.606,80.015,724.187,80.015Z" transform="translate(-393.979 8426.374)" fill="#edf1f4"/><g transform="translate(-31 -10)"><g transform="translate(397.198 8533.309)"><g transform="translate(0 0)"><path d="M4116.939,1102.747a69.777,69.777,0,0,1-.883,11.093,68.582,68.582,0,0,1-2.994,11.842,67.775,67.775,0,0,1-4.1,9.406,69.476,69.476,0,1,1,5.4-51.165,68.394,68.394,0,0,1,2.033,10.088A70.325,70.325,0,0,1,4116.939,1102.747Z" transform="translate(-3977.967 -1033.261)" fill="#e07000"/></g><g transform="translate(10.125 10.128)"><g transform="translate(0 0)"><circle cx="59.359" cy="59.359" r="59.359" fill="#ff9a36"/></g></g><g transform="translate(43.021 35.532)"><g transform="translate(0 7.478)"><path d="M4230.568,1270.764c-.95-6.211-5.34-9.742-10.49-11.172,6.066-2.424,7.932-5.742,7.932-12.557,0-6.357-3.317-10.736-10.211-12.691a35.467,35.467,0,0,0-9.629-1.151h-30.219v10.445h4.7v35.637h-4.7v10.535h30.777a47.135,47.135,0,0,0,9.071-.76c9.094-1.787,12.971-6.8,12.971-15.685A16.055,16.055,0,0,0,4230.568,1270.764Zm-31.146-26.878h5.094c3.083,0,5.351,2.178,5.351,5.91,0,3.888-1.217,6.234-5.507,6.234h-4.937Zm6.479,35.391h-6.479V1265.19h6.233a6.258,6.258,0,0,1,6.681,5.574,10.057,10.057,0,0,1,.123,1.553A6.583,6.583,0,0,1,4205.9,1279.277Z" transform="translate(-4177.951 -1233.195)" fill="#01013f"/></g><g transform="translate(9.539 0)"><rect width="10.754" height="70.392" fill="#01013f"/></g><g transform="translate(29.092 0)"><rect width="10.754" height="14.665" fill="#01013f"/></g><g transform="translate(29.092 55.727)"><rect width="10.754" height="14.665" fill="#01013f"/></g></g></g><text transform="translate(467 8718)" fill="#2d3561" font-size="35" font-family="Montserrat-Bold, Montserrat" font-weight="700"><tspan x="-79.012" y="0">USD 0.01</tspan></text></g></g></g></svg>