<svg xmlns="http://www.w3.org/2000/svg" xmlns:xlink="http://www.w3.org/1999/xlink" width="1919.812" height="1612.633" viewBox="0 0 1919.812 1612.633"><defs><linearGradient id="a" x1="0.89" y1="3.096" x2="0.201" y2="-0.605" gradientUnits="objectBoundingBox"><stop offset="0" stop-color="#ff3e8f"/><stop offset="1" stop-color="#ffba8f"/></linearGradient><linearGradient id="b" x1="0.89" y1="-2.096" x2="0.201" y2="1.605" xlink:href="#a"/></defs><g transform="translate(-0.107 -31405.5)"><g transform="translate(0.107 31637.809)"><path d="M1380.326,272.893c-70.948-28.559-143.52-67.283-208.968-120.006C931.521-40.377,527.195-59.08,259.933,146.65,189.067,201.2,97.016,242.146,0,272.893Z" transform="translate(272.893) rotate(90)" fill="url(#a)"/></g><g transform="translate(1202.088 31855.998)"><g transform="translate(167.141 113.11)"><path d="M372.448,306.061s20.169,25.726,45.807,37.041c14.466,6.349,39.869-11.719,48.675-32.687,1.68-4-8.652-12.313-8.652-12.313-2.05-1.555-24.552,27.6-28.015,25.931-.968-.477-15.973-24.49-31.04-46.273-11.645-16.817-23.371-32.284-28.653-34.382C358.511,238.648,372.448,306.061,372.448,306.061Z" transform="translate(-365.658 -243.141)" fill="#ff4c5b"/></g><g transform="translate(194.557 147.716)"><path d="M373.461,257.552c8.891,13.292,12.958,30.215,25.311,41.031,11.125,9.778,18.75,9.558,25.007-4.563,1.665-3.759,4.284-9.98,3.98-11.245-8.22,7.273-15.562,11.113-19.029,9.445-.965-.48-14.381-17.847-29.449-39.63a4.435,4.435,0,0,0-4,2.061A1.872,1.872,0,0,0,373.461,257.552Z" transform="translate(-373.132 -252.576)" fill="#fc3c4c"/></g><g transform="translate(145.218 456.052)"><path d="M377.328,337.088c-1.713-1.676-17.587,1.849-17.631,2.831-.132,3.015.5,14.44,2.215,15.749,1.665,1.273,17.7-.752,17.664-3.66C379.54,349.5,378.982,338.7,377.328,337.088Z" transform="translate(-359.68 -336.643)" fill="#ff505c"/></g><g transform="translate(143.231 470.523)"><path d="M361.8,341.828s-6.122,11.528.209,19.219c0,0,38.9-2.927,50.362-6.18,0,0-1.449-14.3-11.608-14.279a148.746,148.746,0,0,0-20.136,1.592S370.04,348.822,361.8,341.828Z" transform="translate(-359.139 -340.588)" fill="#1f0d52"/></g><g transform="translate(10.403 440.387)"><path d="M346.354,340.483c-.4-2.362-15.328-8.821-15.94-8.047-1.874,2.362-8.069,11.983-7.446,14.051.6,2.006,14.778,9.778,16.45,7.4C340.867,351.834,346.742,342.76,346.354,340.483Z" transform="translate(-322.924 -332.371)" fill="#ff505c"/></g><g transform="translate(0 450.901)"><path d="M331.221,335.238s-11.726,5.747-11.11,15.691c0,0,33.223,20.455,44.409,24.541,0,0,7.215-12.426-1.023-18.376a148.289,148.289,0,0,0-17.242-10.523S333.788,345.742,331.221,335.238Z" transform="translate(-320.088 -335.238)" fill="#1f0d52"/></g><g transform="translate(100.45 193.023)"><path d="M354.551,327.564c1.027,2.751,2.164,5.648,3.3,8.619,7.923,20.356,17.646,44.087,18.632,56.41,1.834,22.924,12.547,78.8,12.437,105.871-.147,22.186,6.147,37.166,5.667,42.267.037.077,20.132-3.881,20.132-3.881,7.728-31.789,15.647-108.827,15.647-143.671s-3.011-92.9-15.808-120.45c-12.177-26.188-60.775,21.42-66.424,27.838C345.968,303.026,349.412,313.883,354.551,327.564Z" transform="translate(-347.475 -264.929)" fill="#d3e7ec"/></g><g transform="translate(107.526 246.825)"><path d="M349.4,288.43c1.027,2.751,2.164,5.648,3.3,8.619,7.922,20.356,17.646,44.087,18.632,56.41,1.834,22.924,11.091,140.494,12.947,147.995,3.668,2.058,10.651.382,15.529-1.827,1.5-19.509-7.57-37.932-9.767-57.041-4.255-36.494,8.363-75.006-7.189-109.923-4.368-9.793-11.443-19.843-10.75-31.03.334-5.538,3.928-11.847.77-17.2-5.608-9.536-16.212-3.118-21.126,3.448a1.79,1.79,0,0,0-1.757.147C349.808,288.173,349.587,288.283,349.4,288.43Z" transform="translate(-349.404 -279.598)" fill="#b8d3d8"/></g><g transform="translate(10.884 192.248)"><path d="M427.77,291.222s-.037,1.21-.077,3.488c-.327,14.154-1.94,69.1-8.029,122.871-3.924,34.62-47.9,91.4-77.023,113.551l-15.991-8.619-3.594-1.907s17.9-32.46,26.591-45.884c22.63-34.844,17.825-55.09,17.936-78.083.293-47.355-12.03-70.462.88-105.672.587-1.61,1.247-3.264,1.944-4.915a148.8,148.8,0,0,1,9.646-18.849,4.788,4.788,0,0,1,2.751-2.021,12.137,12.137,0,0,1,5.282-.33c8.986,1.064,23.4,8.656,35.834,21.97Q425.9,288.911,427.77,291.222Z" transform="translate(-323.055 -264.718)" fill="#d3e7ec"/></g><g transform="translate(10.884 209.414)"><path d="M379.543,350.588c-4.405-22.85-4.09-53.278,2.659-76.018a1.377,1.377,0,0,0-.624-1.724,1.336,1.336,0,0,0-.84-.66c-2.535-.8-5.909-1.98-9.43-2.787-18.441,45.007-3.433,67.4-3.726,114.754-.11,22.993,4.695,43.239-17.936,78.083-8.693,13.424-26.591,45.884-26.591,45.884l3.594,1.907c13.017-11.92,26.371-23.987,34.184-40.016,8.729-18.045,14.414-38.878,18.632-58.428C383.977,390.864,383.5,371.348,379.543,350.588Z" transform="translate(-323.055 -269.398)" fill="#b8d3d8"/></g><g transform="translate(148.311 91.697)"><path d="M378.515,328.08c-2.571-5.014-6.807-10.93-10.5-16.622-1.4-2.171-2.721-4.324-3.866-6.334a30.831,30.831,0,0,1-3.312-7.853,8.917,8.917,0,0,1-.279-3.074,137,137,0,0,1,3.91-15.4c5.843-19.513,18.342-46.845,25.792-40.58,11.473,9.595,21.482,35.031,29.173,54.808C414.951,309.433,401.387,324.523,378.515,328.08Z" transform="translate(-360.524 -237.303)" fill="#afafff"/></g><g transform="translate(148.624 92.61)"><path d="M390.032,237.552a63.686,63.686,0,0,1,.04,34.9c-2.435,8.733-7.937,34.378-12.918,52.875-1.6-2.857-16.043-26.419-16.545-28.719l18.552-20.03Z" transform="translate(-360.609 -237.552)" fill="#5f40d5"/></g><g transform="translate(50.266 80.123)"><path d="M451.971,303.588c-3.268,9.683-6.356,18.489-7.376,24.211-3.195,18.108,13.2,34.011,12.254,47.307-2.039,3.3-41.71,14.161-68.21,11.854s-53.781-8.517-54.775-13.486c-.895-4.544,6.712-35.167,12.346-61.663,6.243-29.423,16.465-58.45,23.254-67.527A15.151,15.151,0,0,1,371,242.53c2.237-2.113,5.674-3.822,10.021-5.065,24.376-7.332,64.681-1.79,81.685,9.562C467.691,259.332,459.05,282.711,451.971,303.588Z" transform="translate(-333.792 -234.147)" fill="#9c99ff"/></g><g transform="translate(136.59 68.41)"><path d="M372.945,235.132l1.423,10.75s3.605,5.791.862,6.521c-9.305,2.479-16.252-8.971-16.252-8.971l-1.651-12.478Z" transform="translate(-357.328 -230.954)" fill="#ff505c"/></g><g transform="translate(136.711 69.319)"><path d="M358.568,240.313l-1.207-9.111s8.546,9.177,15.87,8.63C373.231,239.832,365.144,243.544,358.568,240.313Z" transform="translate(-357.361 -231.202)" fill="#fc3c4c"/></g><g transform="translate(85.938 83.44)"><path d="M366.295,252.14c-4.431-3.855-18.364-8.781-22.777-10.27a15.153,15.153,0,0,1,1.54-1.753c2.237-2.113,5.674-3.822,10.021-5.065C362.136,239.446,367.3,248.234,366.295,252.14Z" transform="translate(-343.518 -235.052)" fill="#5f40d5"/></g><g transform="translate(135.004 41.719)"><path d="M385.711,232.289s.26,12.438-2.894,22.436c-2.237,7.1-18.6,10.2-24.171-3.87s3.928-27.178,3.928-27.178Z" transform="translate(-356.896 -223.677)" fill="#ff505c"/></g><g transform="translate(130.184 36.382)"><path d="M390.482,222.806c-2.076-.275-3.657.268-5.678.613-3.4.576-6.066.033-9.353-.576-4.046-.752-7.952-1.225-11.616,1.045-5.8,3.587-9.507,14.183-7.864,21.343a3.831,3.831,0,0,0,1.291,3.631,4.5,4.5,0,0,0,6.426-.521c2.527-2.828,2.34-7.563,3.173-11.047.187-.789.532-1.768.73-2.747,8.949,3.5,21.075,7.644,28.594,2.274C403.9,231.3,398.24,223.837,390.482,222.806Z" transform="translate(-355.581 -222.222)" fill="#32187c"/></g><g transform="translate(132.253 58.44)"><path d="M358.208,231.563c-.139-.224-.3-.426-.437-.649-1.2-2.105,2.215-3.829,3.422-1.713a15.5,15.5,0,0,0,5.836,6.078c3.47,1.984,5.439,1.291,8.45-.492a2.09,2.09,0,0,1,2.67.77c1.735,3.008,8.913.767,8.916,4.863,0,3.242-4.709,8.014-8.883,8.4-11.124,1.016-17.268-7.2-21.768-14.59A1.8,1.8,0,0,1,358.208,231.563Z" transform="translate(-356.146 -228.236)" fill="#32187c"/></g><g transform="translate(71.001 85.62)"><path d="M367.179,235.8a1.632,1.632,0,0,0-1.849.312,13.356,13.356,0,0,0-8.715,2.083c-.8-.216-2.579,2.333-3.107,3.242-6.224,10.648-9.764,19.733-13.142,31.532-2.736,9.566,1.28,23.749,3.481,33.505,5.722,25.366,45.792,49.449,46.038,48.066,1.262-7.211-14.051-49.526-9.973-50.982C386.691,301.137,386.16,243.946,367.179,235.8Z" transform="translate(-339.446 -235.646)" fill="#5f40d5"/></g><g transform="translate(81.869 99.159)"><path d="M406.6,355.252c26.819,1.4,64.447-44.09,64.447-44.09l-10.061-6.793s-31.4,23.114-47.014,21.005c-2.831-.385-19.289-15.9-23.907-45.213-1.541-9.808-3.884-19.582-10.483-27.013a44.871,44.871,0,0,0-19.6-13.127c-8.7-2.916-17.653,3.88-17.565,13.057C342.582,270.728,360.987,352.875,406.6,355.252Z" transform="translate(-342.409 -239.338)" fill="#ff505c"/></g><g transform="translate(256.878 136.083)"><g transform="translate(1.454 1.102)"><rect width="27.484" height="45.86" transform="matrix(0.855, 0.519, -0.519, 0.855, 23.788, 0)" fill="#ffe49b"/></g><g transform="translate(9.184 5.128)"><path d="M432.343,258.938,418.691,250.8l-1.071,1.761,6.881,4.174,4.893,2.993a3.5,3.5,0,0,1,1.177,4.808L411.5,295.983a3.5,3.5,0,0,1-4.808,1.177l-11.81-7.1-2.248,3.708,13.527,8.337a3.5,3.5,0,0,0,4.809-1.174l22.553-37.188A3.5,3.5,0,0,0,432.343,258.938Z" transform="translate(-392.628 -250.803)" fill="#1f0d52"/></g><path d="M438.036,262.078c-.066-.044-.132-.088-.205-.132L418,249.912a3.5,3.5,0,0,0-4.8,1.177l-22.56,37.188a3.5,3.5,0,0,0,1.177,4.808l19.839,12.034.205.114a3.5,3.5,0,0,0,4.6-1.295l22.557-37.18A3.509,3.509,0,0,0,438.036,262.078Zm-43.265,23.437,19.072-31.444a3.5,3.5,0,0,1,4.809-1.181l4.9,2.978-.2.825a1.123,1.123,0,0,0,.488,1.306l4.119,2.5a1.133,1.133,0,0,0,1.386-.169l.638-.565,4.9,2.978a3.5,3.5,0,0,1,1.177,4.808l-19.072,31.444a3.5,3.5,0,0,1-4.812,1.177l-16.237-9.852A3.5,3.5,0,0,1,394.771,285.515Z" transform="translate(-390.124 -249.405)" fill="#5f40d5"/><g transform="translate(9.228 45.193)"><path d="M398.127,266.71l-4.977-3.019a1.06,1.06,0,0,1-.356-1.456h0a1.052,1.052,0,0,1,1.452-.352l4.981,3.019a1.058,1.058,0,0,1,.356,1.452h0A1.06,1.06,0,0,1,398.127,266.71Z" transform="translate(-392.64 -261.726)" fill="#1f0d52"/></g><g transform="translate(34.54 6.945)"><path d="M400.425,252.023a.477.477,0,1,0-.814-.5.477.477,0,1,0,.814.5Z" transform="translate(-399.541 -251.298)" fill="#1f1a1a"/><g transform="translate(1.407 0.854)"><path d="M402.009,253.54l-1.856-1.126a.473.473,0,0,1-.158-.653h0a.473.473,0,0,1,.653-.161l1.852,1.122a.478.478,0,0,1,.158.657h0A.47.47,0,0,1,402.009,253.54Z" transform="translate(-399.925 -251.531)" fill="#1f1a1a"/></g></g></g><g transform="translate(194.555 157.137)"><g transform="translate(2.501 3.388)"><path d="M377.141,260.471c5.117-4.438,12.786-5.018,19.322-3.928,2.542.429,8.494,1.529,9.991,3.437,1.276,1.625-.286,3.382-2.534,2.6-2.571-.888-7.945-1.706-10.409-1.155,4.233.4,2.45,5.392-.194,6.133,1.339.84-.326,3.576-3.5,3.789,1.449.323-.282,4.442-5.931,3.815-3.877-.194-5.193-.5-7.185-2.036-2.289-1.772-2.978-4.695-2.725-7.464a1.465,1.465,0,0,1,.055-1.423c.106-.2.26-.345.374-.535A5.426,5.426,0,0,1,377.141,260.471Z" transform="translate(-373.814 -256.069)" fill="#ff505c"/></g><path d="M383.941,255.145c2.157-.015,2.2,3.151.246,3.628a11.994,11.994,0,0,0-2.318.766,6.3,6.3,0,0,1-.363,5.212c-.869,1.346-3.154,4.357-4.754,4.09-.9-.15-3.781-.04-3.613-1.1.341-2.127,5.065-10.307,5.315-10.611C379.869,255.427,381.839,255.152,383.941,255.145Z" transform="translate(-373.132 -255.145)" fill="#ff505c"/></g><g transform="translate(78.209 89.583)"><path d="M400.774,293.175c-.6-4.266-4.75-31.385-18.5-44.971-6.254-6.177-24.842-16.23-33.19-8.916-13.366,11.715-6.463,45.18-.378,69.222C366.4,312.207,385.168,305.909,400.774,293.175Z" transform="translate(-341.411 -236.727)" fill="#afafff"/></g><g transform="translate(255.244 161.176)"><path d="M401.029,256.322c-5.12-.616-8.854,2.564-10.358,7.174a6.878,6.878,0,0,0-.422.576c-1,2.105-.8,4.346,1.584,5.227a5.848,5.848,0,0,0,7-2.281c.99-1.64.745-4.357,3.118-4.713,2.322-.348,5.3,1.819,7.094,3.03,1.254.844,2.644-.308,2.758-1.584C412.34,257.907,405.368,256.843,401.029,256.322Z" transform="translate(-389.678 -256.246)" fill="#ff4c5b"/></g><g transform="translate(207.22 -52.174)"><path d="M404.8,220.6l120.492-8.208c12.421-1.3,21.463,11.638,22.2,26.747l-6.236,58.1c.356,11.371-5.376,21.029-12.8,21.584L455.029,324.2c-.027,13.011-7.755,27.406-16.608,43.318l1.606,1.137-7.5,25.565-8.4-8.717s8.561-35.269,1.569-59.142l-15.146.473-2.194,5.606-7.553-7.977a14.856,14.856,0,0,1-2.184-2.3l-.245-.257.007-.041a25.911,25.911,0,0,1-4.526-14.431l-1.865-65.246C391.638,230.809,397.37,221.146,404.8,220.6Z" transform="translate(-391.978 -212.302)" fill="#b9dae1"/><g transform="translate(9.173 6.264)"><path d="M407.247,222.352l120.028-8.317c7.4-.558,13.69,8.343,14.044,19.879l1.858,66.2c.355,11.531-5.355,21.335-12.756,21.888l-73.133,5.458c-.037,18.522-11.132,58.166-30.783,62.2,0,0,8.532-35.793,1.566-60.008l-17.676.678c-7.4.553-13.689-8.348-14.044-19.884l-1.858-66.2C394.137,232.714,399.847,222.91,407.247,222.352Z" transform="translate(-394.479 -214.01)" fill="#e5f0f3"/><g transform="translate(28.697 9.474)"><g transform="translate(10.658 32.283)"><path d="M74.866,1034.1a22.43,22.43,0,1,1-22.43-22.43A22.428,22.428,0,0,1,74.866,1034.1Z" transform="translate(-30.005 -1011.67)" fill="#ffbe1b"/><path d="M67.788,1032.616a16.837,16.837,0,1,1-16.837-16.839A16.837,16.837,0,0,1,67.788,1032.616Z" transform="translate(-28.52 -1010.185)" fill="#ffe37b"/><g transform="translate(8.82 17.859) rotate(-30)"><path d="M836.808,401.984l4.678-5.409-4.678-5.409,4.678-5.409h0l-4.678-5.409h-14v21.637Z" transform="translate(-822.804 -380.347)" fill="#fff"/><path d="M830.108,380.37l-2.33,5.37,7.008,5.414Z" transform="translate(-820.782 -380.335)" fill="#fff" style="isolation:isolate"/><path d="M834.788,387.335l-7.014,5.418,2.335,5.4Z" transform="translate(-820.783 -376.516)" fill="#fff" style="isolation:isolate"/><path d="M822.8,387.335v10.818l6.991-5.4-2.343-5.418Z" transform="translate(-822.803 -376.516)" fill="#fff" style="isolation:isolate"/><path d="M826.109,387.335l2.343,5.418,7.014-5.418Z" transform="translate(-821.461 -376.516)" fill="#fff" opacity="0.2" style="isolation:isolate"/><path d="M826.109,387.335l2.343,5.418,7.014-5.418Z" transform="translate(-821.461 -376.516)" fill="#fff" style="isolation:isolate"/><path d="M829.8,385.752l-7-5.4v10.819h4.648Z" transform="translate(-822.803 -380.347)" fill="#fff" style="isolation:isolate"/><path d="M835.466,389.252l-7.008-5.414-2.349,5.414Z" transform="translate(-821.461 -378.433)" fill="#fff" opacity="0.2" style="isolation:isolate"/><path d="M835.466,389.252l-7.008-5.414-2.349,5.414Z" transform="translate(-821.461 -378.433)" fill="#fff" style="isolation:isolate"/><path d="M836.808,401.984l4.678-5.409-4.678-5.409,4.678-5.409h0l-4.678-5.409h-14v21.637Z" transform="translate(-822.804 -380.347)" fill="#fff"/><path d="M826.108,391.154l4.678-10.784,4.678,10.784-4.678,10.819Z" transform="translate(-821.46 -380.335)" fill="#fff" opacity="0.2" style="isolation:isolate"/><path d="M822.8,398.153V387.335h14Z" transform="translate(-822.804 -376.516)" fill="#fff" opacity="0.3" style="isolation:isolate"/><path d="M822.8,380.347v10.819h14Z" transform="translate(-822.804 -380.347)" fill="#fff" opacity="0.5" style="isolation:isolate"/></g></g><path d="M42.092,1002.778l.542.136-.542.135a8.9,8.9,0,0,0-6.47,6.472l-.139.543-.135-.543a8.9,8.9,0,0,0-6.472-6.472l-.543-.135.543-.136a8.9,8.9,0,0,0,6.472-6.472l.135-.542.139.542a8.9,8.9,0,0,0,6.47,6.472" transform="translate(-19.952 -985.136)" fill="#ffbe1b"/><path d="M33.1,1015.1l.43.109-.43.106a7.068,7.068,0,0,0-5.138,5.141l-.109.43-.109-.43a7.069,7.069,0,0,0-5.137-5.141l-.432-.106.432-.109a7.066,7.066,0,0,0,5.137-5.137l.109-.432.109.432A7.066,7.066,0,0,0,33.1,1015.1" transform="translate(-22.177 -980.161)" fill="#ffbe1b"/><path d="M85.211,1012.456l.516.128-.516.128a8.4,8.4,0,0,0-6.1,6.1l-.128.513-.128-.513a8.4,8.4,0,0,0-6.1-6.1l-.513-.128.513-.128a8.4,8.4,0,0,0,6.1-6.1l.128-.513.128.513a8.4,8.4,0,0,0,6.1,6.1" transform="translate(-4.083 -981.495)" fill="#5d8ef9"/><g transform="translate(25.668)"><path d="M95.773,1046.27l1.153-1.093a3.745,3.745,0,0,0,.147-5.293l-41.5-43.845a3.746,3.746,0,0,0-5.293-.143l-1.155,1.093a3.744,3.744,0,0,0-.146,5.292l41.5,43.844a3.745,3.745,0,0,0,5.295.146" transform="translate(-38.528 -985.459)" fill="#ffbe1b"/><path d="M88.117,988.154c1.265,1.337-10.571,7.882-20.438,17.061a254.827,254.827,0,0,0-18.749,19.758,1.724,1.724,0,0,1-2.558-.089l-4.8-5.072a1.753,1.753,0,0,1-.148-2.372c2.855-3.158,11.42-12.2,21.544-18.773,11.16-7.246,24.007-11.721,25.148-10.513" transform="translate(-41.03 -987.958)" fill="#6857e5"/><path d="M64.239,1004.762l-6.986,6.614a.961.961,0,0,1-1.361-.038l-6.535-6.9a.965.965,0,0,1,.037-1.361l6.988-6.613a.959.959,0,0,1,1.359.037l6.536,6.9a.962.962,0,0,1-.038,1.361" transform="translate(-38.115 -984.98)" fill="#330d84"/></g><path d="M25.578,1055.495H85.629l-5.018-9.86-4.441-4.619-4.329-1.231-7.384,5.85H54.065l-11.2-3.311-5.026-3.366-2.446-4.8-2.64-.907-2.5,7.807-3.337,6.876Z" transform="translate(-20.948 -971.585)" fill="#330d84"/></g></g></g></g><g transform="translate(1512.279 31405.5)"><path d="M1525.129,0c-78.391,42.661-158.576,100.505-230.89,179.261-265,288.693-711.739,316.63-1007.038,9.317C208.9,107.1,107.194,45.929,0,0Z" transform="translate(407.64) rotate(90)" fill="url(#b)"/></g><g transform="translate(1384.708 32086.307)"><g transform="translate(21.525 79.334)"><path d="M42.8,253.8a2.675,2.675,0,0,1,2.234-1.693c-1.028-1.219-1.7-2.53-1.365-3.74.491-1.772,1.843-2.014,3.686-1.906a6,6,0,0,1,.986.146c.033-.112.025-.221.067-.333a1.5,1.5,0,0,1,1.2-.861c2.962-.429,5.979.766,8.533,1.856,7.585,3.245,9.236,3.582,12.12,2.771-1.922-1.864-2.23-2.4-4.127-2.7a2.816,2.816,0,0,1-2.322-1.689c-.341-1.161,3.091-2.209,4.032-2.53,1.627-.553,6.661,1.152,7.4,2.188,7.4,10.339,9.394,14.512,11.67,21.023.624,1.789-6.661,11.117-8.458,7.41-.537-1.107-4.88-6.116-7.023-10.139-8,.957-19.679.462-20.158-3.208C46.214,259.364,41.471,257.4,42.8,253.8Z" transform="translate(-42.573 -243.013)" fill="#ff505c"/></g><g transform="translate(258.793 466.963)"><path d="M99.6,347.581c.117-2.713,15.977-12.136,16.775-11.354,2.451,2.392,10.8,12.32,10.406,14.737-.387,2.347-8.7,15.727-10.926,13.3C113.93,362.156,99.493,350.206,99.6,347.581Z" transform="translate(-99.601 -336.181)" fill="#ff505c"/></g><g transform="translate(250.655 477.793)"><path d="M131.679,338.784s14.017,4.776,14.757,16.056c0,0-28.749,21.252-40.744,27.464,0,0-13.73-4.66-5.321-12.544S116.393,353.7,116.393,353.7,130.3,350.97,131.679,338.784Z" transform="translate(-97.645 -338.784)" fill="#1f0d52"/></g><g transform="translate(104.694 477.613)"><path d="M65.738,339.162C67.752,337.331,85.6,342,85.6,343.114c.021,3.424-1.169,16.347-3.174,17.757-1.939,1.377-20.033-1.594-19.867-4.885C62.705,353.137,63.8,340.926,65.738,339.162Z" transform="translate(-62.563 -338.741)" fill="#ff505c"/></g><g transform="translate(75.509 495.539)"><path d="M106.507,343.564s6.457,13.326-1.048,21.776c0,0-35.323-5.509-48.175-9.682,0,0-6.328-13.043,5.184-12.6s22.687.112,22.687.112S96.871,351.149,106.507,343.564Z" transform="translate(-55.548 -343.049)" fill="#1f0d52"/></g><g transform="translate(85.178 182.633)"><path d="M74.8,568.032l12.69,1.29,16.725,1.706.042-.042a1.151,1.151,0,0,1,.166-.416s0-.042.083-.083c1.456-3.287-.137-30.667-.3-53.425-.121-28.333,12.2-68.229,14.242-96.063.208-2.33.374-4.493.541-6.491,1.123-13.984,12.149-40.9,21.136-63.989,1.29-3.37,2.58-6.661,3.749-9.782,5.821-15.515,9.732-27.83,7.281-30.617-6.411-7.281-42.525-60.369-64.284-35.864C61.987,302.34,57.872,375.648,57.872,415.173S68.494,528.5,74.8,568.032Z" transform="translate(-57.872 -267.841)" fill="#9c99ff"/></g><g transform="translate(114.593 245.513)"><path d="M65.146,521.554l16.725,1.706.042-.042a1.151,1.151,0,0,1,.166-.416s0-.042.083-.083c1.747-2.954.745-21.16,4.552-56.546,3.037-28.209,6.973-65.108,9.386-92.942.208-2.33.374-4.494.541-6.491,1.123-13.984,12.149-40.9,21.136-63.989,1.29-3.37,2.58-6.661,3.749-9.782-.212-.162-.462-.287-.67-.454a2.038,2.038,0,0,0-2-.166c-5.575-7.447-17.6-14.728-23.965-3.915-3.578,6.074.5,13.235.874,19.517.795,12.69-7.239,24.089-12.19,35.2-17.641,39.6-3.324,83.29-8.155,124.691C72.926,489.518,63.44,499.416,65.146,521.554Z" transform="translate(-64.942 -282.955)" fill="#6b5ae4"/></g><g transform="translate(154.148 182.516)"><path d="M91.515,442.306c4.456,39.271,62.745,111.4,92.83,128.81,0,0,19.089-11.625,18.34-13.659-4.826-13.11-17.562-28.6-25.363-53.829-13.925-45.025-26.6-58.992-26.727-85.079-.291-52.506,13.064-78.717-.083-117.2-.915-2.7-1.955-5.409-3.12-8.238-2.788-6.657-14.645-17.516-19.222-25.171-.666-1.082-39.479,4.826-53.588,19.929C73.088,289.448,84.608,381.312,91.515,442.306Z" transform="translate(-74.449 -267.813)" fill="#9c99ff"/></g><g transform="translate(220.093 216.049)"><path d="M91.6,374.6c-.208,2.663-.374,5.326-.458,7.984-.458,25.924,8.492,47.476,20.137,70.151,11.733,22.841,29.328,83.148,33.2,86.315,4.327-2.247,8.866-5.034,8.117-7.069-4.826-13.11-51.965-112.821-52.09-138.908-.291-52.506,13.064-78.717-.083-117.2-5.242,5.534-6.782,19.01-7.447,24.377A358.478,358.478,0,0,0,91.6,374.6Z" transform="translate(-90.299 -275.873)" fill="#6b5ae4"/></g><g transform="translate(170.303)"><path d="M140.078,277.217c-4.364.541-14.341,3.2-18.568-5.138-1.577-3.125-1.789-8.6-2.1-12.3-.445-5.255-.491-10.568-1.564-15.752-1.336-6.382-3.973-13.235-9.465-17.216-8.7-6.3-25.18-1.569-29.823,7.851a4.848,4.848,0,0,0,.728,2.838c5.3,6.212,11.458,6.4,13.476,16.5,1.04,5.192-.32,10.643-.2,15.885.2,9.586,3.84,20.224,12.057,25.9,13.172,9.095,35.377-1.673,38.664-16.442C143.7,277.4,141.559,276.477,140.078,277.217Z" transform="translate(-78.332 -223.945)" fill="#32187c"/></g><g transform="translate(51.428 69.072)"><path d="M92.318,332.988C69.394,319.5,49.76,276.209,49.76,276.209l13.522-8.321c.836.478,37.174,39.35,42.209,34.071,2.209-2.3,4.635-52.851,39.263-60.765,7.414-1.693,5.762-.291,8.221,6.906,4.988,14.583,1.406,48.865-10.11,68.786C129.305,340.344,113.99,345.736,92.318,332.988Z" transform="translate(-49.76 -240.546)" fill="#5f40d5"/></g><g transform="translate(102.261 61.935)"><path d="M192.452,378.408a78.514,78.514,0,0,1-22.592,8.071C123.1,395.841,61.978,373.207,61.978,373.207s13.439-20.3,24.714-41.647c1.082-1.96,2.08-3.911,3.079-5.908,4.951-9.819,3.869-16.268.874-22.009-4.077-7.9-11.774-14.4-12.274-26.419-.832-20.761,43.394-38.115,43.394-38.115,66.319-3.948,50.634,34.953,44.31,66.448-.582,2.871-1.082,5.654-1.415,8.363-.083.583-.125,1.207-.166,1.789-.083.791-.125,1.539-.166,2.33C163.121,349.035,192.452,378.408,192.452,378.408Z" transform="translate(-61.978 -238.831)" fill="#6b5ae4"/></g><g transform="translate(186.662 71.496)"><path d="M100.213,310.776c.025-.545.071-1.073.117-1.6.058-.845.1-1.689.2-2.538.333-2.7.832-5.488,1.415-8.363-1.789-3.366-1.564-12.365-6.141-16.609-12.066-11.4-10.543-40.536-10.543-40.536-2.746,13.979-4.955,41.472-.291,50.039,1.015,1.831,4.547,8.916,4.755,9.249,3.407,10.526.915,21.094,1.456,31.87.5,9.486,3.828,18.265,7.239,27.043,1.831,4.614,3.828,14.687,7.323,19.887a78.514,78.514,0,0,0,22.592-8.071S99.006,341.772,100.213,310.776Z" transform="translate(-82.264 -241.129)" fill="#32187c"/></g><g transform="translate(153.747 46.2)"><path d="M75.756,242.068V253.8s-3.158,5.787,0,6.42c6.931,1.385,16.938-9.432,16.938-9.432V235.049Z" transform="translate(-74.353 -235.049)" fill="#ff505c"/></g><g transform="translate(155.15 47.24)"><path d="M91.628,244.253V235.3s-8.616,8.23-16.938,8.7C74.69,244,84.713,248.867,91.628,244.253Z" transform="translate(-74.69 -235.299)" fill="#fc3c4c"/></g><g transform="translate(143.132 18.985)"><path d="M79.659,228.508s-6.241,12.652-7.8,24.443c-1.111,8.371,14.212,19.413,26.694,7.626s9.016-29.819,9.016-29.819Z" transform="translate(-71.801 -228.508)" fill="#ff505c"/></g><g transform="translate(142.37 9.428)"><path d="M74.214,235.323c.853-.533,1.96-.557,2.779-1.082,2.542-1.639,1.485-2.413,2.962-4.032a10.158,10.158,0,0,1,4.235-2.971c4.552-1.689,9.8-1.032,14.391.079a1.751,1.751,0,0,1,1.09,2.709c4.539.911,9.469,5.234,11.408,8.175,3.848,5.841,4.335,15.631.424,21.6-3.07,4.685-8.845,8.521-11.945,2.309-2.363-4.747-1.976-9.161-1.6-14.241a22.85,22.85,0,0,0,0-4.872c-2.459-3.353-5.8-5.7-9.557-5.725-.953.949-1.752,2.372-2.638,3.312a13.658,13.658,0,0,1-4.722,3.3c-2.779,1.161-6.632,1.406-8.558-1.4A5.018,5.018,0,0,1,74.214,235.323Z" transform="translate(-71.618 -226.211)" fill="#32187c"/></g><g transform="translate(166.918 31.702)"><path d="M78.1,232.241s5.018-2.342,6.016,1.689-2.667,6.411-4.606,5.675S76.93,233.93,78.1,232.241Z" transform="translate(-77.518 -231.564)" fill="#ff505c"/></g><g transform="translate(167.495 9.085)"><path d="M91.96,235.588c-1.893-5.034-6.524-7.6-11.337-9.324-2.5-.895-4.265,2.879-1.731,3.786,3.678,1.319,7.672,3.012,9.149,6.94C88.981,239.5,92.9,238.1,91.96,235.588Z" transform="translate(-77.657 -226.128)" fill="#5f40d4"/></g><g transform="translate(126.975 126.748)"><path d="M93.672,259.319c-7.073-2.7-14.853-1.664-21.8-4.91,3,5.742,4.077,12.19-.874,22.009-1,2-2,3.948-3.079,5.908,5.991-3.37,10.9-7.531,17.433-10.193,3.162-1.294,11.4-3.412,12.44-7.406C98.581,261.815,95.96,260.192,93.672,259.319Z" transform="translate(-67.918 -254.409)" fill="#32187c"/></g><g transform="translate(102.261 91.167)"><path d="M61.978,252.489c1.315-3.516,12.511-6.586,12.548-6.632,2.467,6.761,7.019,14.017,5.592,17.774-.674,1.764-11.458,1.8-11.575,1.34C68.269,263.905,61.908,252.668,61.978,252.489Z" transform="translate(-61.978 -245.857)" fill="#ff505c"/></g><g transform="translate(99.942 67.878)"><path d="M105.237,346.958c28.292-3.982,51.732-37.682,59.042-50.513,10.364-18.19,12.116-51.17-1.86-55.905-5.375-1.818-13.247,5.708-15.669,8.013-19.833,18.839-42,55.6-46.769,58.289-5.841,3.262-12.511-34.208-18.818-34.691,0,0-18.6,1.569-18.972,5.7C62.192,277.848,52.057,354.381,105.237,346.958Z" transform="translate(-61.42 -240.26)" fill="#5f40d5"/></g><g transform="translate(86.073 74.745)"><path d="M84.385,255.707c-2.459-6.128-8.854-10.052-15.011-12.02-2.4-.766-8.051-2.463-10.2-1.477-1.835.845-1.261,3.062,1.036,3.391,2.629.379,7.651,2.064,9.544,3.641-3.848-1.544-4.527,3.582-2.563,5.4-1.535.133-1.315,3.249,1.348,4.855-1.4-.37-1.735,3.977,3.441,5.945,3.453,1.56,4.735,1.885,7.144,1.435,2.775-.512,4.681-2.738,5.692-5.259a1.444,1.444,0,0,0,.591-1.257c0-.216-.075-.416-.087-.632A5.279,5.279,0,0,0,84.385,255.707Z" transform="translate(-58.087 -241.91)" fill="#ff505c"/><g transform="translate(23.011 4.61)"><path d="M66.065,243.222c-1.868-.969-3.316,1.756-1.839,3.041a11.761,11.761,0,0,1,1.673,1.7,6.135,6.135,0,0,0-2.01,4.685c.15,1.556.791,5.184,2.3,5.667.849.275,3.3,1.652,3.62.662.657-2,.208-11.209.121-11.579C69.464,245.286,67.875,244.171,66.065,243.222Z" transform="translate(-63.618 -243.018)" fill="#ff505c"/></g></g><g transform="translate(0 50.778)"><g transform="translate(2.093 1.25)"><rect width="31.175" height="52.022" transform="matrix(-0.855, 0.519, -0.519, -0.855, 53.632, 44.481)" fill="#ffe49b"/></g><g transform="translate(0 5.814)"><path d="M39.313,246.775,54.8,237.547l1.211,2-7.8,4.735-5.554,3.391a3.972,3.972,0,0,0-1.336,5.454L62.957,288.8a3.965,3.965,0,0,0,5.45,1.331l13.405-8.051,2.546,4.2-15.344,9.461a3.962,3.962,0,0,1-5.45-1.336L37.977,252.23A3.967,3.967,0,0,1,39.313,246.775Z" transform="translate(-37.399 -237.547)" fill="#1f0d52"/></g><g transform="translate(1.345)"><path d="M38.3,255.831l25.583,42.18a3.977,3.977,0,0,0,5.221,1.469,2.688,2.688,0,0,0,.237-.133l22.5-13.651a3.97,3.97,0,0,0,1.331-5.454l-25.583-42.18a3.971,3.971,0,0,0-5.454-1.336l-22.5,13.646-.229.15A3.977,3.977,0,0,0,38.3,255.831Zm48.849,26.731L68.729,293.733a3.965,3.965,0,0,1-5.45-1.331L41.644,256.734a3.967,3.967,0,0,1,1.336-5.454l5.563-3.374.724.632a1.277,1.277,0,0,0,1.569.2l4.672-2.833a1.279,1.279,0,0,0,.553-1.485l-.229-.936,5.567-3.37a3.96,3.96,0,0,1,5.446,1.331l21.639,35.672A3.963,3.963,0,0,1,87.148,282.562Z" transform="translate(-37.722 -236.15)" fill="#5f40d5"/></g><g transform="translate(38.862 51.266)"><path d="M48.559,254.124l5.654-3.428a1.2,1.2,0,0,0,.4-1.648h0a1.2,1.2,0,0,0-1.648-.4l-5.65,3.428a1.193,1.193,0,0,0-.4,1.643h0A1.2,1.2,0,0,0,48.559,254.124Z" transform="translate(-46.74 -248.471)" fill="#1f0d52"/></g><g transform="translate(13.419 7.881)"><g transform="translate(3.698)"><path d="M41.592,238.86a.539.539,0,1,1,.741.183A.532.532,0,0,1,41.592,238.86Z" transform="translate(-41.513 -238.044)" fill="#1f1a1a"/></g><g transform="translate(0 0.967)"><path d="M41.447,240.551l2.1-1.273a.543.543,0,0,0,.183-.741h0a.543.543,0,0,0-.745-.183l-2.1,1.277a.537.537,0,0,0-.183.736h0A.541.541,0,0,0,41.447,240.551Z" transform="translate(-40.624 -238.276)" fill="#1f1a1a"/></g></g></g><g transform="translate(34.096 79.243)"><path d="M57.859,243.078c5.8-.7,10.039,2.9,11.749,8.134.141.233.349.4.47.653,1.14,2.388.915,4.934-1.8,5.929a6.63,6.63,0,0,1-7.942-2.584c-1.119-1.864-.84-4.943-3.528-5.346-2.638-.4-6.012,2.059-8.051,3.432-1.427.957-3-.35-3.133-1.8C45.023,244.875,52.937,243.665,57.859,243.078Z" transform="translate(-45.594 -242.991)" fill="#ff505c"/></g></g></g></svg>