<svg xmlns="http://www.w3.org/2000/svg" width="78" height="79" viewBox="0 0 78 79"><g transform="translate(-10.9 -9.816)"><ellipse cx="39" cy="39.5" rx="39" ry="39.5" transform="translate(10.9 9.816)" fill="#008de4"/><g transform="translate(23.033 27.748)"><path d="M280.483,218.1H260.821l-1.629,9.108,17.751.025c8.743,0,11.327,3.175,11.253,8.435a38.059,38.059,0,0,1-1.712,8.743c-1.346,3.939-4.114,8.444-14.485,8.427l-17.261-.008-1.637,9.117h19.621c6.923,0,9.865-.806,12.981-2.244,6.914-3.191,11.028-10.014,12.674-18.915,2.46-13.255-.6-22.688-17.893-22.688" transform="translate(-245.105 -218.1)" fill="#fff"/><path d="M164.122,426.8c-5.153,0-5.892,3.357-6.374,5.385-.64,2.659-.848,3.731-.848,3.731h20.137c5.153,0,5.892-3.357,6.374-5.385.64-2.659.848-3.731.848-3.731Z" transform="translate(-156.9 -409.456)" fill="#fff"/></g></g></svg>