<svg xmlns="http://www.w3.org/2000/svg" width="58" height="56" viewBox="0 0 58 56"><g transform="translate(-827 -4429)"><ellipse cx="29" cy="28" rx="29" ry="28" transform="translate(827 4429)" fill="#edf4f8"/><path d="M130.765,5.656h4.242a.707.707,0,0,0,.707-.707V.707A.707.707,0,0,0,135.007,0h-4.242a7.785,7.785,0,0,0-7.776,7.776v4.949H118.04a.707.707,0,0,0-.707.707v4.242a.707.707,0,0,0,.707.707h4.949V33.227a.707.707,0,0,0,.707.707h4.242a.707.707,0,0,0,.707-.707V18.381h4.949a.707.707,0,0,0,.67-.484l1.414-4.242a.707.707,0,0,0-.67-.93h-6.363V7.776A2.121,2.121,0,0,1,130.765,5.656Z" transform="translate(729.667 4440)" fill="#1d44f9"/></g></svg>