<svg xmlns="http://www.w3.org/2000/svg" width="257" height="257" viewBox="0 0 257 257">
  <g id="good-icon" transform="translate(-322 -9970)">
    <g id="Path_1676" data-name="Path 1676" transform="translate(322 9970)" fill="#fff">
      <path d="M 128.5 255 C 119.9158325195313 255 111.3376312255859 254.1352996826172 103.0037002563477 252.429931640625 C 94.88259887695313 250.7681274414063 86.89443206787109 248.2884674072266 79.26110076904297 245.0598297119141 C 71.76589965820313 241.8896331787109 64.53659820556641 237.9656677246094 57.77403259277344 233.39697265625 C 51.07519912719727 228.871337890625 44.7758674621582 223.6739044189453 39.05099868774414 217.9490051269531 C 33.32609939575195 212.2241363525391 28.12866592407227 205.9248046875 23.6030330657959 199.2259674072266 C 19.03433418273926 192.4633941650391 15.11036682128906 185.2341003417969 11.94016647338867 177.7389068603516 C 8.711533546447754 170.1055603027344 6.231866836547852 162.1174011230469 4.570066452026367 153.9963073730469 C 2.864700078964233 145.6623687744141 2 137.0841674804688 2 128.5 C 2 119.9158325195313 2.864700078964233 111.3376312255859 4.570066452026367 103.0037002563477 C 6.231866836547852 94.88259887695313 8.711533546447754 86.89443206787109 11.94016647338867 79.26110076904297 C 15.11036682128906 71.76589965820313 19.03433418273926 64.53659820556641 23.6030330657959 57.77403259277344 C 28.12866592407227 51.07519912719727 33.32609939575195 44.7758674621582 39.05099868774414 39.05099868774414 C 44.7758674621582 33.32609939575195 51.07519912719727 28.12866592407227 57.77403259277344 23.6030330657959 C 64.53659820556641 19.03433418273926 71.76589965820313 15.11036682128906 79.26110076904297 11.94016647338867 C 86.89443206787109 8.711533546447754 94.88259887695313 6.231866836547852 103.0037002563477 4.570066452026367 C 111.3376312255859 2.864700078964233 119.9158325195313 2 128.5 2 C 137.0841674804688 2 145.6623687744141 2.864700078964233 153.9963073730469 4.570066452026367 C 162.1174011230469 6.231866836547852 170.1055603027344 8.711533546447754 177.7389068603516 11.94016647338867 C 185.2341003417969 15.11036682128906 192.4633941650391 19.03433418273926 199.2259674072266 23.6030330657959 C 205.9248046875 28.12866592407227 212.2241363525391 33.32609939575195 217.9490051269531 39.05099868774414 C 223.6739044189453 44.7758674621582 228.871337890625 51.07519912719727 233.39697265625 57.77403259277344 C 237.9656677246094 64.53659820556641 241.8896331787109 71.76589965820313 245.0598297119141 79.26110076904297 C 248.2884674072266 86.89443206787109 250.7681274414063 94.88259887695313 252.429931640625 103.0037002563477 C 254.1352996826172 111.3376312255859 255 119.9158325195313 255 128.5 C 255 137.0841674804688 254.1352996826172 145.6623687744141 252.429931640625 153.9963073730469 C 250.7681274414063 162.1174011230469 248.2884674072266 170.1055603027344 245.0598297119141 177.7389068603516 C 241.8896331787109 185.2341003417969 237.9656677246094 192.4633941650391 233.39697265625 199.2259674072266 C 228.871337890625 205.9248046875 223.6739044189453 212.2241363525391 217.9490051269531 217.9490051269531 C 212.2241363525391 223.6739044189453 205.9248046875 228.871337890625 199.2259674072266 233.39697265625 C 192.4633941650391 237.9656677246094 185.2341003417969 241.8896331787109 177.7389068603516 245.0598297119141 C 170.1055603027344 248.2884674072266 162.1174011230469 250.7681274414063 153.9963073730469 252.429931640625 C 145.6623687744141 254.1352996826172 137.0841674804688 255 128.5 255 Z" stroke="none"/>
      <path d="M 128.5 4 C 120.0502166748047 4 111.60693359375 4.851028442382813 103.4046783447266 6.529464721679688 C 95.41288757324219 8.164825439453125 87.55197143554688 10.60496520996094 80.04020690917969 13.78218078613281 C 72.66392517089844 16.90206909179688 65.54920959472656 20.76385498046875 58.89364624023438 25.26028442382813 C 52.30029296875 29.71464538574219 46.10006713867188 34.830322265625 40.4652099609375 40.4652099609375 C 34.830322265625 46.10006713867188 29.71464538574219 52.30029296875 25.26028442382813 58.89364624023438 C 20.76385498046875 65.54920959472656 16.90206909179688 72.66392517089844 13.78218078613281 80.04020690917969 C 10.60496520996094 87.55197143554688 8.164825439453125 95.41288757324219 6.529464721679688 103.4046783447266 C 4.851028442382813 111.60693359375 4 120.0502166748047 4 128.5 C 4 136.9497833251953 4.851028442382813 145.39306640625 6.529464721679688 153.5953216552734 C 8.164825439453125 161.5870971679688 10.60496520996094 169.4480285644531 13.78218078613281 176.9597778320313 C 16.90206909179688 184.3360748291016 20.76385498046875 191.4507751464844 25.26028442382813 198.1063537597656 C 29.71464538574219 204.69970703125 34.830322265625 210.8999328613281 40.4652099609375 216.5347900390625 C 46.10006713867188 222.169677734375 52.30029296875 227.2853546142578 58.89364624023438 231.7397155761719 C 65.54920959472656 236.2361450195313 72.66392517089844 240.0979309082031 80.04020690917969 243.2178192138672 C 87.55197143554688 246.3950347900391 95.41288757324219 248.8351745605469 103.4046783447266 250.4705352783203 C 111.60693359375 252.1489715576172 120.0502166748047 253 128.5 253 C 136.9497833251953 253 145.39306640625 252.1489715576172 153.5953216552734 250.4705352783203 C 161.5870971679688 248.8351745605469 169.4480285644531 246.3950347900391 176.9597778320313 243.2178192138672 C 184.3360748291016 240.0979309082031 191.4507751464844 236.2361450195313 198.1063537597656 231.7397155761719 C 204.69970703125 227.2853546142578 210.8999328613281 222.169677734375 216.5347900390625 216.5347900390625 C 222.169677734375 210.8999328613281 227.2853546142578 204.69970703125 231.7397155761719 198.1063537597656 C 236.2361450195313 191.4507751464844 240.0979309082031 184.3360748291016 243.2178192138672 176.9597778320313 C 246.3950347900391 169.4480285644531 248.8351745605469 161.5870971679688 250.4705352783203 153.5953216552734 C 252.1489715576172 145.39306640625 253 136.9497833251953 253 128.5 C 253 120.0502166748047 252.1489715576172 111.60693359375 250.4705352783203 103.4046783447266 C 248.8351745605469 95.41288757324219 246.3950347900391 87.55197143554688 243.2178192138672 80.04020690917969 C 240.0979309082031 72.66392517089844 236.2361450195313 65.54920959472656 231.7397155761719 58.89364624023438 C 227.2853546142578 52.30029296875 222.169677734375 46.10006713867188 216.5347900390625 40.4652099609375 C 210.8999328613281 34.830322265625 204.69970703125 29.71464538574219 198.1063537597656 25.26028442382813 C 191.4507751464844 20.76385498046875 184.3360748291016 16.90206909179688 176.9597778320313 13.78218078613281 C 169.4480285644531 10.60496520996094 161.5870971679688 8.164825439453125 153.5953216552734 6.529464721679688 C 145.39306640625 4.851028442382813 136.9497833251953 4 128.5 4 M 128.5 0 C 199.4686126708984 0 257 57.53138732910156 257 128.5 C 257 199.4686126708984 199.4686126708984 257 128.5 257 C 57.53138732910156 257 0 199.4686126708984 0 128.5 C 0 57.53138732910156 57.53138732910156 0 128.5 0 Z" stroke="none" fill="#0086ca"/>
    </g>
    <g id="Group_1048" data-name="Group 1048" transform="translate(-55.337 -34.311)">
      <g id="Group_754" data-name="Group 754" transform="translate(414.121 10046.312)">
        <path id="Path_1610" data-name="Path 1610" d="M316.557,2855.622a86.195,86.195,0,1,1-86.193-86.2A86.2,86.2,0,0,1,316.557,2855.622Z" transform="translate(-144.167 -2769.424)" fill="#ffbe1b"/>
        <path id="Path_1611" data-name="Path 1611" d="M281.306,2841.863a64.7,64.7,0,1,1-64.7-64.7A64.7,64.7,0,0,1,281.306,2841.863Z" transform="translate(-130.687 -2756.162)" fill="#1d44f9"/>
        <g id="Group_1049" data-name="Group 1049" transform="translate(52.217 50.999)">
          <path id="Path_1651" data-name="Path 1651" d="M873.152,451.006l16.819-17.665-16.819-17.665,16.819-17.665h0l-16.819-17.665H822.8v70.659Z" transform="translate(-822.803 -380.347)" fill="#fff"/>
          <path id="Path_1652" data-name="Path 1652" d="M836.154,380.37l-8.376,17.537,25.195,17.679Z" transform="translate(-802.624 -380.256)" fill="#fff" style="isolation: isolate"/>
          <path id="Path_1653" data-name="Path 1653" d="M852.989,387.335l-25.215,17.693,8.4,17.636Z" transform="translate(-802.641 -352.006)" fill="#fff" style="isolation: isolate"/>
          <path id="Path_1654" data-name="Path 1654" d="M822.8,387.335v35.329l25.134-17.636-8.423-17.693Z" transform="translate(-822.803 -352.006)" fill="#fff" style="isolation: isolate"/>
          <path id="Path_1655" data-name="Path 1655" d="M826.109,387.335l8.423,17.693,25.215-17.693Z" transform="translate(-809.399 -352.006)" fill="#fff" opacity="0.2" style="isolation: isolate"/>
          <path id="Path_1656" data-name="Path 1656" d="M826.109,387.335l8.423,17.693,25.215-17.693Z" transform="translate(-809.399 -352.006)" fill="#fff" style="isolation: isolate"/>
          <path id="Path_1657" data-name="Path 1657" d="M847.957,398,822.8,380.347v35.329h16.711Z" transform="translate(-822.803 -380.347)" fill="#fff" style="isolation: isolate"/>
          <path id="Path_1658" data-name="Path 1658" d="M859.747,401.517l-25.195-17.679-8.443,17.679Z" transform="translate(-809.399 -366.188)" fill="#fff" opacity="0.2" style="isolation: isolate"/>
          <path id="Path_1659" data-name="Path 1659" d="M859.747,401.517l-25.195-17.679-8.443,17.679Z" transform="translate(-809.399 -366.188)" fill="#fff" style="isolation: isolate"/>
          <path id="Path_1660" data-name="Path 1660" d="M873.152,451.006l16.819-17.665-16.819-17.665,16.819-17.665h0l-16.819-17.665H822.8v70.659Z" transform="translate(-822.803 -380.347)" fill="#fff"/>
          <path id="Path_1661" data-name="Path 1661" d="M826.108,415.585l16.819-35.215,16.819,35.215-16.819,35.329Z" transform="translate(-809.398 -380.256)" fill="#fff" opacity="0.2" style="isolation: isolate"/>
          <path id="Path_1662" data-name="Path 1662" d="M822.8,422.664V387.335h50.348Z" transform="translate(-822.803 -352.006)" fill="#fff" opacity="0.3" style="isolation: isolate"/>
          <path id="Path_1663" data-name="Path 1663" d="M822.8,380.347v35.329h50.348Z" transform="translate(-822.803 -380.347)" fill="#fff" opacity="0.5" style="isolation: isolate"/>
        </g>
      </g>
      <path id="Path_1615" data-name="Path 1615" d="M220.765,2786.264l.617.149-.617.159a10.077,10.077,0,0,0-7.334,7.332l-.156.616-.156-.616a10.077,10.077,0,0,0-7.334-7.332l-.614-.159.614-.149a10.084,10.084,0,0,0,7.334-7.338l.156-.611.156.611a10.084,10.084,0,0,0,7.334,7.338" transform="translate(378.431 7292.698)" fill="#ffbe1b"/>
      <path id="Path_1616" data-name="Path 1616" d="M169.686,2835.077l1.047.26-1.047.259a17.162,17.162,0,0,0-12.474,12.478l-.264,1.047-.264-1.047A17.162,17.162,0,0,0,144.21,2835.6l-1.045-.259,1.045-.26a17.171,17.171,0,0,0,12.474-12.475l.264-1.047.264,1.047a17.171,17.171,0,0,0,12.474,12.475" transform="translate(268.172 7369.585)" fill="#2d3561"/>
      <path id="Path_1617" data-name="Path 1617" d="M223.891,2783.817l1.117.284-1.117.283a18.249,18.249,0,0,0-13.28,13.282l-.281,1.112-.281-1.112a18.261,18.261,0,0,0-13.285-13.282l-1.114-.283,1.114-.284a18.269,18.269,0,0,0,13.285-13.277l.281-1.116.281,1.116a18.258,18.258,0,0,0,13.28,13.277" transform="translate(361.502 7276.887)" fill="#ffbe1b"/>
    </g>
  </g>
</svg>
