<svg xmlns="http://www.w3.org/2000/svg" width="2167.823" height="551.911" viewBox="0 0 2167.823 551.911"><g transform="translate(146.252 -3402.795)"><g transform="translate(-70 3496)"><path d="M2082.107,248.927c18.862-31.4,4.633-77.744-28.6-93.146-13.76-6.379-29.217-7.782-43.932-11.457s-29.875-10.587-37.205-23.866c-10.715-19.409-.954-44.772-9.712-65.139-9.7-22.546-37.638-30.253-62.114-32.049s-51.2-1.168-70.608-16.19c-18.583-14.384-25.124-39.143-38.462-58.49-21.489-31.169-62.964-47.063-99.78-38.238" fill="none" stroke="#0086ca" stroke-miterlimit="10" stroke-width="2.064"/><path d="M2069.028,290.848c6.394-16.03,3.693-33.424-3.682-47.98-7.38-14.579-19.591-26.8-34.965-35.366a97.4,97.4,0,0,0-9.065-4.45c-15-6.409-31.117-9.557-46.205-15.083s-30.092-14.193-38.21-28.356a57.245,57.245,0,0,1-6.267-17.557c-3.345-16.836-1.753-35.482-8.749-51.457-5.456-12.458-15.18-21.44-27.4-27.428-11.512-5.649-25.015-8.424-37.7-10.24-13.47-1.947-27.2-3.609-39.152-8.185a71.273,71.273,0,0,1-28.76-19.7,129.089,129.089,0,0,1-11.962-16.418c-9.728-15.2-18.975-31.2-31.145-44.02q-1.328-1.4-2.706-2.752c-13.622-13.325-31.151-23.067-49.251-30.7-18.052-7.618-36.578-13.821-49.661-15.35" fill="none" stroke="#0086ca" stroke-miterlimit="10" stroke-width="2.064" opacity="0.828"/><path d="M2055.949,332.768c4.181-17.733-2.938-35.082-13.852-48-10.918-12.937-25.926-22.417-43.034-30.207q-4.865-2.212-9.94-4.236c-16.242-6.441-33.017-11.334-48.478-18.709s-30.31-17.8-39.214-32.848a74.166,74.166,0,0,1-7.588-18.479c-4.818-17.692-5.157-37.38-12.733-54.409a64.17,64.17,0,0,0-28.231-30.6c-12.007-6.636-26.337-9.928-39.848-12.689-14.435-2.977-28.8-5.986-40.305-13.106-10.774-6.665-18.1-15.509-24.909-26.474-3.711-5.964-7.029-12.358-10.789-18.738-9.838-16.732-22.247-31.963-36.964-43.648q-1.6-1.276-3.239-2.494c-16.211-12.038-35.736-20.569-54.7-29.619-18.931-9.037-37.123-19.941-45.514-27.26" fill="none" stroke="#0086ca" stroke-miterlimit="10" stroke-width="2.064" opacity="0.656"/><path d="M2042.87,374.688c1.968-19.435-9.569-36.74-24.022-48.022s-32.26-18.03-51.1-25.048q-5.359-2-10.815-4.022c-17.482-6.473-34.916-13.111-50.75-22.336s-30.527-21.406-40.218-37.338a97.061,97.061,0,0,1-8.908-19.4c-6.292-18.549-8.563-39.279-16.718-57.361-6.373-14.132-15.855-25.722-29.067-33.769-12.5-7.622-27.659-11.431-41.994-15.137-15.4-4.007-30.407-8.339-41.458-18.027-10.237-8.973-15.593-20.475-21.06-33.248-2.978-6.942-5.833-14.126-9.616-21.059-9.946-18.266-25.517-32.726-42.782-43.275q-1.872-1.149-3.772-2.236c-18.8-10.751-40.321-18.071-60.155-28.534-19.811-10.456-37.668-26.061-41.367-39.17" fill="none" stroke="#0086ca" stroke-miterlimit="10" stroke-width="2.064" opacity="0.484"/><path d="M2029.792,416.608c-.246-21.138-16.2-38.4-34.194-48.043s-38.594-13.642-59.172-19.888q-5.856-1.777-11.69-3.809c-18.723-6.5-36.817-14.888-53.023-25.963s-30.744-25.013-41.223-41.829a128.79,128.79,0,0,1-10.227-20.324c-7.766-19.405-11.968-41.177-20.7-60.314-6.832-14.968-16.193-27.862-29.9-36.938-12.995-8.609-28.981-12.935-44.141-17.586-16.365-5.037-32.037-10.679-42.612-22.947-9.715-11.271-13.084-25.441-17.21-40.023-2.245-7.92-4.636-15.9-8.442-23.38-10.055-19.8-28.789-33.49-48.6-42.9q-2.145-1.022-4.306-1.977c-21.39-9.464-44.906-15.572-65.607-27.45s-38.213-32.181-37.22-51.08" fill="none" stroke="#0086ca" stroke-miterlimit="10" stroke-width="2.064" opacity="0.312"/><path d="M2016.713,458.529c-2.459-22.842-22.831-40.056-44.364-48.065s-44.929-9.255-67.241-14.729c-52.908-12.981-99.031-51.185-121.635-100.751C1767,258.86,1760.4,214.624,1728.048,191.61c-28.115-20-70.675-19.356-90.053-47.9-14.209-20.931-9.75-49.658-20.63-72.5-10.9-22.873-35.277-36.073-59.256-44.25s-49.492-13.074-71.06-26.366-38.758-38.3-33.073-62.989" fill="none" stroke="#0086ca" stroke-miterlimit="10" stroke-width="2.064" opacity="0.14"/></g><g transform="translate(-13 3511)"><path d="M-123.788,233.995c-18.862-31.4-4.633-77.744,28.6-93.147,13.761-6.378,29.218-7.781,43.933-11.456s29.875-10.588,37.2-23.866c10.714-19.409.954-44.773,9.712-65.14C5.354,17.84,33.3,10.134,57.773,8.338s51.2-1.168,70.608-16.191c18.583-14.384,25.124-39.142,38.462-58.489,21.489-31.169,62.964-47.064,99.78-38.238" fill="none" stroke="#0086ca" stroke-miterlimit="10" stroke-width="2.064"/><path d="M-110.709,275.915c-6.394-16.029-3.693-33.424,3.682-47.98,7.38-14.579,19.59-26.8,34.965-35.365A97.15,97.15,0,0,1-63,188.12c15-6.41,31.117-9.558,46.205-15.083S13.3,158.843,21.417,144.68a57.216,57.216,0,0,0,6.268-17.556c3.345-16.836,1.753-35.482,8.749-51.458,5.456-12.457,15.18-21.44,27.4-27.428C75.342,42.589,88.845,39.814,101.53,38c13.47-1.948,27.2-3.61,39.152-8.186a71.263,71.263,0,0,0,28.76-19.7A129.084,129.084,0,0,0,181.4-6.3c9.728-15.2,18.975-31.2,31.145-44.021q1.328-1.4,2.706-2.752c13.621-13.325,31.15-23.067,49.251-30.7C282.558-91.4,301.084-97.6,314.167-99.13" fill="none" stroke="#0086ca" stroke-miterlimit="10" stroke-width="2.064" opacity="0.828"/><path d="M-97.63,317.835c-4.181-17.732,2.938-35.082,13.852-48,10.918-12.937,25.925-22.418,43.034-30.207q4.865-2.214,9.94-4.236c16.242-6.442,33.017-11.335,48.478-18.71s30.309-17.8,39.214-32.847a74.143,74.143,0,0,0,7.587-18.479c4.819-17.693,5.158-37.381,12.734-54.41a64.165,64.165,0,0,1,28.231-30.6c12.007-6.636,26.337-9.928,39.847-12.688,14.435-2.978,28.8-5.986,40.306-13.106,10.774-6.666,18.1-15.51,24.909-26.475,3.711-5.963,7.029-12.357,10.789-18.738,9.837-16.731,22.247-31.963,36.964-43.648q1.6-1.275,3.239-2.494c16.211-12.038,35.735-20.568,54.7-29.618,18.931-9.037,37.123-19.941,45.514-27.26" fill="none" stroke="#0086ca" stroke-miterlimit="10" stroke-width="2.064" opacity="0.656"/><path d="M-84.552,359.756c-1.967-19.436,9.57-36.74,24.023-48.022s32.26-18.03,51.1-25.048q5.361-2,10.816-4.022c17.482-6.473,34.916-13.112,50.75-22.337s30.527-21.406,40.218-37.338a97.046,97.046,0,0,0,8.907-19.4c6.293-18.549,8.563-39.279,16.718-57.362,6.374-14.132,15.856-25.721,29.067-33.768,12.5-7.622,27.66-11.432,41.994-15.137,15.4-4.007,30.408-8.339,41.459-18.027,10.236-8.974,15.592-20.476,21.06-33.249,2.978-6.942,5.832-14.126,9.616-21.058C271.125,6.72,286.7-7.74,303.96-18.289q1.874-1.149,3.773-2.236c18.8-10.751,40.32-18.07,60.155-28.534,19.81-10.455,37.668-26.061,41.367-39.17" fill="none" stroke="#0086ca" stroke-miterlimit="10" stroke-width="2.064" opacity="0.484"/><path d="M-71.473,401.676c.246-21.139,16.2-38.4,34.194-48.043S1.315,339.99,21.893,333.744q5.856-1.776,11.69-3.809c18.723-6.5,36.816-14.887,53.023-25.962s30.744-25.013,41.222-41.83a128.7,128.7,0,0,0,10.228-20.323c7.766-19.406,11.968-41.178,20.7-60.314,6.833-14.969,16.194-27.862,29.9-36.938,13-8.609,28.982-12.936,44.142-17.586,16.365-5.037,32.037-10.68,42.612-22.948,9.715-11.271,13.084-25.441,17.21-40.023,2.244-7.92,4.636-15.9,8.442-23.379,10.055-19.8,28.789-33.49,48.6-42.9q2.145-1.023,4.305-1.978c21.39-9.464,44.906-15.572,65.608-27.45s38.213-32.18,37.22-51.079" fill="none" stroke="#0086ca" stroke-miterlimit="10" stroke-width="2.064" opacity="0.312"/><path d="M-58.394,443.6c2.458-22.842,22.831-40.055,44.364-48.064S30.9,386.276,53.211,380.8c52.908-12.981,99.03-51.185,121.635-100.75,16.474-36.124,23.072-80.36,55.425-103.374,28.115-20,70.675-19.356,90.053-47.9,14.208-20.931,9.75-49.658,20.63-72.5C351.85,33.4,376.231,20.2,400.21,12.027S449.7-1.047,471.27-14.338s38.758-38.3,33.072-62.99" fill="none" stroke="#0086ca" stroke-miterlimit="10" stroke-width="2.064" opacity="0.14"/></g></g></svg>