<svg xmlns="http://www.w3.org/2000/svg" xmlns:xlink="http://www.w3.org/1999/xlink" width="824.75" height="1184.036" viewBox="0 0 824.75 1184.036"><defs><linearGradient id="a" x1="0.367" y1="-0.822" x2="0.884" y2="2.879" gradientUnits="objectBoundingBox"><stop offset="0" stop-color="#aba9e9"/><stop offset="1" stop-color="#976ef3"/></linearGradient><linearGradient id="b" x1="0.276" y1="-0.058" x2="1.009" y2="1.767" gradientUnits="objectBoundingBox"><stop offset="0" stop-color="#0078be"/><stop offset="1" stop-color="#14c2f3"/></linearGradient><linearGradient id="c" x1="0.5" y1="0" x2="0.5" y2="1" xlink:href="#b"/><linearGradient id="d" x1="0.368" y1="-0.595" x2="0.825" y2="3.089" xlink:href="#a"/><linearGradient id="e" x1="0.5" y1="-0.092" x2="0.5" y2="1.56" xlink:href="#b"/><linearGradient id="f" x1="0.5" x2="0.5" y2="1" gradientUnits="objectBoundingBox"><stop offset="0" stop-color="#6ec1ff"/><stop offset="1" stop-color="#8bfff4"/></linearGradient><clipPath id="h"><path d="M967.884,0S1020,192.707,865.533,381.185,742.74,720.479,906.8,731.733s81.175,182.33-45.037,229.6-86.652,191.226-26.371,191.226h684.361V0Z" transform="translate(-765.163)" fill="none"/></clipPath><linearGradient id="i" x1="18.045" y1="-329.593" x2="18.223" y2="-328.685" gradientUnits="objectBoundingBox"><stop offset="0" stop-color="#ff5464"/><stop offset="0.098" stop-color="#ff5464" stop-opacity="0.98"/><stop offset="0.222" stop-color="#ff5464" stop-opacity="0.918"/><stop offset="0.36" stop-color="#ff5464" stop-opacity="0.816"/><stop offset="0.508" stop-color="#ff5464" stop-opacity="0.675"/><stop offset="0.664" stop-color="#ff5464" stop-opacity="0.494"/><stop offset="0.826" stop-color="#ff5464" stop-opacity="0.271"/><stop offset="0.991" stop-color="#ff5464" stop-opacity="0.016"/><stop offset="1" stop-color="#ff5464" stop-opacity="0"/></linearGradient><linearGradient id="j" x1="69.496" y1="0.112" x2="69.662" y2="0.895" xlink:href="#i"/><linearGradient id="k" x1="159.977" y1="0.059" x2="159.634" y2="1.031" gradientUnits="objectBoundingBox"><stop offset="0" stop-color="#05000e"/><stop offset="0.465" stop-color="#05000e" stop-opacity="0.294"/><stop offset="1" stop-color="#05000e" stop-opacity="0"/></linearGradient><linearGradient id="l" x1="108.731" y1="-0.083" x2="108.314" y2="0.967" xlink:href="#k"/><radialGradient id="m" cx="0.5" cy="0.5" r="0.5" gradientTransform="matrix(-1, 0, 0, 1, 434.702, 0)" gradientUnits="objectBoundingBox"><stop offset="0" stop-color="#f63c4b"/><stop offset="0.1" stop-color="#f63c4b" stop-opacity="0.976"/><stop offset="0.227" stop-color="#f63e4d" stop-opacity="0.914"/><stop offset="0.368" stop-color="#f7404f" stop-opacity="0.808"/><stop offset="0.519" stop-color="#f94453" stop-opacity="0.663"/><stop offset="0.678" stop-color="#fa4858" stop-opacity="0.475"/><stop offset="0.841" stop-color="#fc4e5d" stop-opacity="0.247"/><stop offset="1" stop-color="#ff5464" stop-opacity="0"/></radialGradient><linearGradient id="n" x1="68.213" y1="-0.147" x2="68.915" y2="0.767" xlink:href="#k"/><linearGradient id="o" x1="104.084" y1="-17.587" x2="104.37" y2="-17.121" xlink:href="#i"/></defs><g transform="translate(34.681 41.839)"><g transform="translate(0 -64.275)"><g transform="translate(0 0)"><path d="M858.762,485.713s153.1,48.378,71.047,163.775h618.369V485.713Z" transform="translate(-758.4 310.594)" opacity="0.2" fill="url(#a)"/><path d="M865.6,0s111.147,108.331,0,277.715S765.221,557.867,765.221,557.867h754.626V0Z" transform="translate(-730.069 70.359)" opacity="0.2" fill="url(#b)"/><path d="M883.359-47.922S1020,192.529,865.533,377.813,742.74,711.356,906.8,722.419s81.175,179.239-45.037,225.71-86.652,187.985-26.371,187.985h684.361V3.088L1148.862-26.357Z" transform="translate(-729.977 70.359)" fill="url(#c)"/><path d="M746.276,819.678s-20.19-71.684,12.619-119.473,109.888-59.627,109.888-59.627h661.126v179.1Z" transform="translate(-740.13 386.795)" opacity="0.2" fill="url(#d)"/><path d="M832.542,832.622H1515.43V608.66H935.441a239.781,239.781,0,0,1-76.583,44.863C732.918,697.8,772.391,832.622,832.542,832.622Z" transform="translate(-725.651 373.85)" fill="url(#e)"/><g transform="translate(336.845 982.51)"><path d="M1164.217,608.66l306.435,223.963H1274.658L1107.96,608.66Z" transform="translate(-1017.719 -608.66)" fill="url(#f)"/><path d="M1100.014,608.66,1242.8,832.623H1046.808l-3.051-223.963Z" transform="translate(-1043.757 -608.66)" fill="url(#f)"/></g><g transform="translate(109.244 1033.2)" opacity="0.2"><ellipse cx="10.172" cy="2.722" rx="10.172" ry="2.722" transform="translate(205.099 143.431)" fill="#fff"/><ellipse cx="16.578" cy="4.436" rx="16.578" ry="4.436" transform="translate(406.418 107.39)" fill="#fff"/><ellipse cx="16.578" cy="4.436" rx="16.578" ry="4.436" transform="translate(140.37 80.336)" fill="#fff"/><ellipse cx="3.894" cy="1.042" rx="3.894" ry="1.042" transform="translate(177.64 65.121)" fill="#fff"/><ellipse cx="16.578" cy="4.436" rx="16.578" ry="4.436" transform="translate(338.984 3.07)" fill="#fff"/><ellipse cx="13.815" cy="3.697" rx="13.815" ry="3.697" transform="translate(297.08 76.017)" fill="#fff"/><ellipse cx="32.234" cy="8.626" rx="32.234" ry="8.626" transform="translate(523.577 82.827)" fill="#fff"/><ellipse cx="14.025" cy="3.753" rx="14.025" ry="3.753" transform="translate(501.456)" fill="#fff"/><ellipse cx="12.467" cy="3.336" rx="12.467" ry="3.336" transform="translate(209.582 25.985)" fill="#fff"/><ellipse cx="13.753" cy="3.68" rx="13.753" ry="3.68" transform="translate(82.789 8.262)" fill="#fff"/><ellipse cx="24.962" cy="6.68" rx="24.962" ry="6.68" transform="translate(0 84.772)" fill="#fff"/></g><g transform="translate(183.906 70.359)"><g opacity="0.2"><circle cx="4.461" cy="4.461" r="4.461" transform="translate(0 188.819)" fill="#fff"/><circle cx="4.461" cy="4.461" r="4.461" transform="translate(47.205 188.819)" fill="#fff"/><circle cx="4.461" cy="4.461" r="4.461" transform="translate(94.41 188.819)" fill="#fff"/><circle cx="4.461" cy="4.461" r="4.461" transform="translate(0 141.615)" fill="#fff"/><circle cx="4.461" cy="4.461" r="4.461" transform="translate(47.205 141.615)" fill="#fff"/><circle cx="4.461" cy="4.461" r="4.461" transform="translate(94.41 141.615)" fill="#fff"/><circle cx="4.461" cy="4.461" r="4.461" transform="translate(0 94.41)" fill="#fff"/><circle cx="4.461" cy="4.461" r="4.461" transform="translate(47.205 94.41)" fill="#fff"/><circle cx="4.461" cy="4.461" r="4.461" transform="translate(94.41 94.41)" fill="#fff"/><circle cx="4.461" cy="4.461" r="4.461" transform="translate(0 47.205)" fill="#fff"/><circle cx="4.461" cy="4.461" r="4.461" transform="translate(47.205 47.205)" fill="#fff"/><circle cx="4.461" cy="4.461" r="4.461" transform="translate(94.41 47.205)" fill="#fff"/><circle cx="4.461" cy="4.461" r="4.461" fill="#fff"/><circle cx="4.461" cy="4.461" r="4.461" transform="translate(47.205)" fill="#fff"/><circle cx="4.461" cy="4.461" r="4.461" transform="translate(94.41)" fill="#fff"/><g transform="translate(141.615)"><circle cx="4.461" cy="4.461" r="4.461" transform="translate(0 188.819)" fill="#fff"/><circle cx="4.461" cy="4.461" r="4.461" transform="translate(47.205 188.819)" fill="#fff"/><circle cx="4.461" cy="4.461" r="4.461" transform="translate(0 141.615)" fill="#fff"/><circle cx="4.461" cy="4.461" r="4.461" transform="translate(47.205 141.615)" fill="#fff"/><circle cx="4.461" cy="4.461" r="4.461" transform="translate(0 94.41)" fill="#fff"/><circle cx="4.461" cy="4.461" r="4.461" transform="translate(47.205 94.41)" fill="#fff"/><circle cx="4.461" cy="4.461" r="4.461" transform="translate(0 47.205)" fill="#fff"/><circle cx="4.461" cy="4.461" r="4.461" transform="translate(47.205 47.205)" fill="#fff"/><circle cx="4.461" cy="4.461" r="4.461" fill="#fff"/><circle cx="4.461" cy="4.461" r="4.461" transform="translate(47.205)" fill="#fff"/></g></g></g><g transform="translate(35.186 53.913)"><g clip-path="url(#h)"><path d="M1400.257-150C1253.2-150,1133.979-7.543,1133.979,168.186S1253.2,486.372,1400.257,486.372s266.278-142.457,266.278-318.186S1547.318-150,1400.257-150Zm0,519.077c-92.849,0-168.118-89.942-168.118-200.891S1307.408-32.7,1400.257-32.7s168.118,89.942,168.118,200.891S1493.106,369.077,1400.257,369.077Z" transform="translate(-670.782 -75.109)" fill="#fff" opacity="0.1"/></g></g></g></g><g transform="translate(164.592 148.556)"><g transform="translate(398.649 684.54)"><path d="M220.184,169.24c2.108-2.059,21.623,2.272,21.676,3.483.164,3.705-.612,17.754-2.724,19.364-2.041,1.562-21.765-.923-21.716-4.5C217.464,184.5,218.151,171.228,220.184,169.24Z" transform="translate(-217.419 -168.693)" fill="#ff505c"/></g><g transform="translate(360.107 702.33)"><path d="M279.044,174.228s7.526,14.173-.262,23.628c0,0-47.829-3.6-61.913-7.6,0,0,1.779-17.576,14.27-17.558a182.023,182.023,0,0,1,24.76,1.966S268.914,182.828,279.044,174.228Z" transform="translate(-216.869 -172.702)" fill="#1f0d52"/></g><g transform="translate(528.889 680.822)"><path d="M187.811,172.812c1.207-2.693,20.948-5.835,21.441-4.73,1.513,3.395,5.955,16.737,4.584,19.009-1.331,2.21-20.584,7.14-21.849,3.8C190.891,188,186.653,175.4,187.811,172.812Z" transform="translate(-187.613 -167.855)" fill="#ff505c"/></g><g transform="translate(502.478 695.564)"><path d="M238.46,171.177s12.207,10.414,8.44,22.071c0,0-45.806,14.23-60.374,15.681,0,0-4.805-17,6.82-21.57a182.8,182.8,0,0,1,23.748-7.273S232.2,182.9,238.46,171.177Z" transform="translate(-185.542 -171.177)" fill="#1f0d52"/></g><g transform="translate(376.006 355.712)"><path d="M311.071,175.089c-1.469,3.3-3.079,6.771-4.7,10.33-11.248,24.387-24.955,52.781-27.09,67.828-25.856,29.432-23.1,89.566-24.991,122.8-1.482,27.236-3.195,57.01-3.931,59.451-.049.089-28.483,2.662-28.483,2.662-6.478-35.88-21.064-150.787-21.064-175.742,0-25.829,22.954-126.267,40.73-159.112,16.906-31.221,72.975,30.839,79.423,39.141C323.442,145.621,318.4,158.684,311.071,175.089Z" transform="translate(-200.813 -94.587)" fill="#331b6c"/></g><g transform="translate(406.682 424.169)"><path d="M282.768,122.06c-1.469,3.3-3.079,6.771-4.7,10.33-11.249,24.387-22.706,53.278-27.09,67.828-15.69,52.054-21.428,149.824-28.922,182.247-2.44,1.42-7.033,2.822-18.863,1.784-.386-24.054,14.022-52.772,18.148-76.059,7.956-44.466-4.641-92.672,17.061-134.356,6.088-11.688,15.53-23.491,15.513-37.273.009-6.82-3.931-14.834.342-21.166,7.6-11.28,20.127-2.609,25.665,5.813a2.221,2.221,0,0,1,2.157.311C282.293,121.714,282.555,121.864,282.768,122.06Z" transform="translate(-203.187 -110.014)" fill="#1f0d52"/></g><g transform="translate(476.827 360.772)"><path d="M265.113,420.73c-7.077,8.08-26.482,12.216-26.482,12.216-17.261-37.837-34.5-111.66-37.1-154.421-4.042-66.408-15.437-131.21-14.94-148.609.1-2.8.129-4.286.129-4.286,17.19-18.836,38.129-29.038,50.412-29.845,4.845-.333,8.311.794,9.713,3.394a183.583,183.583,0,0,1,10.641,23.762c.275.737.51,1.473.736,2.205,16.334,46.321,11.342,71.125,8.591,130.988C265.477,284.377,254.846,404.946,265.113,420.73Z" transform="translate(-186.571 -95.727)" fill="#331b6c"/></g><g transform="translate(527.04 390.089)"><path d="M214.9,398.02c-1.9,3.714-17.469,11.3-17.8,9.789-5.529-23.992-5.871-42.633-9.163-67.007-3.2-23.6-.075-48.1,2.1-71.64a386,386,0,0,1,5.8-41.2c2.724-13.312,6.518-26.349,7.81-39.873,2.591-26.415-2.729-52.653-11.919-77.337a1.752,1.752,0,0,1,.089-1.708c-1.078-.958-1.353-2.689.271-3.417a30.693,30.693,0,0,1,15.916-3.195c16.334,46.321,11.342,71.125,8.591,130.988-1.331,28.243-6.549,72.363-6.7,103.535C209.63,388.688,213.463,394.825,214.9,398.02Z" transform="translate(-186.571 -102.334)" fill="#1f0d52"/></g><g transform="translate(303.419 234.372)"><path d="M235.247,77.917a2.8,2.8,0,0,1,2.259-1.983c-1.043-1.424-1.717-2.964-1.38-4.38.493-2.077,1.859-2.356,3.727-2.232a5.891,5.891,0,0,1,.994.169c.031-.129.022-.257.067-.39a1.553,1.553,0,0,1,1.211-1.007c2.991-.5,6.039.9,8.617,2.179,7.663,3.789,18.987-4.038,19.843-2.92,8.031,10.485,6.407,22.155,4.353,26.9-.856,1.983-12.5,5.245-12.584,4.7-.209-1.424-1.571-7.264-1.087-9.447-8.08,1.123-16.973.426-17.456-3.865C238.695,84.431,233.907,82.128,235.247,77.917Z" transform="translate(-235.019 -67.241)" fill="#ff505c"/></g><g transform="translate(326.712 201.015)"><path d="M329.936,124.212a63.807,63.807,0,0,1-.617,14.022c-2.8,19.391-15.3,51.912-67.451,55.51-44.661,3.079-50.949-69.767-50.949-69.767,3.883-4.619,20.9-7.579,20.9-7.579,5.99,15.393,21.392,36.647,27.915,33.093,6.478-3.55,45.624-78.127,69.767-89.309C344.224,53.393,329.936,124.212,329.936,124.212Z" transform="translate(-210.92 -59.724)" fill="#5f40d5"/></g><g transform="translate(409.627 193.601)"><path d="M186.9,236.162c.666,2.09,54.605,19.52,71.333,22.089,17.971,2.8,39.82-1.1,55.311-1.806,11.887-.577,20.451-2.086,21.61-4.482,2.347-5.063-2.445-49.52-1.464-82.267.178-5.285.262-10.61.306-15.885.311-34.078-1.908-66.781-9.58-72.682-1.691-1.331-3.643-2.707-5.817-4.171a109.559,109.559,0,0,0-11.271-6.745,105.9,105.9,0,0,0-23.2-8.968,96.414,96.414,0,0,0-46.33-.71s0,.049-.044.049a93.987,93.987,0,0,0-12.775,3.812c-1.025.359-2.041.754-3.111,1.158-14.554,5.857-12.469,37.539-10.117,64.114,1.065,12.34,2.174,23.566,1.735,30.577a63.985,63.985,0,0,1-.887,7.011C209.308,186.819,189.34,221.918,186.9,236.162Z" transform="translate(-186.899 -58.053)" fill="#e4edf4"/></g><g transform="translate(461.068 193.64)"><path d="M231.878,58.427l2.117.275-6.94,16.471L213.81,65.261l-12.256,7.486L209.98,58.88s5.538-1.486,7.907-.453,1.127,5.192,1.127,5.192Z" transform="translate(-201.554 -58.062)" fill="#e8dbeb"/></g><g transform="translate(471.827 172.272)"><path d="M203.528,60.736V74.971s-3.368,6.168,0,6.842c7.4,1.478,18.069-6.833,18.069-6.833V53.246Z" transform="translate(-202.031 -53.246)" fill="#ff505c"/></g><g transform="translate(474.722 179.416)"><path d="M218.7,62.08V54.856s-7.8,6.443-16.671,6.944C202.031,61.8,210.657,67.928,218.7,62.08Z" transform="translate(-202.031 -54.856)" fill="#fc3c4c"/></g><g transform="translate(462.989 144.676)"><path d="M202.848,51.695s-3.3,14.683-1.957,27.294c.954,8.954,19.608,16.56,29.588,1.211s1.864-33.173,1.864-33.173Z" transform="translate(-200.571 -47.027)" fill="#ff505c"/></g><g transform="translate(453.769 133.155)"><path d="M212.295,44.469c2.538.169,4.278,1.194,6.589,2.086,3.9,1.5,7.188,1.491,11.226,1.562,4.979.08,9.727.448,13.529,4.025,6,5.644,7.867,19.1,4.2,27.192a4.639,4.639,0,0,1-2.4,4,5.441,5.441,0,0,1-7.495-2.157c-2.321-3.962-.963-9.527-1.109-13.862-.036-.981-.209-2.223-.213-3.43-11.448,2-26.823,4.007-34.447-4.167C194.346,51.324,202.852,43.83,212.295,44.469Z" transform="translate(-199.103 -44.43)" fill="#32187c"/></g><g transform="translate(482.492 191.29)"><path d="M212.572,60.523l-2.117-2.991a32.487,32.487,0,0,1-5.64,6.35,8.181,8.181,0,0,0-3.261,5.3Z" transform="translate(-201.554 -57.532)" fill="#e8dbeb"/></g><g transform="translate(466.946 200.837)"><path d="M211.185,59.684l5.754,4.307L211.951,69.6l-5.13-.325-2.015-5.694Z" transform="translate(-204.806 -59.684)" fill="#32187c"/></g><g transform="translate(498.488 196.792)"><path d="M194.2,58.772s8.116,187.466-8.364,208.987c0,0,49.236-.719,64.766-8.111,0,0-10.658-178.418-21.929-185.163S204.26,59.89,194.2,58.772Z" transform="translate(-185.836 -58.772)" fill="#5f40d5"/></g><g transform="translate(458.549 210.428)"><path d="M215.844,61.845s-13.676,32.033-9.682,67.251l9.682,10.263,7.344-8.6s-7.206-45.664-2.214-68.591Z" transform="translate(-205.431 -61.845)" fill="#32187c"/></g><g transform="translate(461.071 165.658)"><path d="M236.627,56.075c.213-.231.457-.426.666-.666,1.935-2.21-1.7-5.072-3.647-2.853a18.752,18.752,0,0,1-8.369,5.813c-4.6,1.522-6.767.222-9.908-2.609a2.518,2.518,0,0,0-3.35.275c-2.778,3.146-10.751-1.234-11.737,3.621-.785,3.847,3.656,10.636,8.52,12.092,12.948,3.869,22.2-4.393,29.308-12.083C239.436,58.227,238.242,56.355,236.627,56.075Z" transform="translate(-200.19 -51.755)" fill="#32187c"/></g><g transform="translate(418.657 205.081)"><path d="M233.035,60.64s-15.486,12.42-14.781,38.391c1.478,54.627-5.933,79.48-5.933,79.48l20.713-11.04,6.359-46.409Z" transform="translate(-212.322 -60.64)" fill="#32187c"/></g><g transform="translate(405.731 197.072)"><path d="M260.6,58.906s-9.278,63.338-8.537,85.892-22.559,104.276-22.559,104.276l-19.595-7.765s16.267-57.316,21.814-73.4-.018-91.758,11.825-101.063S260.6,58.906,260.6,58.906Z" transform="translate(-209.912 -58.835)" fill="#5f40d5"/></g><g transform="translate(520.689 220.3)"><path d="M200.531,72.049c9.323,11.976,10.831,43.059,18.6,56.109.976,1.642,1.864,3.284,2.662,4.97-.044,5.276-.129,10.6-.306,15.885-.981,32.747,9.19,87.361,6.838,92.424-1.154,2.4-15.81,5.28-27.7,5.857-2.13-3.816-.528-19.7-.173-23.872.67-8.071,1.424-16.147,2.13-24.227,1.513-17.39,3.239-34.207-.35-51.468-3.683-17.749-11.785-31.607-15.459-49.329-4.437-21.445,7.166-33.541,7.384-33.941C192.863,62.283,198.845,69.875,200.531,72.049Z" transform="translate(-185.756 -64.07)" fill="#32187c"/></g><g transform="translate(434.794 324.569)"><g transform="translate(0 4.739)"><path d="M240.435,106.814c-1.615,2.361-3.528.932-5.968,1.3-2.973.453-10.592,6.5-13.849,5.094-4.34-1.877,5.24-4.562,3.035-6.505-.79-.692-14.022,5.369-10.485-.821.781-1.362,7.8-4.8,4.983-5.347-3.15.95-9.935,4.047-10.9.905-.461-1.491,3.332-3.718,5.32-4.331,9.837-3.026,4.65-3.341-1.8-.919-3.341,1.251-5.085-.59-2.294-3.332,5.782-5.689,16.746-4.792,23.549-2.188C234.9,91.772,244.038,101.552,240.435,106.814Z" transform="translate(-207.083 -88.636)" fill="#ff505c"/></g><g transform="translate(15.711)"><path d="M214.869,95.048c-1.047-.595-1.935-1.628-2.955-2.316a8.884,8.884,0,0,1-3.084-3.084c-.985-2.081,1.14-2.356,2.671-1.877,2.8.874,7.148,6.217,8.906,8.413C220.637,96.472,215.947,95.656,214.869,95.048Z" transform="translate(-208.578 -87.568)" fill="#ff505c"/></g></g><g transform="translate(462.178 214.109)"><path d="M323.959,220.261c-20.54,32.92-152.145-22.91-152.145-22.91l2.507-13.139c1.376-.315,102.133,12.952,102.31,2.307.089-4.664-36.581-63.444-41.817-85.715-2.658-11.231-.395-20.944,2.356-28.447,3.816-10.423,15.841-12.029,25.6-6.745C282.545,76.325,306.742,102.132,320.9,130,336.463,160.633,341.708,191.863,323.959,220.261Z" transform="translate(-171.813 -62.675)" fill="#5f40d5"/></g><path d="M238.816,70.792v274.68c0,4.9,3.687,8.875,8.24,8.875H563.744c4.553,0,8.24-3.971,8.24-8.875V70.792c0-12.708-9.567-23.016-21.37-23.016H260.186C248.383,47.776,238.816,58.084,238.816,70.792Z" transform="translate(-238.816 -47.776)" fill="#d3e7ec"/><path d="M238.816,70.792v24.6H571.984v-24.6c0-12.713-9.567-23.016-21.37-23.016H260.186C248.378,47.776,238.816,58.079,238.816,70.792Z" transform="translate(-238.816 -47.776)" fill="#11b2d8"/><g transform="translate(247.098 18.135)"><g transform="translate(52.475)"><path d="M243.832,57.538A5.669,5.669,0,1,1,249.5,63.2,5.67,5.67,0,0,1,243.832,57.538Z" transform="translate(-243.832 -51.863)" fill="#fff"/></g><g transform="translate(26.238)"><path d="M249.745,57.538a5.669,5.669,0,1,1,5.671,5.666A5.671,5.671,0,0,1,249.745,57.538Z" transform="translate(-249.745 -51.863)" fill="#fff"/></g><path d="M255.657,57.538a5.671,5.671,0,1,1,5.671,5.666A5.671,5.671,0,0,1,255.657,57.538Z" transform="translate(-255.657 -51.863)" fill="#fff"/></g><g transform="translate(11.595 7.747)"><path d="M304.014,65.656a16.136,16.136,0,1,1,16.138,16.138A16.135,16.135,0,0,1,304.014,65.656Z" transform="translate(-304.014 -49.522)" fill="#fff"/></g><g transform="translate(19.425 15.728)"><path d="M307.029,67.785a1.214,1.214,0,0,0,.861-.359L321.92,53.4a1.221,1.221,0,0,0-1.726-1.726L306.168,65.708a1.213,1.213,0,0,0,0,1.717A1.2,1.2,0,0,0,307.029,67.785Z" transform="translate(-305.812 -51.321)" fill="#5180d6"/><path d="M321.059,67.785a1.218,1.218,0,0,0,.861-2.077L307.89,51.673a1.219,1.219,0,1,0-1.722,1.726l14.026,14.026A1.216,1.216,0,0,0,321.059,67.785Z" transform="translate(-305.812 -51.321)" fill="#5180d6"/></g><g transform="translate(16.025 71.626)"><rect width="294.888" height="80.075" rx="2" fill="#fff"/><g transform="translate(261.405 17.931)"><rect width="9.342" height="50.539" fill="#11b2d8"/></g><g transform="translate(245.775 34.675)"><rect width="9.347" height="33.795" fill="#5f40d5"/></g><g transform="translate(230.149 46.652)"><rect width="9.343" height="21.818" fill="#11b2d8"/></g><g transform="translate(214.519 24.214)"><rect width="9.347" height="44.256" fill="#5f40d5"/></g><g transform="translate(57.767 14.883)"><g transform="translate(12.757)"><path d="M328.678,70.3h0a3.032,3.032,0,0,0-3.031-3.031H287.456a3.033,3.033,0,0,0-3.035,3.031h0a3.033,3.033,0,0,0,3.035,3.031h38.192A3.032,3.032,0,0,0,328.678,70.3Z" transform="translate(-284.421 -67.272)" fill="#d3e7ec"/></g><g transform="translate(25.341 9.145)"><path d="M316.094,72.368h0a3.033,3.033,0,0,0-3.031-3.035H287.452a3.033,3.033,0,0,0-3.031,3.035h0a3.028,3.028,0,0,0,3.031,3.026h25.612A3.028,3.028,0,0,0,316.094,72.368Z" transform="translate(-284.421 -69.333)" fill="#d3e7ec"/></g><g transform="translate(0 9.145)"><path d="M313.016,72.368h0a3.033,3.033,0,0,0-3.031-3.035H295.72a3.033,3.033,0,0,0-3.031,3.035h0a3.028,3.028,0,0,0,3.031,3.026h14.266A3.028,3.028,0,0,0,313.016,72.368Z" transform="translate(-292.689 -69.333)" fill="#d3e7ec"/></g></g><g transform="translate(34.196 47.776)"><g transform="translate(43.636)"><path d="M321.37,77.711h0a3.028,3.028,0,0,0-3.031-3.026H287.451a3.025,3.025,0,0,0-3.03,3.026h0a3.03,3.03,0,0,0,3.03,3.035h30.888A3.033,3.033,0,0,0,321.37,77.711Z" transform="translate(-284.421 -74.685)" fill="#d3e7ec"/></g><g transform="translate(48.912 9.141)"><path d="M316.094,79.78h0a3.036,3.036,0,0,0-3.031-3.035H287.452a3.036,3.036,0,0,0-3.031,3.035h0a3.028,3.028,0,0,0,3.031,3.026h25.612A3.028,3.028,0,0,0,316.094,79.78Z" transform="translate(-284.421 -76.745)" fill="#d3e7ec"/></g><g transform="translate(0)"><path d="M327.117,77.711h0a3.031,3.031,0,0,0-3.031-3.026H298.475a3.028,3.028,0,0,0-3.031,3.026h0a3.033,3.033,0,0,0,3.031,3.035h25.612A3.036,3.036,0,0,0,327.117,77.711Z" transform="translate(-295.444 -74.685)" fill="#d3e7ec"/></g></g><g transform="translate(198.893 34.675)"><rect width="9.347" height="33.795" fill="#11b2d8"/></g><g transform="translate(183.267 22.485)"><rect width="9.343" height="45.984" fill="#5f40d5"/></g><g transform="translate(167.637 51.57)"><rect width="9.347" height="16.9" fill="#11b2d8"/></g><g transform="translate(122.582 10.308)"><path d="M277.174,78.417a12.178,12.178,0,1,1,12.18,12.176A12.18,12.18,0,0,1,277.174,78.417Z" transform="translate(-277.174 -66.241)" fill="#11b2d8"/></g><g transform="translate(122.582 43.197)"><path d="M277.174,85.833a12.178,12.178,0,1,1,12.18,12.18A12.183,12.183,0,0,1,277.174,85.833Z" transform="translate(-277.174 -73.653)" fill="#5f40d5"/></g></g><g transform="translate(16.025 163.973)"><rect width="294.619" height="123.693" rx="2" fill="#fff"/><g transform="translate(21.426 25.215)"><path d="M503.392,165.131H247.876s-.257-76.485,15.4-74.688,14.874,49.8,26.136,54.29,23.145-38.391,38.214-37.193c9.358.745,24.232,30.657,35.041,30.9,13.321.3,22.519-20.7,34.717-18.845,6.811,1.038,19.835,24.023,61.452,19.617,12.58-1.327,25.266,2.889,33.9,11.648A59.757,59.757,0,0,1,503.392,165.131Z" transform="translate(-247.876 -90.412)" fill="#ffdedb"/></g><g transform="translate(128.923 10.851)"><path d="M252.2,96.622H392.547a4.727,4.727,0,0,0,4.726-4.726h0a4.723,4.723,0,0,0-4.726-4.721H252.2a4.723,4.723,0,0,0-4.726,4.721h0A4.727,4.727,0,0,0,252.2,96.622Z" transform="translate(-247.475 -87.175)" fill="#11b2d8"/></g><g transform="translate(173.38 25.215)"><path d="M252.2,99.863H348.09a4.726,4.726,0,0,0,4.726-4.721h0a4.728,4.728,0,0,0-4.726-4.73H252.2a4.724,4.724,0,0,0-4.721,4.73h0A4.722,4.722,0,0,0,252.2,99.863Z" transform="translate(-247.475 -90.412)" fill="#5f40d5"/></g></g><g transform="translate(322.894 229.929)"><path d="M236.115,69.121c2.48-2.041,5.44-3.63,8.773-2.512,4.406,1.473,8.981,4.069,11.692,15.442.621,2.627-6.678-.759-8.671-1.766-1.948-.976-2.915-4.393-4.411-5.893a3.586,3.586,0,0,0-2.449-1.4c-1.509-.053-2.662.506-4.211.151C234.815,72.684,234.708,70.279,236.115,69.121Z" transform="translate(-235.172 -66.24)" fill="#ff505c"/></g></g><g transform="translate(-34.681 431.17)"><g transform="translate(352.992 75.553)"><path d="M302.755,401.766c-2.821,3.477-16.64,9.739-20.424,9.167-25.393-3.7-39.119-25.587-49.114-35.924a53.6,53.6,0,0,1-4.621-5.417,58.11,58.11,0,0,1-10.91-26.757,63.016,63.016,0,0,1-.621-13.907s-14.166-70.238.444-63.5c14.7,6.821,33.006,37.055,46.385,60.16.4.665.748,1.32,1.144,1.941.836,1.452,1.628,2.856,2.42,4.181,2.064,3.6,4,7,5.765,9.9,3.78,6.425,13.409,21.151,13.409,21.151S314.462,387.463,302.755,401.766Z" transform="translate(-210.9 -264.968)" fill="#ff505c"/></g><g transform="translate(375.266 138.109)"><path d="M265.607,340.574c-8.582-2.685-21.393-4.229-22.8-15.451-.836-6.685,7.041-14.21,9.726-19.931a42.85,42.85,0,0,0,3.477-11.926c-1.76-2.9-3.7-6.3-5.765-9.9-.792-1.325-1.584-2.729-2.42-4.181-6.337,4-12.1,13.6-15.095,17.819-5.853,8.19-16.635,17.471-16.772,28.39a11.992,11.992,0,0,0,.044,1.276c9.994,10.338,25.97,19.183,51.362,22.88,3.785.576,7.085-1.32,9.9-4.8C274.5,342.246,268.6,341.5,265.607,340.574Z" transform="translate(-215.961 -279.182)" fill="#fc3c4c"/></g><g transform="translate(352.997 75.554)"><path d="M217.067,328.931a62.969,62.969,0,0,0,.62,13.9c1.369,9.519,5.092,22.339,14.778,33.24,9.884,11.117,43.67-43.08,33.975-56.7-14.769-20.741-34.481-47.252-48.929-53.95C202.9,258.693,217.067,328.931,217.067,328.931Z" transform="translate(-210.901 -264.968)" fill="#2c3033"/></g><g transform="translate(354.318 77.051)"><path d="M218.488,265.308s9.7,4.779,11.9,19.632,5.136,55.693,1.355,70.977c-3.01,12.146-3.78,14.426-3.877,14.43l-.026-.009L219.188,357.5s-9.264-14.267-7.838-17.656S218.488,265.308,218.488,265.308Z" transform="translate(-211.201 -265.308)" fill="#51595f"/></g><g transform="translate(350.85 232.908)"><path d="M306.972,397.837H288.506v-67.32a11.346,11.346,0,0,0-11.332-11.328H210.413V300.723h66.761a29.829,29.829,0,0,1,29.8,29.794Z" transform="translate(-210.413 -300.723)" fill="#b9dae1"/></g><g transform="translate(146.269 169.372)"><g transform="translate(259.239 148.864)"><path d="M256.354,492.252h0a8.948,8.948,0,0,0,8.084-9.51l-12.692-162.63-28.914,2.715,23.8,161.586A8.944,8.944,0,0,0,256.354,492.252Z" transform="translate(-222.833 -320.112)" fill="#b9dae1"/></g><g transform="translate(190.335 128.47)"><path d="M221.408,511.88h0a8.938,8.938,0,0,0,9.114-8.524l5.69-187.288-29.037-.59,5.47,187.512A8.945,8.945,0,0,0,221.408,511.88Z" transform="translate(-207.176 -315.478)" fill="#b9dae1"/></g><g transform="translate(8.436 106.219)"><path d="M173.948,525.206h0a8.945,8.945,0,0,1-8.084-9.51l18.77-205.274,28.909,2.72L183.661,517.368A8.942,8.942,0,0,1,173.948,525.206Z" transform="translate(-165.843 -310.422)" fill="#b9dae1"/></g><g transform="translate(89.929 110.22)"><path d="M199.161,525.983h0a8.941,8.941,0,0,1-9.114-8.524l-5.686-205.534,29.033-.594-5.475,205.762A8.935,8.935,0,0,1,199.161,525.983Z" transform="translate(-184.361 -311.331)" fill="#b9dae1"/></g><g transform="translate(13.535 0.002)"><path d="M474.64,446.934a14.684,14.684,0,0,1-14.694,14.695H275.954s-3.362-1.043-8.789-2.751c-22.088-7.028-78.511-25.406-82.274-31.308C180.213,420.225,167,286.333,167,286.333H350.989a14.692,14.692,0,0,1,15.817,13.489l4.9,95.05a40.81,40.81,0,0,0,40.47,37.372h47.767A14.683,14.683,0,0,1,474.64,446.934Z" transform="translate(-167.002 -286.286)" fill="#d3e7ec"/></g><g transform="translate(113.699 145.959)"><path d="M397.236,334.142a14.684,14.684,0,0,1-14.694,14.695H189.762V319.452h192.78A14.683,14.683,0,0,1,397.236,334.142Z" transform="translate(-189.762 -319.452)" fill="#e5f0f3"/></g><path d="M286.4,461.63H238.638a70.342,70.342,0,0,1-69.758-64.446l-4.907-95.041a14.692,14.692,0,0,1,29.292-2.328l4.907,95.045a40.8,40.8,0,0,0,40.466,37.385H286.4a14.692,14.692,0,1,1,0,29.385Z" transform="translate(-163.926 -286.286)" fill="#b9dae1"/></g><g transform="translate(453.213 447.248)"><path d="M253.724,349.629c-2.42-1.558-20.235,6.394-20.05,7.561.572,3.578,4.049,16.86,6.381,17.982,2.266,1.1,20.636-5.131,19.892-8.538C259.3,363.69,256.052,351.134,253.724,349.629Z" transform="translate(-233.673 -349.427)" fill="#ff505c"/></g><g transform="translate(455.916 458.413)"><path d="M235.343,363.023s-4.432,15.025,4.859,22.546c0,0,45.034-12.78,57.722-19.351,0,0-5.131-16.459-17.071-14a178.433,178.433,0,0,0-23.294,6.707S246.711,369.272,235.343,363.023Z" transform="translate(-234.287 -351.964)" fill="#1f0d52"/></g><g transform="translate(304.135 216.773)"><path d="M203.97,363.317c11.706,23.148,53.563,32.566,84.629,40.752,18.616,4.929,33.359,9.418,35.339,16.2,7.746,26.493,13.2,96.159,20.552,120.539,2.641,3.037,8.142,3.085,13.863,2.025,9.242-1.672,19.144-6.289,19.144-6.289-1.677-54.311,2.817-104.965-5.9-142.632-14.606-63.289-110.413-92.2-110.413-92.2C244.37,283.31,183.458,322.746,203.97,363.317Z" transform="translate(-199.798 -297.057)" fill="#331b6c"/></g><g transform="translate(349.619 462.851)"><path d="M235.78,357.806c-1.175-2.623-20.442-5.69-20.922-4.612-1.474,3.309-5.814,16.336-4.471,18.554,1.294,2.152,20.081,6.967,21.322,3.705C232.783,372.633,236.911,360.341,235.78,357.806Z" transform="translate(-210.133 -352.973)" fill="#ff505c"/></g><g transform="translate(331.812 235.238)"><path d="M213.252,336.77c9.9,10.3,21.7,18.664,31.867,28.694A296.208,296.208,0,0,1,267.211,389.8c18.616,4.929,33.359,9.418,35.339,16.2,7.746,26.493,13.2,96.159,20.552,120.539,2.641,3.037,8.142,3.085,13.863,2.025.88-4.181.924-8.714,1.14-12.763a156.924,156.924,0,0,0-3.252-37.672c-4.929-24.689-12.5-50.825-22.928-73.758-5.853-12.851-11.53-23.985-14.391-37.979-1.848-9.11-4.093-18.088-9.77-25.7-14.347-19.056-39.784-24.381-58.663-37.407a3.316,3.316,0,0,0-.572-.264,1.818,1.818,0,0,0-2.377-1.672C207.751,306.492,198.821,321.679,213.252,336.77Z" transform="translate(-206.087 -301.252)" fill="#1f0d52"/></g><g transform="translate(340.649 477.239)"><path d="M217.037,356.242s-11.913,10.17-8.238,21.547c0,0,44.708,13.88,58.923,15.3,0,0,4.687-16.591-6.654-21.054a178.34,178.34,0,0,0-23.175-7.1S223.15,367.684,217.037,356.242Z" transform="translate(-208.095 -356.242)" fill="#1f0d52"/></g><g transform="translate(245.65 219.115)"><path d="M190.678,363.844c18.7,37.055,91.758,26.489,97.039,44.532,7.746,26.493,12.763,122.388,2.773,137.791a21.066,21.066,0,0,0,3.076,2.773c8.274,6.073,22.757,9.154,22.757,9.154,16.851-36.919,33.667-108.965,36.219-150.73,3.961-64.776-104.653-105.132-104.653-105.132-13.735-15.011-56.859,8.533-61.044,39.735A36.819,36.819,0,0,0,190.678,363.844Z" transform="translate(-186.509 -297.589)" fill="#331b6c"/></g><g transform="translate(245.65 261.284)"><path d="M190.678,331.257c18.7,37.055,91.758,26.489,97.039,44.532,7.746,26.493,12.763,122.388,2.773,137.791a21.066,21.066,0,0,0,3.076,2.773,114.725,114.725,0,0,0,17.075-61.348c-.04-12.1-1.184-24.161-2.02-36.219-.88-12.234-.836-25-3.257-37.055-4.049-20.464-19.139-25.965-37.843-29.618-26.366-5.149-58.4-12.454-68.35-40.8,1.5-.964,1.364-3.829-.924-4.049a20.983,20.983,0,0,0-11.4,2.113A36.819,36.819,0,0,0,190.678,331.257Z" transform="translate(-186.509 -307.171)" fill="#1f0d52"/></g><g transform="translate(241.845 67.408)"><path d="M327.316,423.133c-.66,2.064-29.415,18.541-45.461,24.57-27.822,10.452-74.881,18.58-86.935,16.3-4.933-.924-8.1-2.249-8.85-3.829-2.333-5.021,5.7-53.853,4.731-86.332-.176-6.289-.3-12.67-.3-18.919-.176-32.654,2.108-63.245,9.506-68.922,1.672-1.316,3.6-2.68,5.761-4.132a108.641,108.641,0,0,1,11.178-6.694,104.939,104.939,0,0,1,23.021-8.885,95.475,95.475,0,0,1,45.941-.7.04.04,0,0,0,.044.04,93.981,93.981,0,0,1,12.674,3.789c1.012.352,2.024.748,3.081,1.144,14.435,5.809,12.371,37.231,10.034,63.592-1.056,12.23-2.156,23.364-1.712,30.322a60.262,60.262,0,0,0,.876,6.953C314.158,390.83,324.9,409.006,327.316,423.133Z" transform="translate(-185.644 -263.117)" fill="#ff505c"/></g><g transform="translate(241.845 67.408)"><path d="M333.473,423.868c-.665,2.064-38.508,19.8-59.962,28.606-27.5,11.279-66.537,13.81-78.591,11.526-4.933-.924-8.1-2.249-8.85-3.829-2.333-5.021,5.7-53.853,4.731-86.332-.176-6.289-.3-12.67-.3-18.919-.176-32.654,2.108-63.245,9.506-68.922,1.672-1.316,3.6-2.68,5.761-4.132a108.641,108.641,0,0,1,11.178-6.694,104.939,104.939,0,0,1,23.021-8.885,95.475,95.475,0,0,1,45.941-.7.04.04,0,0,0,.044.04,93.981,93.981,0,0,1,12.674,3.789c1.012.352,2.024.748,3.081,1.144,14.435,5.809,12.371,37.231,10.034,63.592C310.681,346.377,336.646,422.411,333.473,423.868Z" transform="translate(-185.644 -263.117)" fill="#2c3033"/></g><g transform="translate(311.511 46.285)"><path d="M219.394,265.746v14.118s3.34,6.117,0,6.786c-7.332,1.47-17.92-6.777-17.92-6.777V258.317Z" transform="translate(-201.474 -258.317)" fill="#ff505c"/></g><g transform="translate(311.511 47.385)"><path d="M201.474,268.095v-9.528s7.939,10.1,16.741,10.6C218.215,269.164,208.788,272.98,201.474,268.095Z" transform="translate(-201.474 -258.567)" fill="#fc3c4c"/></g><g transform="translate(303.843 17.499)"><path d="M229.72,251.776s6.6,13.383,8.252,25.855c1.175,8.854-15.033,20.534-28.236,8.067s-9.537-31.541-9.537-31.541Z" transform="translate(-199.732 -251.776)" fill="#ff505c"/></g><g transform="translate(241.845 84.897)"><path d="M245.826,354.171c14.738-21.3,9.484-60.974-14.664-80.628-6.813-5.541-12.855-6.777-13.907-6.386.876.352,8.718,11.46,8.058,12.784C217,297.1,210.165,308.53,199.779,324.549A116.515,116.515,0,0,0,190.5,341.4c0,6.249.128,12.63.3,18.919.973,32.478-7.063,81.31-4.731,86.332.753,1.58,3.917,2.9,8.85,3.829,4.352-13.379,10.14-47.908,11.9-61.379C209.285,370.318,235.748,368.65,245.826,354.171Z" transform="translate(-185.644 -267.091)" fill="#51595f"/></g><g transform="translate(299.506)"><path d="M231.153,248.329c-2.438.634-3.948,1.954-6.038,3.248-3.521,2.178-6.729,2.781-10.65,3.591-4.841.995-9.4,2.227-12.446,6.412-4.815,6.606-4.154,20.059.911,27.272A4.59,4.59,0,0,0,206,292.307a5.393,5.393,0,0,0,6.9-3.481c1.536-4.286-.814-9.466-1.465-13.718-.145-.955-.207-2.2-.427-3.38,11.526-.163,26.88-1.03,32.808-10.4C249.909,251.713,240.236,245.97,231.153,248.329Z" transform="translate(-198.746 -247.8)" fill="#32187c"/></g><g transform="translate(329.684 38.912)"><path d="M215.054,259.486q-1.637-1.063-3.261-2.126a2.244,2.244,0,0,0-1.087-.352,1.926,1.926,0,0,0-2.984.911,40.26,40.26,0,0,1-1.866,4.234c-1.289,2.517,2.711,4.352,4,1.831.343-.678.6-1.386.911-2.073.484.317.968.629,1.452.946C214.566,264.384,217.426,261.035,215.054,259.486Z" transform="translate(-205.604 -256.642)" fill="#32187c"/></g><g transform="translate(171.457 237.854)"><path d="M266.214,398.961h-18.47v-67.32a11.34,11.34,0,0,0-11.328-11.328H169.65V301.847h66.765a29.829,29.829,0,0,1,29.8,29.794Z" transform="translate(-169.65 -301.847)" fill="#b9dae1"/></g><g transform="translate(194.201 85.899)"><path d="M185.248,417.408c18.7,26.238,101.717,1.575,101.717,1.575L285.8,404.465s-48.832,3.974-58.545-12.243c-1.76-2.944,3.4-36.642,12.463-45.355,4.053-3.873,8.322-7.7,12.014-10.919,8.978-7.829,15.447-18.3,17.471-30.053a53.79,53.79,0,0,0-2.376-28.209c-3.78-10.347-16.855-13.647-25.389-6.694-16.42,13.379-42.878,47.7-43.538,48.537C174.448,350.2,166.483,391.077,185.248,417.408Z" transform="translate(-174.818 -267.318)" fill="#ff505c"/></g><g transform="translate(207.747 84.056)"><path d="M229.311,355.508c3.732-3.569,27.246-26.612,30.846-49.518,1.637-10.421-1.589-35.577-14.558-38.578-20.781-4.815-48.55,25.349-67.7,48.119C186.689,335.361,205.969,349.228,229.311,355.508Z" transform="translate(-177.896 -266.9)" fill="#2c3033"/></g><g transform="translate(314.292 178.518)"><g transform="translate(0.292 54.134)"><path d="M257.312,300.665,202.172,304l52.776,14.8Z" transform="translate(-202.172 -300.665)" fill="#eef9fb"/></g><g transform="translate(0 57.47)"><path d="M202.4,301.423l-.292,5.23,53.085,16.224-.017-6.657Z" transform="translate(-202.106 -301.423)" fill="#99cbd3"/></g><g transform="translate(53.068 65.369)"><path d="M328.286,303.218l-114.121,6.9.017,6.657,114.078-7.625Z" transform="translate(-214.165 -303.218)" fill="#b9dae1"/></g><g transform="translate(53.07)"><path d="M328.284,353.734l-114.119,6.9,8.793-61.986a4.518,4.518,0,0,1,4.207-3.926L332.1,288.372a4.518,4.518,0,0,1,4.748,5.092Z" transform="translate(-214.165 -288.364)" fill="#d3e7ec"/></g></g><g transform="translate(300.91 208.016)"><path d="M246.013,306.725a29.111,29.111,0,0,0-11.108-1.2,12.9,12.9,0,0,0-1.378-.22,13.559,13.559,0,0,0,.753-1.246c1.241-2.742,1.435-7.349-1.941-8.718-3.569-1.443-5.844,3.111-7.675,5.312a26.441,26.441,0,0,1-7.569,6.663c-3.028,1.259-6.337,1.483-9.554,2.042-2.3.4-6.1.528-7.517,2.8-1.127,1.809-1.144,5.585-.647,7.64.625,2.57,2.883,3.785,5.127,4.81a24.713,24.713,0,0,0,6.051,1.774c3.7,1.083,7.565,1.756,11.337.682a14.367,14.367,0,0,0,2.324-.929,19.365,19.365,0,0,0,10.562,1.267,2.357,2.357,0,0,0,1.809-3.27,4.424,4.424,0,0,0,1.958-1.1,3.327,3.327,0,0,0,.9-2.28,7.8,7.8,0,0,0,1.862-1.373,6.384,6.384,0,0,0,1.554-6.716,30.958,30.958,0,0,1,9.092,7.239,2.528,2.528,0,0,0,4.247-.814C258.731,313.555,250.321,308.173,246.013,306.725Z" transform="translate(-199.065 -295.067)" fill="#ff505c"/></g><g transform="translate(441.515 239.775)"><path d="M231.078,311.84c.2-1.074,1.219-2.949,2.817-2.645a1.7,1.7,0,0,1,.524.2,5.622,5.622,0,0,1,.062-2.249c.383-1.593,1.932-3.921,4.115-2.592a6.241,6.241,0,0,1,2.051,2.152,4.432,4.432,0,0,1,2.962-3.318c2.588-.973,3.811.669,4.506,2.583.427-1.919,1.558-4.7,4.084-3.314,1.413.775,2.359,2.627,3.089,3.846a23.869,23.869,0,0,1,2.385,5.541.765.765,0,0,1,.022.224.748.748,0,0,1,.163.814c-.788,2.016-3.243,4.132-5.66,2.315a11.3,11.3,0,0,1-1.716-1.633c.176,1.809-.251,3.4-2.236,3.794-2.095.423-3.864-1.052-5.153-2.834a1.075,1.075,0,0,1-.048.128c-.563.81-1.289,1.9-2.579,1.884a3.825,3.825,0,0,1-2.557-1.465.7.7,0,0,1-.334.524C234.3,317.592,230.475,315.048,231.078,311.84Z" transform="translate(-231.015 -302.283)" fill="#ff505c"/></g><g transform="translate(0 203.328)"><g transform="translate(50.836 37.346)"><path d="M192.9,340.284c-4.383-8.485-12.52-5.629-19.241-.673.669-3.745,1.355-7.49,2.095-11.244a4.9,4.9,0,0,0-.009-1.98c4.405-3.261,8.687-7.2,8.841-13.093.141-5.259-3.155-9.906-8.467-10.685-5.387-.8-10.184,2.473-12.41,7.253-2.817,6.06-1.523,12.969,1.061,18.831a3.989,3.989,0,0,0,1.377,1.694c-.475,2.517-.893,5.039-1.338,7.556a7.473,7.473,0,0,0-3.125-1.457c-4.735-2.72-10.5-4-12.842,1.364-3.032,6.949,2.935,16.164,9.664,18.211a7,7,0,0,0,3.441.172c-.365,2.839-.673,5.673-.964,8.511-2.9-2.759-6.989-3.97-11.081-1.923a10.347,10.347,0,0,0-3.56,15.509c2.469,3.323,8.956,7.275,13.405,5.629q-.165,6.7.1,13.387c-3.838-.726-7.658-1.461-11.42.145-3.618,1.545-6.386,4.867-6.174,8.973a9.172,9.172,0,0,0,6.364,8.137,9.672,9.672,0,0,0,5.73-.013,11.551,11.551,0,0,0,2.6-1.219c.3-.242.612-.48.92-.713a6.537,6.537,0,0,0,.8-.48,3.688,3.688,0,0,0,2.425-.114,152.253,152.253,0,0,0,5.365,25.644c1.694,5.589,10.492,3.2,8.78-2.42a146.172,146.172,0,0,1-5.079-23.729,5.413,5.413,0,0,0,1.65-.427c7.261-3.151,22.9-14.188,15.152-23.527-5.792-6.984-12.881-.123-18.057,6.711-.048-1.9-.167-3.8-.163-5.7a23.043,23.043,0,0,0,16.741-20.741c.3-3.789-4-5.211-6.848-3.934a41.635,41.635,0,0,0-9.017,5.739c.343-3.917.744-7.829,1.25-11.75C180.457,356.36,198.817,351.735,192.9,340.284Z" transform="translate(-142.241 -302.488)" fill="#00b6d9"/></g><g transform="translate(98.008)"><path d="M204.3,333.655a5.325,5.325,0,0,0-.788-2.368,77.019,77.019,0,0,1,3.538-8.921,7.938,7.938,0,0,0,.246-.915c5.836-2.764,11.372-6.575,12.336-13.475.986-7.085-3.635-12.243-10.4-13.524-5.875-1.1-13.577-.5-16.459,5.461-3.032,6.285.374,14.747,4.1,20.508-1.109,2.561-2.174,5.136-3.045,7.763a9.209,9.209,0,0,0-1.892-2.227c-3.736-3.177-9-2.31-12.063,1.325-6.566,7.776-1.254,20.13,7.173,23.892.084.04.163.022.242.057-1.752,5.083-3.437,10.17-4.907,15.3a15.927,15.927,0,0,0-2.029-3.063c-3.182-3.7-8.837-6.8-13.533-4.018-10.861,6.43,4.26,22.356,10.646,27.1-1.087,5.131-2.1,10.276-2.9,15.456a22.672,22.672,0,0,0-5.312-7.737c-4.3-3.877-11.614-4.269-15.025,1.03-3.239,5.035.436,12.648,2.979,17.221a38.958,38.958,0,0,0,14.545,14.54c-.282,4.185-.493,8.375-.594,12.582a7.775,7.775,0,0,0-9.739.959c-4.291,4.075-3.547,11.271-1.461,16.226a20.759,20.759,0,0,0,9.889,10.509,12.7,12.7,0,0,0,.933,1.276,4.582,4.582,0,0,0,1.245.638c.119,1.492.145,2.975.282,4.471.607,6.509,10.861,6.575,10.25,0-.246-2.619-.321-5.219-.5-7.829,6.971-.207,13.493-6.839,14.263-13.656,1.017-9.017-6.791-15.377-14.945-12.344.123-5.325.436-10.619.849-15.9a4.714,4.714,0,0,0,.621.079c7.442-.321,15.385.559,20.71-5.739,3.908-4.617,4.141-11.728-.867-15.685-5.73-4.52-12.362-2.966-18.07.814q1.314-8.575,3.173-17.066c8.749.352,22.673-9.1,15.412-18.6-2.8-3.675-6.135-4.4-9.488-3.543,1.135-3.706,2.394-7.385,3.67-11.064,4.9.519,9.8.493,14.21-2.2,4.058-2.469,7.591-7.64,5.316-12.428C214.779,334.06,208.785,333.272,204.3,333.655Z" transform="translate(-152.96 -294.002)" fill="#00b6d9"/></g><g transform="translate(0 74.709)"><path d="M203.982,367.346c-4.348-2.575-9.347.594-12.556,3.5a25.179,25.179,0,0,0-3.882,4.6c-.757-3.169-1.558-6.32-2.544-9.365,4.969-1.95,11-3.7,14.708-7.428,3.067-3.063,3.587-7.992.484-11.235A9.919,9.919,0,0,0,188.4,345.87c-3.653,1.914-5.7,5.448-8.216,8.524a60.414,60.414,0,0,0-6.012-9.81c5.219-.238,8.282-5.4,10.386-10.184,2.236-5.07,5.338-13.651,1.712-18.792-7.27-10.3-16.046,10.417-19.615,21.12a53.431,53.431,0,0,0-8.067-5.73,3.419,3.419,0,0,0-.849-.277,2.767,2.767,0,0,0,.216-.805c-.15-3.067-2.491-5.325-4.335-7.618a52.2,52.2,0,0,0-8.318-8.828c-4.506-3.481-10.91-3.763-13.66,2.037-2.473,5.215.22,11.306,4.172,14.937,5.351,4.92,12.7,5.765,19.377,7.772a4.086,4.086,0,0,0,.744.07c1.14.691,2.165,1.457,3.208,2.214-6.747-.119-13.871,1.505-11.46,9.431a8.656,8.656,0,0,0,8.718,5.981c5-.066,8.595-3.675,13.233-4.788a55.477,55.477,0,0,1,4.744,8.185c-4.229-1.958-9-2.3-12.3,2.06-4.361,5.778,1.135,11.125,6.5,13.132,3.362,1.259,8.379,1.527,11.086-.744,1,3.727,1.787,7.552,2.5,11.4-4.564-2.231-9.726-2.526-12.666,3.081-4.392,8.384,7.754,12.578,13.674,13.832a4.365,4.365,0,0,0,1.672.013c.524,3.6,1.047,7.173,1.633,10.628.805,4.788,8.089,2.755,7.283-2.007-1.184-7.006-2.2-14.268-3.424-21.494.119-.022.242.022.365-.009a24.312,24.312,0,0,0,13.242-8.872C206.746,376.579,209.135,370.4,203.982,367.346Z" transform="translate(-130.69 -310.977)" fill="#0088c5"/></g><g transform="translate(72.707 98.724)"><path d="M175.627,377.46c.1-3.657.273-7.31.075-10.958,3.494-.621,6.843-1.774,9.277-4.6a10.886,10.886,0,0,0,1.593-11.926,9.472,9.472,0,0,0-10.9-4.423A10.4,10.4,0,0,0,173,346.8c-.612-2.9-1.091-5.809-1.906-8.705-.048-.18-.167-.277-.229-.444,2.011-4.471,2.742-9.568.616-14.149-2.134-4.612-6.874-8.168-12.173-6.751-4.973,1.333-7.6,6.535-7.235,11.4.378,4.982,3.9,8.392,7.6,11.293a5.386,5.386,0,0,0,.924,1.518v.031c.7,2.456,1.1,4.92,1.641,7.38-5.77-2.24-13.018-2.984-13.841,4.471-.889,8.014,9.994,13.374,16.5,14.422h.044a121.716,121.716,0,0,1-.079,13.761c-5.937-3.226-13.643-4.154-16.895,3.441a9.709,9.709,0,0,0,1.866,10.333c2.944,3.38,7.442,3.763,10.553,6.7a5.009,5.009,0,0,0,4.823,1.285,6.308,6.308,0,0,0,1.888.775,5.108,5.108,0,0,0,4.282.678c9-2.293,19.672-11.583,15.016-21.9A8.677,8.677,0,0,0,175.627,377.46Z" transform="translate(-147.211 -316.434)" fill="#0088c5"/></g><g transform="translate(29.499 174.698)"><path d="M223.289,451.078l-56.155-.242a18.9,18.9,0,0,1-18.7-16.829L137.393,333.7l116.328.511L242.138,434.355A18.89,18.89,0,0,1,223.289,451.078Z" transform="translate(-137.393 -333.698)" fill="#f88"/></g><g transform="translate(26.198 169.703)"><path d="M254.542,343.064l-112.913-.489a5.014,5.014,0,0,1-4.986-5.03h0a5.007,5.007,0,0,1,5.03-4.982l112.913.493a5.01,5.01,0,0,1,4.986,5.026h0A5.007,5.007,0,0,1,254.542,343.064Z" transform="translate(-136.643 -332.563)" fill="#e55773"/></g></g></g><g transform="translate(368.481 449.116)"><path d="M211.086,544.331c33.9.66,68.866-23.991,93.481-50.893l-11.876-12.411s-60.072,24.2-83.549,15.868c-7.079-2.516-23.581-12.619-31.32-23.565-14.766-20.909-32.292-54.079-56.3-47.546C50.309,445.143,162.61,543.385,211.086,544.331Z" transform="translate(70.664 -309.538)" fill="#ff6b79"/><path d="M166.983,482.658c21.257,4.974,35.867-6.767,36.013-8.275-30.816,6-46.408-14.625-56.226-24.334a199.213,199.213,0,0,1-13.893-19.558l-26.98,4.272S139.052,476.119,166.983,482.658Z" transform="translate(101.716 -286.258)" fill="url(#i)"/><path d="M90.6,522.839s61.777,21.112,102.893,0C193.493,522.839,142.642,478.614,90.6,522.839Z" transform="translate(37.504 18.867)" fill="#070040"/><path d="M188.644,456.026a1310.68,1310.68,0,0,1-15.675,175.647c-11.019,68.211-36.138,161.874-36.138,161.874L125.787,796.8s-11.809-112.338-15.738-170.185C106.3,571.508,90.6,466.249,90.6,466.249Z" transform="translate(37.504 -179.077)" fill="#ff6b79"/><path d="M152.99,454.759s-1.674,45.748-9.158,123.335c-7.8,80.789-25.228,175.418-25.228,175.418s-6.33-99.042-10.244-141.874C105.111,575.973,90.6,471.567,90.6,471.567Z" transform="translate(37.504 -184.395)" fill="url(#j)"/><g transform="translate(154.698 610.489)"><path d="M116.206,520.2s43.84-.005,52.411,22.375H118.6l-5.951-4.969-3.68,4.969H97.09s-5.842-15.727,6.575-21.7C103.665,520.87,108.706,525.179,116.206,520.2Z" transform="translate(-95.717 -520.2)" fill="#070040"/></g><path d="M179.56,447.915s35.816,56.569,17.77,306.913c0,0-73.336-12.131-102.894,0,0,0,26.133-142.617-4.75-278.93Z" transform="translate(33.667 -213.122)" fill="#0f00a7"/><path d="M91.947,681.032s7.11-97.748,0-156.65V472.719l9.782-20.67S146.7,584.739,91.947,681.032Z" transform="translate(43.158 -195.77)" fill="url(#k)"/><path d="M69.919,523.117s51.351,20.421,92.467-.691C162.386,522.426,121.966,478.9,69.919,523.117Z" transform="translate(-49.303 19.281)" fill="#070040"/><path d="M92.475,456.026S81.03,522.792,74.705,616.341C71.135,669.235,86.68,793.978,86.68,793.978L97.075,796.8l93.45-330.546Z" transform="translate(-31.449 -179.077)" fill="#ff6b79"/><g transform="translate(2.524 610.489)"><path d="M118.854,520.2s-43.835-.005-52.416,22.375h47.51l6.606-4.969,5.2,4.969H137.97s5.842-15.727-6.58-21.7C131.39,520.87,126.354,525.179,118.854,520.2Z" transform="translate(-66.438 -520.2)" fill="#070040"/></g><path d="M121.867,453.042S91.915,484.091,69.919,734c0,0,51.72-27.978,92.592-.691,0,0,3.051-130.694,51.382-261.171Z" transform="translate(-49.303 -191.602)" fill="#0f00a7"/><path d="M74.795,504.827c10.036,17.323,39.287,22.188,49.079,17.323,5.509-2.739,7.656-6.886,9.714-12.188,1.923-4.948-1.409-14.335.052-24.626.322-2.276,4.09-5.291,6.206-6.2a18.337,18.337,0,0,0,3.664-2.438,18.526,18.526,0,0,0,6.06-13.835c-.125-19.329,11.835-19,14.007-20.717,6.185-4.906,10.805-15.322,8.285-23.139a2.458,2.458,0,0,0-.244-.972c-.161-.317-.338-.65-.515-.977-.14-.286,7.422-1.513,7.256-1.778-4.246-7.391-21.278-15.826-30.291-11.237-5.66,2.885-4.262,7.952-6.034,12.962-6.346,17.926-15.156,8.763-26.143,15.119-4.215,2.432-6.123,6.242-6.845,11.034-.457,3,.847,6.169.4,9.043-1.907,12.334-11.793,10.13-20.421,15.317C78.657,473.762,67.815,492.785,74.795,504.827Z" transform="translate(-38.13 -402.74)" fill="#070040"/><path d="M107.118,421.347s-18.981,38.757,7.406,75.706l13.1,32.848s44.713-32.837,49.521-56.527C177.148,473.373,153.682,441.721,107.118,421.347Z" transform="translate(79.109 -324.639)" fill="#0f00a7"/><path d="M137.151,517.863,122.292,529.9,101.783,421.347s14.007,6.59,24.724,12.968C136.715,456.845,146.1,479.2,137.151,517.863Z" transform="translate(84.444 -324.639)" fill="url(#l)"/><path d="M245.315,608.571S200.128,649.148,77.3,627.22c0,0-9.652-222.341,103.933-206.754C264.238,431.848,206.058,530.662,245.315,608.571Z" transform="translate(-19.166 -331.623)" fill="#0f00a7"/><path d="M123.408,442.709a34.7,34.7,0,0,1-4.724,19.132c-7.682-10.5-17.011-16.819-25.171-21.8a45.49,45.49,0,0,0,.395-25.114l24.158,5.889S114.728,431.2,123.408,442.709Z" transform="translate(49.727 -351.604)" fill="#ff5464"/><path d="M110.87,405.707c-12.505,1.684-20.727,17.25-18.373,34.776s14.4,30.363,26.912,28.679,20.727-17.25,18.373-34.781S123.375,404.023,110.87,405.707Z" transform="translate(43.777 -390.911)" fill="#ff6b79"/><path d="M103.1,410.826s7.4,11.039,9.568,17.313a1.656,1.656,0,0,1-1.247,2.172c-2.994.6-9.049,1.715-11.569,1.341C96.435,431.132,103.1,410.826,103.1,410.826Z" transform="translate(72.24 -368.8)" fill="#ff6b79"/><path d="M94.294,421.428a9.932,9.932,0,1,0,9.932-9.927A9.933,9.933,0,0,0,94.294,421.428Z" transform="translate(53.009 -365.967)" fill="url(#m)"/><path d="M130.011,417.881s3.233,5.785,3.732,8.466a20.782,20.782,0,0,1-16.117-4.4c-11.647-9.111-24.9-1.138-24.9-1.138l2.427-10.265,33.206-4.615Z" transform="translate(46.444 -389.364)" fill="#ff3d53"/><path d="M77.138,575.14s-.2-96.6,19.724-143.049l45.493,7.8s-2.011,18.087-37.38,61.335c-14.127,17.271,2.287,73.918,2.287,73.918Z" transform="translate(-19.002 -279.542)" fill="url(#n)"/><path d="M66.392,528.636c5.655,30.628,100.461,55.929,131.261,61.865l2.542-18.331s-20.769-14.5-35.254-22.578l-.031-.021c-16.278-9.116-34.662-21.2-39.09-31.294-2.885-6.538,4.569-12.937,15.223-19.948,20.358-13.378,52.473-29,47.016-52.047C171.9,377.926,58.019,483.257,66.392,528.636Z" transform="translate(-65.953 -314.201)" fill="#ff6b79"/><path d="M75.137,487.972c2.739,22.952,50.472,32.26,51.891,32.442-16.278-9.116-34.662-21.2-39.09-31.294-2.885-6.538,4.569-12.937,15.223-19.948a189.8,189.8,0,0,1,19.043-12.6L119,430.78S71.9,460.857,75.137,487.972Z" transform="translate(-28.071 -285.045)" fill="url(#o)"/><path d="M111.038,437.593s5.52.6,8.025-5.541,10.7-5.01,16.382-1.367,11.445,6.117,18.435,2.843c5.348-2.5,12.308-12.365,3.415-20.254-8.082-7.167-13.654,1.024-17.068-3.529s-12.292-9.215-17.3-4.2-16.72.852-22.006,2.516c-9.787,3.066-11.284,22.489-11.777,26.055-2.266,16.367,5.405,30.187,14.215,30.712C117.441,465.659,106.885,444.5,111.038,437.593Z" transform="translate(29.716 -400.063)" fill="#070040"/><path d="M101.289,413.613s-4.267-5.463-8.191-1.7.509,17.1,6.991,13.347S101.289,413.613,101.289,413.613Z" transform="translate(41.779 -369.795)" fill="#ff6b79"/><path d="M154.133,421.167s31.107,59.376-20.883,89.91c0,0-48.991-25.062-59.755-48.949C73.495,462.128,105.537,426.037,154.133,421.167Z" transform="translate(-34.293 -325.395)" fill="#0f00a7"/><path d="M103.079,420.269s-.582,12.786-4.724,19.132a72.139,72.139,0,0,1,6.689,6.559c1.668-16.985,0-25.114,0-25.114Z" transform="translate(70.055 -329.164)" fill="#d4deff"/><path d="M94.482,419.755s20.868,12.427,25.171,21.8l-3.378,9L93.281,419.937Z" transform="translate(48.757 -331.322)" fill="#d4deff"/><g transform="translate(99.217 219.829)"><path d="M85.042,538.74s68.237-59.063,80.279-93.7c0,0,33.6,9.7,53.648,69.094,0,0-28.108,64.859-89.765,87.821C129.2,601.951,109.065,548.688,85.042,538.74Z" transform="translate(-85.042 -445.036)" fill="#d4deff"/><path d="M128.2,505.021c-1.507-1.461-2.978-1.8-4.558-2.994l-2.027-.52q-1.567-.078-1.029-2.037c-1.46-1.85-1.663-3.425-3.113-4.756.244-4.106-1.72-8.685-3.124-12.323-2.479-6.434-4.257-9.61-10.145-11.507-.379-7.484-4.371-11.57-12.723-8.732-3.165,1.076-1.138,5.863,2.027,4.792q2.791,2.768,5.6,5.53a2.694,2.694,0,0,0,2.214,2.936c5.078,1.2,7.921,7.666,9.069,11.975.416,1.565,2.006,6.954,1.731,8.2a2.631,2.631,0,0,0,1.57,2.755c2.313,1.107,1.538,5.379,3.451,6.939,2.536,2.063,5.135,1.19,7.895,3.862C127.437,511.465,130.582,507.323,128.2,505.021Z" transform="translate(-64.684 -376.992)" fill="#9eb0ff"/><path d="M115.336,477.5a15.584,15.584,0,0,0-2.983-2.588c-1.143-.717-2.687-.884-3.753-1.58-1.336-.873-1.694-2.266-2.578-3.555-.811-1.17-2.141-2.022-2.9-3.155-1.5-2.255-.962-5.208-3.134-7.255a3.682,3.682,0,0,0-5.057-.411c-2.2,1.544-.567,4.444,1.58,4.548,1.081,1.107.961,4.059,1.606,5.239.92,1.663,2.739,2.635,3.794,4.22.982,1.476,1.507,3.2,3,4.3,2.058,1.5,4.433,1.435,6.315,3.425C113.506,483.084,117.638,479.929,115.336,477.5Z" transform="translate(-47.92 -390.055)" fill="#9eb0ff"/><path d="M116.3,477.765a21.308,21.308,0,0,0-4.6-4.714,3.453,3.453,0,0,1-1.642-2.417,13.442,13.442,0,0,0-.8-2.614,8.113,8.113,0,0,0-8.487-4.267c-3.311.468-2.646,5.629.676,5.161,3.784-.535,3.2,3.581,4.584,5.847,1.523,2.474,4.449,3.727,6.164,6.185C114.108,483.691,118.214,480.5,116.3,477.765Z" transform="translate(-28.147 -366.821)" fill="#9eb0ff"/><path d="M135.754,499.722a26.039,26.039,0,0,0-3.129-4.922,13.282,13.282,0,0,1-4.636-5.686,13.736,13.736,0,0,0-.546-2.978c-2.121-3.877-4.1-6.923-7.567-9.595-4.1-3.15-8.29-8.69-10.831-13.581-2.214-4.241-2.885-7.526-7.988-8.939-3.181-.883-5.229,3.9-2.011,4.792,2.744.764,9.3,12.666,11.232,15.551,2.006,3,2.614,4.262,5.364,6.491,3.285,2.677,5.6,4.647,7.193,8.935.686,1.85.411,3.238,1.59,4.911,2.063,2.9,4.8,3.186,6.538,7.053C132.334,504.8,137.126,502.789,135.754,499.722Z" transform="translate(-33.069 -407.775)" fill="#9eb0ff"/><path d="M113.874,460.749c-1.247-1.325-1.575-2.812-2.438-4.381a11.946,11.946,0,0,0-7.729-5.764c-3.222-.878-3.9,4.288-.717,5.151,2.422.655,3.7,2.469,4.558,4.683a10.1,10.1,0,0,0,1.372,2.583c.572.738,2.027,1.622,2.2,2.563.624,3.269,5.78,2.62,5.156-.681A7.652,7.652,0,0,0,113.874,460.749Z" transform="translate(-18.397 -422.085)" fill="#9eb0ff"/><path d="M122.708,476.086a22.474,22.474,0,0,0-3.436-6.367c-1.336-1.689-3.451-2.77-4.724-4.376-.936-1.185-.858-3.144-1.767-4.563-1.1-1.7-2.848-2.848-3.976-4.537-1.85-2.781-5.951.405-4.106,3.186.93,1.393,2.557,2.38,3.394,3.768.936,1.549.546,3.28,1.663,4.792.977,1.331,2.63,2.131,3.825,3.243a16.748,16.748,0,0,1,4.335,6.876C119.054,481.253,123.846,479.225,122.708,476.086Z" transform="translate(-4.492 -402.501)" fill="#9eb0ff"/></g><path d="M147.561,436.074c2.225-2.344,10.582-5.644,15.265-6.912,2.173-.587,4.5,3.758,1.985,5.774-3.5,2.817-7.8,4.963-11.034,8.1a15.169,15.169,0,0,0-3.633,6.289,6.057,6.057,0,0,1,3.02-1.268c3.233-.364,4.179,1.648,4.225,4.039a5.434,5.434,0,0,1,6.065.426,4.617,4.617,0,0,1,1.658,4.979,6.567,6.567,0,0,1,3.747,6.98,15.555,15.555,0,0,1-7.755,11.107c-.026.01-.047.042-.073.047-.094.063-.213.083-.3.146a13.908,13.908,0,0,1-1.663.738c-7.962,3.285-19.293-.223-22.8-8.176C131.371,457.217,140.357,443.683,147.561,436.074Z" transform="translate(223.335 -292.065)" fill="#ff6b79"/><g transform="translate(120.783 247.894)"><g transform="translate(0 7.286)"><path d="M89.339,465.67c.894,4,4.475,3.6,7.729,5.754,3.976,2.625,14.355,19.023,19.61,18.02,7.224-1.367-7.64-11.356-3.337-12.183,1.544-.286,13.986,16.746,15.826,10.509.806-2.713-8.643-15.473-4.3-14.163,3.924,3.358,11.918,15.488,15.182,12.333,1.533-1.481-2.957-10.208-5.166-12.6-7.64-8.3-3.643-9.366,4.106-1.913,4.023,3.872,7.6,2.843,5.265-2.443-4.844-10.977-22.016-15.509-33.274-17.089C106.221,451.222,87.338,456.736,89.339,465.67Z" transform="translate(-89.192 -451.837)" fill="#ff6b79"/></g><path d="M92.231,460.806c-2.266,1.965.348,5.2,2.734,4.262,3.274-.083,6.3-.613,9.049-2.568,1.559-1.107,2.822-2.6,4.465-3.607,2.516-1.528,5.187-1.559,8.02-1.762,1.736-.125,3.659-1.98,2.422-3.82C113.41,445.12,97.064,456.6,92.231,460.806Z" transform="translate(-80.082 -450.435)" fill="#ff6b79"/></g></g></g></svg>