<svg xmlns="http://www.w3.org/2000/svg" xmlns:xlink="http://www.w3.org/1999/xlink" width="58" height="56" viewBox="0 0 58 56"><defs><linearGradient id="a" x1="0.369" y1="0.426" x2="-1.54" y2="-0.648" gradientUnits="objectBoundingBox"><stop offset="0" stop-color="#a1b5d8" stop-opacity="0"/><stop offset="0.309" stop-color="#90a2bd" stop-opacity="0.31"/><stop offset="0.755" stop-color="#7c8b9c" stop-opacity="0.757"/><stop offset="1" stop-color="#748290"/></linearGradient></defs><g transform="translate(-827 -4429)"><ellipse cx="29" cy="28" rx="29" ry="28" transform="translate(827 4429)" fill="#edf4f8"/><g transform="translate(839 4440)"><path d="M33.348,6.069A6.178,6.178,0,0,0,27.861.581a102.478,102.478,0,0,0-21.792,0A6.178,6.178,0,0,0,.581,6.069a102.478,102.478,0,0,0,0,21.792,6.178,6.178,0,0,0,5.488,5.488,102.481,102.481,0,0,0,21.792,0,6.178,6.178,0,0,0,5.488-5.488A102.479,102.479,0,0,0,33.348,6.069Zm0,0" fill="#1d44f9"/><path d="M58.426,34.219a5.482,5.482,0,0,0-4.87-4.87,90.972,90.972,0,0,0-19.337,0,5.483,5.483,0,0,0-4.87,4.87,90.97,90.97,0,0,0,0,19.337,5.482,5.482,0,0,0,4.87,4.87,90.935,90.935,0,0,0,19.337,0,5.482,5.482,0,0,0,4.87-4.87A90.935,90.935,0,0,0,58.426,34.219Zm0,0" transform="translate(-26.923 -26.923)" fill="url(#a)"/><path d="M151.236,146.226a6.178,6.178,0,0,1-5.488,5.488,102.626,102.626,0,0,1-11.614.578l-7.88-7.88a5.525,5.525,0,0,0,3.486,1.339c3.42.128,6.851.125,10.271,0a5.5,5.5,0,0,0,5.428-5.494c.1-3.284.1-6.576,0-9.86a5.725,5.725,0,0,0-1.375-3.632l7.751,7.751A102.752,102.752,0,0,1,151.236,146.226Zm0,0" transform="translate(-117.887 -118.365)" fill="#1d44f9"/><path d="M183.43,175.753a5.434,5.434,0,1,0-7.678,7.678L188.326,196q1-.087,2-.193a6.178,6.178,0,0,0,5.488-5.488q.106-1,.193-2Zm0,0" transform="translate(-162.462 -162.462)" fill="#1d44f9"/><path d="M95.09,103.718c.071-.5.125-1,.214-1.5a5.488,5.488,0,0,1,5.337-4.813c3.42-.118,6.851-.124,10.271,0a5.5,5.5,0,0,1,5.428,5.494q.154,4.926,0,9.86a5.5,5.5,0,0,1-5.427,5.494c-3.42.123-6.851.127-10.271,0a5.591,5.591,0,0,1-5.437-5.508c-.018-.268-.075-.534-.114-.8Zm10.666,12.7c1.565,0,3.132.047,4.695-.011a3.819,3.819,0,0,0,4.015-4q.106-4.576,0-9.156a3.8,3.8,0,0,0-4.015-4q-4.664-.1-9.331,0a3.772,3.772,0,0,0-4.009,3.938q-.126,4.634,0,9.273a3.8,3.8,0,0,0,4.009,3.943C102.663,116.468,104.21,116.422,105.756,116.422Zm0,0" transform="translate(-88.788 -91.199)" fill="#1d44f9"/><g transform="translate(6.301 6.449)"><path d="M95.09,103.718c.071-.5.125-1,.214-1.5a5.488,5.488,0,0,1,5.337-4.813c3.42-.118,6.851-.124,10.271,0a5.5,5.5,0,0,1,5.428,5.494q.154,4.926,0,9.86a5.5,5.5,0,0,1-5.427,5.494c-3.42.123-6.851.127-10.271,0a5.591,5.591,0,0,1-5.437-5.508c-.018-.268-.075-.534-.114-.8Zm10.666,12.7c1.565,0,3.132.047,4.695-.011a3.819,3.819,0,0,0,4.015-4q.106-4.576,0-9.156a3.8,3.8,0,0,0-4.015-4q-4.664-.1-9.331,0a3.772,3.772,0,0,0-4.009,3.938q-.126,4.634,0,9.273a3.8,3.8,0,0,0,4.009,3.943C102.663,116.468,104.21,116.422,105.756,116.422Zm0,0" transform="translate(-95.09 -97.317)" fill="#fff"/><path d="M179.427,174a5.434,5.434,0,1,0,5.434,5.434A5.434,5.434,0,0,0,179.427,174Zm0,9a3.563,3.563,0,1,1,3.563-3.563A3.563,3.563,0,0,1,179.427,182.994Zm0,0" transform="translate(-168.763 -168.915)" fill="#fff"/><path d="M325.871,152.035a1.293,1.293,0,1,1-1.293-1.293A1.293,1.293,0,0,1,325.871,152.035Zm0,0" transform="translate(-308.163 -147.202)" fill="#fff"/></g></g></g></svg>