<svg xmlns="http://www.w3.org/2000/svg" width="257" height="257" viewBox="0 0 257 257">
  <g id="lazy-icon" transform="translate(-1000 -10595)">
    <g id="Ellipse_137" data-name="Ellipse 137" transform="translate(1000 10595)" fill="#fff" stroke="#0086ca" stroke-width="4">
      <circle cx="128.5" cy="128.5" r="128.5" stroke="none"/>
      <circle cx="128.5" cy="128.5" r="126.5" fill="none"/>
    </g>
    <g id="lazy" transform="translate(1024 10622)">
      <path id="Path_1677" data-name="Path 1677" d="M179.82,118.029c0,43.028-34.881,61.791-77.91,61.791S24,161.057,24,118.029,58.881,24,101.91,24,179.82,75,179.82,118.029Z" transform="translate(0)" fill="#ffc70d"/>
      <ellipse id="Ellipse_138" data-name="Ellipse 138" cx="5.5" cy="5" rx="5.5" ry="5" transform="translate(94 88.819)" fill="#483d23"/>
      <path id="Path_1678" data-name="Path 1678" d="M152.06,170.746a8.069,8.069,0,0,1-8.06-8.06,2.687,2.687,0,0,1,5.373,0,2.687,2.687,0,0,0,5.373,0,2.687,2.687,0,1,1,5.373,0A8.069,8.069,0,0,1,152.06,170.746Z" transform="translate(-79.702 -90.329)" fill="#b46d2f"/>
      <path id="Path_1679" data-name="Path 1679" d="M328.06,170.746a8.069,8.069,0,0,1-8.06-8.06,2.687,2.687,0,1,1,5.373,0,2.687,2.687,0,1,0,5.373,0,2.687,2.687,0,0,1,5.373,0A8.069,8.069,0,0,1,328.06,170.746Z" transform="translate(-196.598 -90.329)" fill="#b46d2f"/>
      <path id="Path_1680" data-name="Path 1680" d="M285.552,205.373C281.466,205.373,256,200,256,200s8.06,10.746,10.746,16.119c1.7,3.4,8.06,16.119,18.806,16.119a13.433,13.433,0,0,0,13.433-13.433A13.041,13.041,0,0,0,285.552,205.373Z" transform="translate(-154.09 -116.896)" fill="#3db4d4"/>
      <path id="Path_1681" data-name="Path 1681" d="M101.91,344.234c-41.22,0-74.941-17.235-77.7-56.51-.121,1.832-.205,3.658-.205,5.466,0,43.028,34.881,61.791,77.91,61.791s77.91-18.762,77.91-61.791c0-1.808-.084-3.634-.205-5.466C176.851,327,143.13,344.234,101.91,344.234Z" transform="translate(0 -175.161)" fill="#f89f00"/>
    </g>
  </g>
</svg>
