<svg xmlns="http://www.w3.org/2000/svg" width="217.061" height="280.571" viewBox="0 0 217.061 280.571"><g transform="translate(-286.922 -221.004)"><path d="M345.07,337.014c-.582-1.388,5.139-9.838,5.724-9.636,1.791.621,8.31,3.622,8.678,4.93.354,1.263-4.527,10.154-6.211,9.461C351.8,341.168,345.634,338.351,345.07,337.014Z" transform="translate(75.619 138.427)" fill="#ff505c"/><path d="M356.36,328.822s8.14-.911,11.164,4.559c0,0-10.685,22.024-15.228,27.957,0,0-8.007-4.145-5.652-10.068a92.911,92.911,0,0,1,5.579-11.38S358.537,335.245,356.36,328.822Z" transform="translate(77.157 140.237)" fill="#1f0d52"/><path d="M364.631,290.1c7.452,20.386-22.7,44.488-17.7,52.952,7.341,12.43,42.138,48.633,51.59,50.329a11.127,11.127,0,0,1-.046,2.166c-.64,5.328-4.64,11.956-4.64,11.956-20.119-6.771-53.62-26.114-70.468-40.074-26.137-21.651-2.7-77.526-2.7-77.526-.817-10.607,23.589-18.646,36.99-9.086A19.244,19.244,0,0,1,364.631,290.1Z" transform="translate(31.342 72.282)" fill="#5f40d5"/><path d="M341.6,278.4a10.948,10.948,0,0,0-4.881,3.6,1.155,1.155,0,0,0,1.213,1.8c7.259,13.93-1.408,28.767-8.87,40.67-5.293,8.441-8.593,16.167-2.232,25.032,3.737,5.233,8.623,9.781,12.977,14.492,4.3,4.63,8.494,9.378,13.1,13.723a60.034,60.034,0,0,0,29.513,15.419,11.132,11.132,0,0,0,.046-2.166c-9.452-1.7-44.248-37.9-51.59-50.329-5-8.464,25.154-32.567,17.7-52.952A19.245,19.245,0,0,0,341.6,278.4Z" transform="translate(47.396 74.694)" fill="#32187c"/><path d="M367,329.949c-.822-1.261,3.291-10.6,3.9-10.506,1.871.29,8.823,2.074,9.422,3.291.578,1.181-2.63,10.8-4.414,10.423C374.366,332.831,367.793,331.164,367,329.949Z" transform="translate(104.07 128.105)" fill="#ff505c"/><path d="M375.118,320.6s7.845-2.357,11.8,2.481c0,0-6.559,23.582-9.963,30.235,0,0-8.621-2.637-7.369-8.888a93.235,93.235,0,0,1,3.445-12.2S378.418,326.531,375.118,320.6Z" transform="translate(107.421 128.87)" fill="#1f0d52"/><path d="M373.649,283.223c10.991,18.719-14.347,47.841-7.91,55.272,9.449,10.909,50.181,40.279,59.78,40.251a10.972,10.972,0,0,1,.347,2.14c.325,5.355-2.421,12.6-2.421,12.6-21-3.052-57.435-16.07-76.516-26.776-29.6-16.611-16.57-75.786-16.57-75.786-2.706-10.287,19.856-22.574,34.758-15.573A19.24,19.24,0,0,1,373.649,283.223Z" transform="translate(52.813 68.041)" fill="#5f40d5"/><path d="M347.946,274.182a10.972,10.972,0,0,0-4.156,4.414,1.157,1.157,0,0,0,1.519,1.551c9.64,12.4,3.774,28.553-1.427,41.6-3.694,9.256-5.553,17.449,2.3,25.025,4.614,4.481,10.239,8.076,15.364,11.928,5.065,3.783,10.043,7.7,15.348,11.15a60.041,60.041,0,0,0,31.8,9.873,10.972,10.972,0,0,0-.348-2.14c-9.6.028-50.331-29.342-59.78-40.251-6.437-7.431,18.9-36.553,7.91-55.272A19.24,19.24,0,0,0,347.946,274.182Z" transform="translate(69.984 69.204)" fill="#32187c"/><path d="M358.952,290.8a32.883,32.883,0,0,1-4.386,6.115c-2.907,3.289-8.28,3.349-14.034,5.42a15.3,15.3,0,0,1-3.622.789c-8.575.934-22.123-3.227-32.772-12.418-7.408-6.375-11.408-24.774-12.416-40.518-.755-11.5.081-21.573,2.315-24.549,1.742-2.317,4.529,4.069,4.529,4.069,3.733-1.572,14.724,35.867,17.546,38.674,2.453,2.439,13.263,11.21,24.708,6.191,1.112-.495,28.026-13.866,36.682-12.593C386.113,263.24,358.952,290.8,358.952,290.8Z" transform="translate(5.894 5.368)" fill="#ff505c"/><path d="M333.293,278.973a2.317,2.317,0,0,0-.147-.283,47.406,47.406,0,0,1,5.641-14.975c.789-1.316-1.388-2.283-2.17-.99a44.773,44.773,0,0,0-4.462,9.657c-.792,2.545-.773,6.948-2.769,8.927-2.138.467-6.039-.681-9.415-1.94a29.81,29.81,0,0,0-3.226-2.027,69.256,69.256,0,0,1-8.856-4.89,30.264,30.264,0,0,1-5.926-8.662,121.7,121.7,0,0,1-5.806-14.232c-1.408-4.35-1.8-9.024-3.979-13.06a.924.924,0,0,0-.608-.481c1.008,15.744,5.008,34.143,12.416,40.518,10.648,9.192,24.2,13.353,32.772,12.418C336.807,285.772,334,281.029,333.293,278.973Z" transform="translate(6.048 19.536)" fill="#fc3c4c"/><path d="M344.126,260.642c-4.543,5.217-8.669,9.413-8.669,9.413s2.755,7.629-.184,10.957c-1.438,1.636-3.97,2.566-6.991,3.22-4.179.937-9.286,1.388-13.7,2.58-8.342-12.193-5.337-27.49,1.385-35.653,12.8-5.028,29.531-11.185,38.042-9.924C359.237,242,351.2,252.534,344.126,260.642Z" transform="translate(29.39 26.11)" fill="#e5f0f3"/><path d="M332.588,269.96s1.892,7.031-.184,10.957c-1.8,3.4-17.67,5.146-20.694,5.8,14.344-6.946,16.324-38.03,21.64-41.6,5.13-3.114,17.787-3.975,17.787-3.975s-8.248,9.864-9.88,19.407C336.714,265.765,332.588,269.96,332.588,269.96Z" transform="translate(32.259 26.204)" fill="#b9dae1"/><path d="M313.867,335.48c0,2.937,71.28,14.4,77.789,13.164,2.663-.5,4.373-1.21,4.778-2.067,1.259-2.709-3.077-29.069-2.557-46.6.1-3.4.168-6.842.168-10.216.1-17.629-1.142-34.141-5.132-37.206-.9-.711-9.351-9.245-21.6-11.263-25.863-4.262-32.737,2.713-33.305,2.925-7.795,3.139-6.679,20.1-5.42,34.33.571,6.6,1.164,12.616.927,16.372a32.565,32.565,0,0,1-.476,3.751C327.286,309.145,315.172,327.851,313.867,335.48Z" transform="translate(35.066 24.607)" fill="#d3e7ec"/><path d="M329.749,239.092v7.622s-1.8,3.3,0,3.664c3.961.792,9.677-3.659,9.677-3.659V235.083Z" transform="translate(54.694 18.322)" fill="#ff505c"/><path d="M338.611,240.483v-5.141s-4.285,5.447-9.035,5.717C329.576,241.059,334.662,243.121,338.611,240.483Z" transform="translate(55.509 18.659)" fill="#fc3c4c"/><path d="M330.8,228.706s-3.563,7.226-4.453,13.958c-.633,4.78,8.117,11.086,15.244,4.354s5.148-17.026,5.148-17.026Z" transform="translate(51.266 10.023)" fill="#ff505c"/><path d="M333.518,234.208c1.94.173,3.892.032,5.832.161a6.6,6.6,0,0,1,3.963,1.487c-.276,1.507-.536,3.144-.624,3.563-.467,2.276-1.878,5-1.167,7.355a2.914,2.914,0,0,0,3.627,2.067,2.543,2.543,0,0,0,1.8-1.919,14.018,14.018,0,0,0,2.163-11.746c.483-3.526-6.755-6.736-8.876-7.523-2.927-1.086-12.071-4.409-12.379,1.231C324.934,231.81,330.427,233.934,333.518,234.208Z" transform="translate(52.191 6.095)" fill="#32187c"/><path d="M287.454,224.921a1.536,1.536,0,0,1,1.533-.6,3.187,3.187,0,0,1,.177-2.552c.661-.987,1.4-.872,2.322-.449a3.034,3.034,0,0,1,.467.281c.044-.064.062-.131.11-.191a.842.842,0,0,1,.812-.295c1.609.318,2.865,1.627,3.912,2.792,3.109,3.452,5.288,4.14,6.945,4.2-.543-1.514-.578-1.9-1.475-2.451a1.586,1.586,0,0,1-.787-1.482c.1-.778.672-.914,1.224-.927.955-.021,2.557.891,3.441,1.326a2.415,2.415,0,0,1,1.238,1.611c1.965,7.019.522,9.215-1.459,11.3-.826.872-5.049.182-6.759-1.521-4.3-.964-9.528-3.029-8.918-5.365C287.9,228.987,285.942,226.865,287.454,224.921Z" transform="translate(0 0)" fill="#ff505c"/><path d="M421.421,292.635c.127-.545.251-1.114.377-1.682,3.744-18.39.4-53.884.329-53.907-1.466-.472-7.314-2.98-7.314-2.98-.175.782-9.238,29.649-12.858,41.91-.274.923-.522,1.777-.723,2.485a.079.079,0,0,0-.021.048,9.1,9.1,0,0,1-.868,2.769.536.536,0,0,1-.071.163c-.025.048-.028.074-.051.094-.994,1.581-14.9-5.194-19.548-10.149-2.064-2.212-4.1-4.541-5.809-6.557a28.065,28.065,0,0,0-16.107-9.634,29.023,29.023,0,0,0-15.247,1.093,8.736,8.736,0,0,0-3.781,13.663c7.114,8.95,10.881,13.511,23.927,24.77.071.046.117.12.186.168C380.254,309.113,417.308,310.07,421.421,292.635Z" transform="translate(66.234 16.997)" fill="#ff505c"/><path d="M406.818,290.978c.127-.545.251-1.114.377-1.682,3.744-18.39.329-53.907.329-53.907a.647.647,0,0,1-.166-.051c-.778,3.388.087,10.722-.214,14.018-1.056,11.569-4.916,30.47-5.7,36.115-1.148,8.207-8.023,10.853-15.392,10.952-11.049.17-21.044-2.472-30.94-7.18a1.055,1.055,0,0,0-1.01-.916c-4.034-.288-5.229,1.979-5.049,4.739.071.046.117.12.186.168C365.651,307.456,402.705,308.413,406.818,290.978Z" transform="translate(80.837 18.653)" fill="#fc3c4c"/><path d="M385.3,260.032c-1.9-2.041-14.186-14.888-26.523-16.984-5.615-.955-19.145.64-20.924,7.6-3.887,15.224,12.269,28.394,25.522,36.868C374.133,282.905,381.746,272.588,385.3,260.032Z" transform="translate(65.508 28.358)" fill="#e5f0f3"/><path d="M328.366,233.847c.495-.239.971-.495,1.443-.776a1.431,1.431,0,0,1,1.825.5,7.444,7.444,0,0,0,1.054,1.843c.939,1.2-.877,2.736-1.818,1.528a10.326,10.326,0,0,1-.856-1.289c-.221.117-.435.244-.66.352A1.188,1.188,0,0,1,328.366,233.847Z" transform="translate(53.071 15.477)" fill="#32187c"/><path d="M393.942,241.784a1.5,1.5,0,0,0-.808-1.388,3,3,0,0,0,1.443-1.993c.1-1.137-.545-1.512-1.51-1.765a3.075,3.075,0,0,0-.536-.083c0-.074.032-.133.032-.209a.837.837,0,0,0-.444-.72,7.941,7.941,0,0,0-4.745-.359c-4.536.626-6.642-.216-7.958-1.19,1.355-.778,1.62-1.045,2.651-.9a1.564,1.564,0,0,0,1.528-.608c.405-.631.046-1.086-.373-1.438a10.368,10.368,0,0,0-3.473-1.151,2.392,2.392,0,0,0-1.952.426,15.055,15.055,0,0,0-6.787,12.918c.1,1.155,5.459,4.789,5.59,4.525.347-.686,2.034-3.42,2.159-4.61,3.912,1.945,8.545,3.1,9.518,1.006C391.081,244.506,393.9,244.149,393.942,241.784Z" transform="translate(109.395 11.607)" fill="#ff505c"/></g></svg>