<svg xmlns="http://www.w3.org/2000/svg" xmlns:xlink="http://www.w3.org/1999/xlink" width="1034.83" height="1424.273" viewBox="0 0 1034.83 1424.273"><defs><linearGradient id="a" x1="0.071" y1="0.051" x2="0.679" y2="0.848" gradientUnits="objectBoundingBox"><stop offset="0" stop-color="#0078be"/><stop offset="1" stop-color="#14c2f3"/></linearGradient><linearGradient id="b" x1="0.5" y1="-0.024" x2="0.5" y2="1.832" xlink:href="#a"/></defs><g transform="translate(172.185 -13782.318)"><g transform="translate(39 13668)"><g transform="translate(-44 285.113)"><g transform="translate(-167.185 11)"><path d="M1273.18,255.918c0-47.565-29.051-88.144-69.894-104V72.8c29.262,3.268,45.414,36.283,60.082,59.992,8.033,19.039,37.718,48.856,61.465,55.681,12.659,24.993,16.305,37.31,16.305,67.441,0,86.51-58.993,158.836-137.852,176.767V359.924C1244.13,344.062,1273.18,303.483,1273.18,255.918Z" transform="translate(-1200.075 751.163)" fill="#fff" opacity="0.2"/><path d="M628.465,108.991V1282.938c162.159-20.361,287.971-120.62,385.123-122.043s17.949-9.452,258.146,87.888,418.695,51.469,312.983-283.665,102.77-376.688,76.219-506.878-23.279-51.319-200.925-115.316S1341.1,6.381,1142.043,57.707,824.388,281.566,769.685,163.089C728.35,73.543,668.838,88.449,642.229,101.08c0,0,0-.019-.014,0A89.109,89.109,0,0,0,628.465,108.991Z" transform="translate(-628.465 -51.312)" fill="#0086ca" opacity="0.2"/><path d="M656.568,82.19v1170.8c27.54,6.519,61.88,4.723,104.843-8.537,170.417-52.635,274.181-167.512,509.783-33.3,118.527,67.509,314.984,100.285,377.884-107.328q3.687-12.17,6.54-25.49c32.183-150.8-78.05-273.649-67.313-425.035,6.439-90.759,73.724-126.34,83.7-211.791,17.321-148.338-107.182-148.5-170.5-128.217-95.8,30.677-146.657-120.2-215.191-181.356C1143.842,4.812,1015.728,228.127,885.343,277.976c-46.8,17.9-93.214,4.1-128.8-44.32C724.5,190.063,706.216,89.758,656.568,82.19Z" transform="translate(-654.235 -64.52)" fill="url(#a)"/><path d="M673.64,555.4V701.79c27.381,4.547,61.523,3.294,104.239-5.955,169.434-36.717,272.6-116.853,506.846-23.23,117.844,47.093,361.138,73.075,394.22-117.2Z" transform="translate(-671.189 490.01)" fill="url(#b)"/><g transform="translate(31.272 1060.98)"><g transform="translate(0)" opacity="0.2"><ellipse cx="13.313" cy="3.563" rx="13.313" ry="3.563" transform="translate(185.399 86.239)" fill="#fff"/><ellipse cx="3.127" cy="0.837" rx="3.127" ry="0.837" transform="translate(494.683 52.295)" fill="#fff"/><ellipse cx="13.313" cy="3.563" rx="13.313" ry="3.563" transform="translate(269.605 2.465)" fill="#fff"/><ellipse cx="11.094" cy="2.969" rx="11.094" ry="2.969" transform="translate(327.64 61.045)" fill="#fff"/><ellipse cx="25.885" cy="6.927" rx="25.885" ry="6.927" transform="translate(0 66.513)" fill="#fff"/><ellipse cx="11.263" cy="3.014" rx="11.263" ry="3.014" transform="translate(47.009)" fill="#fff"/><ellipse cx="10.012" cy="2.679" rx="10.012" ry="2.679" transform="translate(439.091 20.867)" fill="#fff"/><ellipse cx="11.044" cy="2.955" rx="11.044" ry="2.955" transform="translate(623.387 6.635)" fill="#fff"/><ellipse cx="20.046" cy="5.364" rx="20.046" ry="5.364" transform="translate(656.472 41.136)" fill="#fff"/></g><g transform="translate(664.06)" opacity="0.2"><ellipse cx="13.313" cy="3.563" rx="13.313" ry="3.563" transform="translate(124.286 86.239)" fill="#fff"/><ellipse cx="13.313" cy="3.563" rx="13.313" ry="3.563" transform="translate(180.736 2.465)" fill="#fff"/><ellipse cx="11.094" cy="2.969" rx="11.094" ry="2.969" transform="translate(220.351 61.045)" fill="#fff"/><ellipse cx="25.885" cy="6.927" rx="25.885" ry="6.927" transform="translate(0 66.513)" fill="#fff"/><ellipse cx="11.263" cy="3.014" rx="11.263" ry="3.014" transform="translate(47.009)" fill="#fff"/></g></g></g><g transform="translate(308.69 689.127)"><g transform="translate(0 -0.001)"><g transform="translate(0 0)"><g transform="translate(60.353 63.482)"><path d="M213.315,379.909c2.37,2.921,13.981,8.183,17.161,7.7,21.336-3.106,32.869-21.5,41.267-30.185a45.042,45.042,0,0,0,3.883-4.552,48.826,48.826,0,0,0,9.167-22.482,52.948,52.948,0,0,0,.521-11.685s11.9-59.016-.373-53.358c-12.35,5.731-27.733,31.135-38.974,50.548-.333.558-.629,1.109-.961,1.631-.7,1.22-1.368,2.4-2.034,3.513-1.734,3.028-3.365,5.879-4.844,8.32-3.176,5.4-11.267,17.771-11.267,17.771S203.479,367.891,213.315,379.909Z" transform="translate(-210.9 -264.968)" fill="#ff505c"/></g><g transform="translate(69.72 116.043)"><path d="M225.76,330.765c7.211-2.256,17.975-3.553,19.154-12.983.7-5.617-5.916-11.94-8.172-16.747a36.006,36.006,0,0,1-2.921-10.021c1.479-2.441,3.11-5.291,4.844-8.32.666-1.113,1.331-2.293,2.034-3.513,5.325,3.365,10.169,11.426,12.683,14.972,4.918,6.882,13.977,14.68,14.092,23.854a10.087,10.087,0,0,1-.037,1.072c-8.4,8.686-21.82,16.118-43.156,19.224-3.18.484-5.953-1.109-8.32-4.031C218.291,332.17,223.249,331.542,225.76,330.765Z" transform="translate(-215.961 -279.182)" fill="#fc3c4c"/></g><g transform="translate(91.826 63.482)"><path d="M253.839,318.711a52.91,52.91,0,0,1-.521,11.681c-1.15,8-4.278,18.77-12.417,27.929-8.305,9.34-36.693-36.2-28.546-47.641,12.41-17.427,28.972-39.7,41.111-45.33C265.742,259.7,253.839,318.711,253.839,318.711Z" transform="translate(-210.901 -264.968)" fill="#11b2d8"/></g><g transform="translate(120.048 64.741)"><path d="M223.865,265.308s-8.146,4.016-9.995,16.5-4.315,46.795-1.139,59.637c2.529,10.206,3.176,12.121,3.258,12.125l.022-.007,7.266-10.786s7.784-11.988,6.586-14.835S223.865,265.308,223.865,265.308Z" transform="translate(-211.201 -265.308)" fill="#0091c1"/></g><g transform="translate(60.617 195.695)"><path d="M210.413,382.321h15.516V325.757a9.533,9.533,0,0,1,9.522-9.518h56.094V300.723H235.45a25.063,25.063,0,0,0-25.037,25.034Z" transform="translate(-210.413 -300.723)" fill="#b9dae1"/></g><g transform="translate(43.785 142.311)"><g transform="translate(17.063 125.079)"><path d="M229.643,464.748h0a7.518,7.518,0,0,1-6.793-7.991l10.664-136.646,24.294,2.282-20,135.769A7.515,7.515,0,0,1,229.643,464.748Z" transform="translate(-222.833 -320.112)" fill="#b9dae1"/></g><g transform="translate(85.536 107.944)"><path d="M219.615,480.5h0a7.51,7.51,0,0,1-7.658-7.162l-4.781-157.364,24.4-.5-4.6,157.553A7.516,7.516,0,0,1,219.615,480.5Z" transform="translate(-207.176 -315.478)" fill="#b9dae1"/></g><g transform="translate(222.692 89.248)"><path d="M199.112,490.889h0A7.516,7.516,0,0,0,205.9,482.9L190.134,310.422l-24.29,2.285,25.108,171.6A7.514,7.514,0,0,0,199.112,490.889Z" transform="translate(-165.843 -310.422)" fill="#b9dae1"/></g><g transform="translate(169.903 92.61)"><path d="M196.319,491.687h0a7.512,7.512,0,0,0,7.658-7.162l4.777-172.695-24.394-.5,4.6,172.887A7.508,7.508,0,0,0,196.319,491.687Z" transform="translate(-184.361 -311.331)" fill="#b9dae1"/></g><g transform="translate(0 0.001)"><path d="M167,421.267a12.338,12.338,0,0,0,12.347,12.347H333.943s2.825-.876,7.384-2.311c18.559-5.905,65.967-21.347,69.129-26.305,3.931-6.172,15.031-118.671,15.031-118.671H270.9a12.345,12.345,0,0,0-13.29,11.334l-4.119,79.863a34.29,34.29,0,0,1-34,31.4H179.349A12.337,12.337,0,0,0,167,421.267Z" transform="translate(-167.002 -286.286)" fill="#d3e7ec"/></g><g transform="translate(0 122.639)"><path d="M189.762,331.795a12.338,12.338,0,0,0,12.347,12.347H364.088v-24.69H202.109A12.337,12.337,0,0,0,189.762,331.795Z" transform="translate(-189.762 -319.452)" fill="#e5f0f3"/></g><g transform="translate(154.602)"><path d="M176.273,433.614h40.135a59.1,59.1,0,0,0,58.613-54.15l4.123-79.856a12.345,12.345,0,0,0-24.612-1.956l-4.123,79.86a34.284,34.284,0,0,1-34,31.412H176.273a12.345,12.345,0,1,0,0,24.69Z" transform="translate(-163.926 -286.286)" fill="#b9dae1"/></g></g><g transform="translate(33.645 375.79)"><path d="M238.92,349.6c2.034-1.309,17,5.373,16.847,6.353-.481,3.006-3.4,14.166-5.362,15.109-1.9.921-17.339-4.312-16.714-7.174C234.231,361.411,236.964,350.861,238.92,349.6Z" transform="translate(-233.673 -349.427)" fill="#ff505c"/></g><g transform="translate(0 385.171)"><path d="M286.869,361.256s3.724,12.624-4.082,18.944c0,0-37.839-10.738-48.5-16.259,0,0,4.311-13.83,14.344-11.766a149.935,149.935,0,0,1,19.572,5.635S277.317,366.507,286.869,361.256Z" transform="translate(-234.287 -351.964)" fill="#1f0d52"/></g><g transform="translate(31.693 182.139)"><path d="M345.6,352.73c-9.836,19.45-45.005,27.363-71.107,34.241-15.641,4.142-28.029,7.913-29.693,13.608-6.508,22.26-11.093,80.8-17.268,101.281-2.219,2.551-6.841,2.592-11.648,1.7a77.516,77.516,0,0,1-16.085-5.284c1.409-45.634-2.366-88.194,4.959-119.843,12.273-53.177,92.772-77.471,92.772-77.471C311.654,285.506,362.834,318.641,345.6,352.73Z" transform="translate(-199.798 -297.057)" fill="#331b6c"/></g><g transform="translate(121.07 388.9)"><path d="M210.3,357.034c.987-2.2,17.176-4.781,17.579-3.875,1.239,2.781,4.885,13.726,3.757,15.59-1.087,1.808-16.873,5.853-17.915,3.113C212.815,369.492,209.346,359.164,210.3,357.034Z" transform="translate(-210.133 -352.973)" fill="#ff505c"/></g><g transform="translate(46.711 197.653)"><path d="M311.1,331.1c-8.32,8.653-18.233,15.682-26.775,24.109a248.869,248.869,0,0,0-18.563,20.448c-15.641,4.142-28.029,7.913-29.693,13.608-6.508,22.26-11.093,80.8-17.268,101.281-2.219,2.551-6.841,2.592-11.648,1.7a70.834,70.834,0,0,1-.958-10.723,131.861,131.861,0,0,1,2.733-31.652c4.142-20.744,10.5-42.7,19.265-61.974,4.918-10.8,9.688-20.153,12.092-31.911,1.553-7.654,3.439-15.2,8.209-21.595,12.055-16.011,33.427-20.485,49.291-31.431a2.791,2.791,0,0,1,.481-.222,1.527,1.527,0,0,1,2-1.405C315.723,305.655,323.225,318.415,311.1,331.1Z" transform="translate(-206.087 -301.252)" fill="#1f0d52"/></g><g transform="translate(99.413 400.989)"><path d="M251.488,356.242s10.01,8.545,6.922,18.1c0,0-37.565,11.663-49.509,12.857,0,0-3.938-13.94,5.591-17.69a149.835,149.835,0,0,1,19.472-5.964S246.352,365.856,251.488,356.242Z" transform="translate(-208.095 -356.242)" fill="#1f0d52"/></g><g transform="translate(90.546 184.107)"><path d="M322.6,353.258c-15.715,31.135-77.1,22.257-81.535,37.417-6.508,22.26-10.723,102.834-2.33,115.776a17.712,17.712,0,0,1-2.585,2.33c-6.952,5.1-19.121,7.691-19.121,7.691-14.159-31.02-28.288-91.556-30.432-126.647-3.328-54.427,87.932-88.335,87.932-88.335,11.541-12.613,47.775,7.17,51.291,33.387A30.937,30.937,0,0,1,322.6,353.258Z" transform="translate(-186.508 -297.589)" fill="#331b6c"/></g><g transform="translate(125.841 219.538)"><path d="M287.305,327.409c-15.715,31.135-77.1,22.257-81.535,37.417-6.508,22.26-10.723,102.834-2.33,115.776a17.71,17.71,0,0,1-2.585,2.33,96.4,96.4,0,0,1-14.347-51.546c.033-10.169.995-20.3,1.7-30.432.74-10.28.7-21,2.736-31.135,3.4-17.194,16.081-21.817,31.8-24.886,22.153-4.326,49.073-10.465,57.429-34.278a1.86,1.86,0,0,1,.777-3.4,17.631,17.631,0,0,1,9.581,1.775A30.937,30.937,0,0,1,287.305,327.409Z" transform="translate(-186.508 -307.171)" fill="#1f0d52"/></g><g transform="translate(114.3 56.638)"><path d="M185.644,397.566c.555,1.734,24.716,15.579,38.2,20.644,23.377,8.782,62.917,15.612,73.045,13.693,4.145-.776,6.8-1.889,7.436-3.217,1.96-4.219-4.792-45.249-3.975-72.538.148-5.284.255-10.646.255-15.9.148-27.437-1.771-53.14-7.987-57.91-1.405-1.106-3.028-2.252-4.84-3.472a91.294,91.294,0,0,0-9.392-5.624,88.175,88.175,0,0,0-19.343-7.466,80.218,80.218,0,0,0-38.6-.592.034.034,0,0,1-.037.033,78.941,78.941,0,0,0-10.649,3.184c-.85.3-1.7.629-2.588.961-12.129,4.881-10.394,31.283-8.431,53.432.887,10.276,1.812,19.631,1.438,25.477a50.647,50.647,0,0,1-.736,5.842C196.7,370.425,187.674,385.7,185.644,397.566Z" transform="translate(-185.644 -263.117)" fill="#ff505c"/></g><g transform="translate(108.901 56.638)"><path d="M185.87,398.184c.558,1.734,32.355,16.64,50.382,24.035,23.107,9.477,55.906,11.6,66.034,9.684,4.145-.776,6.8-1.889,7.436-3.217,1.96-4.219-4.792-45.249-3.975-72.538.148-5.284.255-10.646.255-15.9.148-27.437-1.771-53.14-7.987-57.91-1.405-1.106-3.028-2.252-4.84-3.472a91.294,91.294,0,0,0-9.392-5.624,88.175,88.175,0,0,0-19.343-7.466,80.218,80.218,0,0,0-38.6-.592.034.034,0,0,1-.037.033,78.941,78.941,0,0,0-10.649,3.184c-.85.3-1.7.629-2.588.961-12.129,4.881-10.394,31.283-8.431,53.432C205.021,333.074,183.2,396.96,185.87,398.184Z" transform="translate(-185.644 -263.117)" fill="#11b2d8"/></g><g transform="translate(158.498 38.89)"><path d="M202.721,264.559v11.862s-2.807,5.14,0,5.7c6.16,1.235,15.057-5.695,15.057-5.695V258.317Z" transform="translate(-201.474 -258.317)" fill="#ff505c"/></g><g transform="translate(160.736 39.814)"><path d="M215.54,266.572v-8.006s-6.671,8.483-14.066,8.9C201.474,267.471,209.394,270.677,215.54,266.572Z" transform="translate(-201.474 -258.567)" fill="#fc3c4c"/></g><g transform="translate(149.064 14.703)"><path d="M206.716,251.776s-5.547,11.245-6.933,21.724c-.987,7.44,12.632,17.254,23.725,6.778s8.013-26.5,8.013-26.5Z" transform="translate(-199.732 -251.776)" fill="#ff505c"/></g><g transform="translate(175.877 71.333)"><path d="M192.538,340.258c-12.384-17.9-7.969-51.232,12.321-67.746,5.724-4.655,10.8-5.694,11.685-5.365-.736.3-7.325,9.629-6.771,10.742a313.706,313.706,0,0,0,21.454,37.48,97.891,97.891,0,0,1,7.8,14.162c0,5.251-.107,10.612-.255,15.9-.817,27.289,5.935,68.319,3.975,72.538-.632,1.327-3.291,2.441-7.436,3.217-3.657-11.241-8.52-40.253-10-51.572C223.24,353.825,201.006,352.424,192.538,340.258Z" transform="translate(-185.644 -267.091)" fill="#0091c1"/></g><g transform="translate(145.415 0)"><path d="M210.991,248.244c2.049.532,3.317,1.642,5.073,2.729,2.958,1.83,5.654,2.337,8.949,3.017,4.068.836,7.9,1.871,10.457,5.388,4.045,5.55,3.491,16.854-.765,22.915a3.857,3.857,0,0,1-2.581,2.9,4.531,4.531,0,0,1-5.8-2.925c-1.29-3.6.684-7.954,1.231-11.526.122-.8.174-1.853.359-2.84-9.684-.137-22.586-.865-27.567-8.738C195.231,251.088,203.359,246.262,210.991,248.244Z" transform="translate(-198.746 -247.8)" fill="#32187c"/></g><g transform="translate(150.844 32.695)"><path d="M206.352,259.031q1.376-.893,2.74-1.786a1.885,1.885,0,0,1,.913-.3,1.619,1.619,0,0,1,2.507.766,33.842,33.842,0,0,0,1.568,3.557c1.083,2.115-2.278,3.657-3.365,1.538-.288-.569-.507-1.165-.765-1.742-.407.266-.814.529-1.22.8C206.762,263.147,204.359,260.333,206.352,259.031Z" transform="translate(-205.604 -256.642)" fill="#32187c"/></g><g transform="translate(211.343 199.852)"><path d="M169.65,383.445h15.519V326.88a9.528,9.528,0,0,1,9.518-9.518h56.1V301.847h-56.1A25.063,25.063,0,0,0,169.65,326.88Z" transform="translate(-169.65 -301.847)" fill="#b9dae1"/></g><g transform="translate(179.14 72.175)"><path d="M260.284,393.427c-15.715,22.046-85.466,1.324-85.466,1.324l.98-12.2s41.03,3.339,49.191-10.287c1.479-2.474-2.855-30.787-10.472-38.109-3.406-3.254-6.992-6.471-10.095-9.174a43.66,43.66,0,0,1-14.68-25.252,45.2,45.2,0,0,1,2-23.7c3.176-8.693,14.162-11.467,21.332-5.624,13.8,11.241,36.027,40.076,36.582,40.782C269.358,336.956,276.051,371.3,260.284,393.427Z" transform="translate(-174.818 -267.318)" fill="#ff505c"/></g><g transform="translate(192.54 70.626)"><path d="M204.143,341.351c-3.136-3-22.893-22.36-25.917-41.607-1.376-8.756,1.335-29.892,12.232-32.414,17.461-4.045,40.793,21.3,56.886,40.431C239.956,324.423,223.756,336.074,204.143,341.351Z" transform="translate(-177.896 -266.9)" fill="#11b2d8"/></g><g transform="translate(24.757 149.996)"><g transform="translate(101.134 45.485)"><path d="M202.172,300.665l46.33,2.8L204.158,315.9Z" transform="translate(-202.172 -300.665)" fill="#eef9fb"/></g><g transform="translate(103.105 48.288)"><path d="M246.464,301.423l.245,4.394-44.6,13.632.014-5.594Z" transform="translate(-202.106 -301.423)" fill="#99cbd3"/></g><g transform="translate(7.232 54.925)"><path d="M214.165,303.218l95.888,5.8-.014,5.594L214.186,308.2Z" transform="translate(-214.165 -303.218)" fill="#b9dae1"/></g><g transform="translate(0)"><path d="M221.4,343.289l95.886,5.794L309.9,297a3.8,3.8,0,0,0-3.535-3.3l-88.172-5.332a3.8,3.8,0,0,0-3.99,4.278Z" transform="translate(-214.165 -288.364)" fill="#d3e7ec"/></g><path d="M13.8,0H0V22.015H13.8l5.015-5.567-5.922-5.44,5.922-5.44ZM2.087,2.139H12.882L15.84,5.423,9.762,11.007l6.078,5.584-2.958,3.283H2.087Z" transform="translate(37.589 19.5)" fill="#0086ca"/></g><g transform="translate(135.312 174.781)"><path d="M208.017,304.862a24.462,24.462,0,0,1,9.333-1.006,10.858,10.858,0,0,1,1.157-.185,11.4,11.4,0,0,1-.632-1.047c-1.043-2.3-1.206-6.175,1.631-7.325,3-1.213,4.911,2.614,6.449,4.463a22.216,22.216,0,0,0,6.36,5.6c2.544,1.057,5.325,1.246,8.028,1.716,1.934.34,5.129.444,6.316,2.355.947,1.52.961,4.692.544,6.419-.525,2.16-2.422,3.18-4.308,4.042a20.767,20.767,0,0,1-5.084,1.49c-3.11.91-6.356,1.475-9.525.573a12.072,12.072,0,0,1-1.952-.78,16.271,16.271,0,0,1-8.875,1.065,1.98,1.98,0,0,1-1.52-2.747,3.715,3.715,0,0,1-1.645-.928,2.8,2.8,0,0,1-.758-1.915,6.552,6.552,0,0,1-1.564-1.154,5.364,5.364,0,0,1-1.305-5.643,26.009,26.009,0,0,0-7.639,6.083,2.124,2.124,0,0,1-3.568-.684C197.33,310.6,204.4,306.079,208.017,304.862Z" transform="translate(-199.065 -295.067)" fill="#ff505c"/></g><g transform="translate(42.969 201.466)"><path d="M253.561,310.313c-.17-.9-1.024-2.477-2.367-2.222a1.427,1.427,0,0,0-.44.166,4.726,4.726,0,0,0-.052-1.89c-.322-1.339-1.623-3.295-3.457-2.178A5.246,5.246,0,0,0,245.523,306a3.724,3.724,0,0,0-2.489-2.788c-2.174-.817-3.2.562-3.786,2.171-.359-1.612-1.309-3.946-3.432-2.784-1.187.651-1.982,2.208-2.6,3.232a20.054,20.054,0,0,0-2,4.655.642.642,0,0,0-.018.189.628.628,0,0,0-.137.684c.662,1.694,2.725,3.472,4.755,1.945a9.491,9.491,0,0,0,1.442-1.372c-.148,1.52.211,2.858,1.878,3.187,1.76.355,3.247-.884,4.33-2.381a.924.924,0,0,0,.041.107c.473.68,1.083,1.594,2.167,1.583a3.213,3.213,0,0,0,2.148-1.231.585.585,0,0,0,.281.44C250.851,315.146,254.068,313.009,253.561,310.313Z" transform="translate(-231.015 -302.283)" fill="#ff505c"/></g><g transform="translate(298.058 170.841)"><g transform="translate(52.237 31.379)"><path d="M143.207,334.245c3.683-7.129,10.52-4.729,16.166-.566-.562-3.147-1.139-6.294-1.76-9.448a4.119,4.119,0,0,1,.007-1.664c-3.7-2.74-7.3-6.049-7.429-11-.118-4.419,2.651-8.324,7.114-8.978,4.526-.673,8.557,2.078,10.428,6.094,2.367,5.092,1.279,10.9-.891,15.823a3.351,3.351,0,0,1-1.157,1.424c.4,2.115.751,4.234,1.124,6.349a6.281,6.281,0,0,1,2.625-1.224c3.979-2.285,8.826-3.361,10.79,1.146,2.548,5.839-2.466,13.582-8.12,15.3a5.878,5.878,0,0,1-2.892.144c.307,2.385.566,4.766.81,7.151a7.948,7.948,0,0,1,9.311-1.616,8.694,8.694,0,0,1,2.991,13.031c-2.074,2.792-7.525,6.112-11.263,4.729q.139,5.63-.081,11.249c3.224-.61,6.434-1.228,9.6.122,3.04,1.3,5.365,4.09,5.188,7.54a7.706,7.706,0,0,1-5.347,6.837,8.127,8.127,0,0,1-4.814-.011,9.705,9.705,0,0,1-2.182-1.024c-.255-.2-.514-.4-.773-.6a5.49,5.49,0,0,1-.669-.4,3.1,3.1,0,0,1-2.037-.1,127.931,127.931,0,0,1-4.508,21.547c-1.424,4.7-8.815,2.692-7.377-2.034a122.817,122.817,0,0,0,4.267-19.938,4.549,4.549,0,0,1-1.387-.359c-6.1-2.648-19.243-11.921-12.731-19.768,4.866-5.868,10.823-.1,15.172,5.639.041-1.6.141-3.195.137-4.792a19.361,19.361,0,0,1-14.066-17.427c-.255-3.184,3.365-4.378,5.754-3.306a34.982,34.982,0,0,1,7.577,4.822c-.288-3.291-.625-6.578-1.05-9.873C153.664,347.753,138.238,343.867,143.207,334.245Z" transform="translate(-142.241 -302.488)" fill="#00b6d9"/></g><g transform="translate(0)"><path d="M165.954,327.32a4.474,4.474,0,0,1,.662-1.989,64.719,64.719,0,0,0-2.973-7.5,6.666,6.666,0,0,1-.207-.769c-4.9-2.322-9.555-5.524-10.365-11.323-.828-5.953,3.054-10.287,8.738-11.363,4.936-.928,11.408-.418,13.83,4.589,2.548,5.28-.314,12.391-3.446,17.231.932,2.152,1.827,4.315,2.559,6.523a7.741,7.741,0,0,1,1.59-1.871,7.1,7.1,0,0,1,10.135,1.113c5.517,6.534,1.054,16.913-6.027,20.075-.07.033-.137.018-.2.048,1.472,4.271,2.888,8.545,4.123,12.857a13.39,13.39,0,0,1,1.7-2.574c2.673-3.106,7.425-5.713,11.371-3.376,9.126,5.4-3.579,18.785-8.945,22.771.913,4.311,1.767,8.634,2.44,12.986a19.046,19.046,0,0,1,4.463-6.5c3.613-3.258,9.758-3.587,12.624.865,2.722,4.23-.366,10.627-2.5,14.469A32.733,32.733,0,0,1,193.3,405.8c.237,3.517.414,7.037.5,10.572a6.533,6.533,0,0,1,8.183.806c3.605,3.424,2.98,9.47,1.228,13.634a17.443,17.443,0,0,1-8.309,8.83,10.688,10.688,0,0,1-.784,1.072,3.846,3.846,0,0,1-1.046.536c-.1,1.254-.122,2.5-.237,3.757-.51,5.469-9.126,5.524-8.612,0,.207-2.2.27-4.386.418-6.578-5.857-.174-11.337-5.746-11.984-11.474-.854-7.577,5.706-12.92,12.557-10.372-.1-4.474-.366-8.923-.714-13.36a3.929,3.929,0,0,1-.521.066c-6.253-.27-12.927.47-17.4-4.822-3.284-3.879-3.48-9.854.728-13.179,4.814-3.8,10.387-2.492,15.183.684q-1.1-7.205-2.666-14.34c-7.351.3-19.051-7.647-12.949-15.63,2.355-3.087,5.155-3.694,7.972-2.977-.954-3.114-2.012-6.2-3.084-9.3-4.119.436-8.235.414-11.94-1.845-3.409-2.074-6.379-6.419-4.467-10.442C157.154,327.66,162.19,327,165.954,327.32Z" transform="translate(-152.96 -294.002)" fill="#00b6d9"/></g><g transform="translate(74.356 62.772)"><path d="M133.236,358.34c3.653-2.163,7.854.5,10.55,2.943a21.155,21.155,0,0,1,3.261,3.864c.636-2.662,1.309-5.31,2.137-7.869-4.175-1.638-9.241-3.11-12.358-6.242a6.711,6.711,0,0,1-.407-9.44,8.334,8.334,0,0,1,9.91-1.3c3.069,1.608,4.789,4.578,6.9,7.162a50.759,50.759,0,0,1,5.051-8.242c-4.385-.2-6.959-4.541-8.727-8.557-1.878-4.26-4.485-11.47-1.438-15.789,6.109-8.653,13.482,8.753,16.481,17.745a44.9,44.9,0,0,1,6.778-4.814,2.874,2.874,0,0,1,.714-.233,2.325,2.325,0,0,1-.181-.677c.126-2.577,2.093-4.474,3.642-6.4a43.849,43.849,0,0,1,6.989-7.418c3.786-2.925,9.167-3.162,11.478,1.712,2.078,4.382-.185,9.5-3.505,12.55-4.5,4.134-10.668,4.844-16.281,6.53a3.432,3.432,0,0,1-.625.059c-.958.581-1.819,1.224-2.7,1.86,5.669-.1,11.655,1.265,9.629,7.924a7.273,7.273,0,0,1-7.325,5.025c-4.2-.055-7.222-3.087-11.119-4.023a46.614,46.614,0,0,0-3.986,6.878c3.554-1.645,7.566-1.93,10.331,1.731,3.664,4.855-.954,9.348-5.462,11.034-2.825,1.058-7.04,1.283-9.315-.625-.839,3.132-1.5,6.345-2.1,9.577,3.835-1.875,8.172-2.122,10.642,2.588,3.69,7.044-6.515,10.568-11.489,11.622a3.669,3.669,0,0,1-1.405.011c-.44,3.028-.88,6.027-1.372,8.93-.677,4.023-6.8,2.315-6.12-1.686.995-5.887,1.845-11.988,2.877-18.06-.1-.018-.2.019-.307-.007a20.428,20.428,0,0,1-11.126-7.455C130.914,366.1,128.906,360.9,133.236,358.34Z" transform="translate(-130.69 -310.977)" fill="#0088c5"/></g><g transform="translate(43.383 82.95)"><path d="M157.345,367.709c-.081-3.073-.229-6.142-.063-9.207-2.936-.521-5.75-1.49-7.795-3.864a9.146,9.146,0,0,1-1.339-10.021,7.959,7.959,0,0,1,9.159-3.716,8.736,8.736,0,0,1,2.248,1.047c.514-2.437.917-4.881,1.6-7.314.041-.152.14-.233.192-.373-1.69-3.757-2.3-8.039-.518-11.888,1.793-3.875,5.776-6.863,10.228-5.672,4.178,1.12,6.386,5.491,6.079,9.577-.318,4.186-3.276,7.051-6.39,9.488a4.525,4.525,0,0,1-.777,1.276v.026c-.584,2.063-.924,4.134-1.379,6.2,4.848-1.882,10.938-2.507,11.629,3.757.747,6.734-8.4,11.237-13.863,12.117h-.037a102.266,102.266,0,0,0,.067,11.563c4.988-2.71,11.463-3.491,14.2,2.892a8.158,8.158,0,0,1-1.568,8.682c-2.474,2.84-6.253,3.162-8.867,5.628a4.208,4.208,0,0,1-4.053,1.08,5.3,5.3,0,0,1-1.586.651,4.292,4.292,0,0,1-3.6.57c-7.562-1.927-16.529-9.733-12.617-18.4A7.291,7.291,0,0,1,157.345,367.709Z" transform="translate(-147.211 -316.434)" fill="#0088c5"/></g><g transform="translate(15.956 146.786)"><path d="M162.963,432.324l47.183-.2a15.878,15.878,0,0,0,15.712-14.14l9.278-84.282-97.742.429,9.732,84.145A15.872,15.872,0,0,0,162.963,432.324Z" transform="translate(-137.393 -333.698)" fill="#f88"/></g><g transform="translate(13.183 142.589)"><path d="M140.87,341.386l94.873-.41a4.213,4.213,0,0,0,4.189-4.227h0a4.207,4.207,0,0,0-4.226-4.186l-94.873.414a4.21,4.21,0,0,0-4.19,4.223h0A4.207,4.207,0,0,0,140.87,341.386Z" transform="translate(-136.643 -332.563)" fill="#e55773"/></g></g></g></g></g></g></g><g transform="translate(-1584 7986.318)"><g transform="translate(2013.697 5796)"><path d="M162.937,0A162.938,162.938,0,1,1,0,162.938,162.936,162.936,0,0,1,162.937,0Z" transform="matrix(0.978, -0.206, 0.206, 0.978, 0, 67.256)" fill="#f2d043"/><path d="M815.881,520.274a145.844,145.844,0,0,0,145.812,145.87,140.356,140.356,0,0,0,20.56-1.468A145.862,145.862,0,0,0,1107.314,528.5c.147-2.743.236-5.487.236-8.23A145.858,145.858,0,0,0,961.693,374.415c-1.614,0-3.218.045-4.821.09a145.015,145.015,0,0,0-80.737,27.6,148.616,148.616,0,0,0-22.681,20.469,144.716,144.716,0,0,0-35.6,73.827A142.145,142.145,0,0,0,815.881,520.274Z" transform="translate(-768.655 -327.232)" fill="#f2d043" style="mix-blend-mode:multiply;isolation:isolate"/><path d="M132.865,0A132.865,132.865,0,1,1,0,132.865,132.864,132.864,0,0,1,132.865,0Z" transform="translate(23.917 111.217) rotate(-19.18)" fill="#f2d043" style="mix-blend-mode:multiply;isolation:isolate"/><g transform="translate(62.095 60.188)" opacity="0.46" style="mix-blend-mode:screen;isolation:isolate"><path d="M821.9,400.722,1005.625,588.75a132.043,132.043,0,0,0,26.87-72.89L895.444,375.567A132.089,132.089,0,0,0,821.9,400.722Z" transform="translate(-768.813 -375.567)" fill="#f2d043"/><path d="M817.2,446.7,966.951,599.99a131.791,131.791,0,0,0,67.944-30.834L849.611,379.446A131.778,131.778,0,0,0,817.2,446.7Z" transform="translate(-817.197 -335.651)" fill="#f2d043"/></g></g><g transform="translate(2139.085 5910.164)"><path d="M935.236,538.135l37.559-39.447-37.559-39.447,37.559-39.447h0l-37.559-39.447H822.8V538.135Z" transform="translate(-822.803 -380.347)" fill="#fff"/><path d="M846.482,380.37l-18.7,39.161,56.262,39.478Z" transform="translate(-771.607 -380.115)" fill="#fff" style="isolation:isolate"/><path d="M884.082,387.335l-56.307,39.511,18.749,39.383Z" transform="translate(-771.649 -308.441)" fill="#fff" style="isolation:isolate"/><path d="M822.8,387.335v78.894l56.126-39.383L860.12,387.335Z" transform="translate(-822.803 -308.441)" fill="#fff" style="isolation:isolate"/><path d="M826.109,387.335l18.809,39.511,56.307-39.511Z" transform="translate(-788.793 -308.441)" fill="#fff" opacity="0.2" style="isolation:isolate"/><path d="M826.109,387.335l18.809,39.511,56.307-39.511Z" transform="translate(-788.793 -308.441)" fill="#fff" style="isolation:isolate"/><path d="M878.974,419.763,822.8,380.347v78.894H860.12Z" transform="translate(-822.803 -380.347)" fill="#fff" style="isolation:isolate"/><path d="M901.225,423.317l-56.262-39.478-18.854,39.478Z" transform="translate(-788.793 -344.423)" fill="#fff" opacity="0.2" style="isolation:isolate"/><path d="M901.225,423.317l-56.262-39.478-18.854,39.478Z" transform="translate(-788.793 -344.423)" fill="#fff" style="isolation:isolate"/><path d="M935.236,538.135l37.559-39.447-37.559-39.447,37.559-39.447h0l-37.559-39.447H822.8V538.135Z" transform="translate(-822.803 -380.347)" fill="#fff"/><path d="M826.108,459.009l37.559-78.639,37.559,78.639L863.667,537.9Z" transform="translate(-788.792 -380.115)" fill="#fff" opacity="0.2" style="isolation:isolate"/><path d="M822.8,466.229V387.335H935.236Z" transform="translate(-822.803 -308.441)" fill="#fff" opacity="0.3" style="isolation:isolate"/><path d="M822.8,380.347v78.894H935.236Z" transform="translate(-822.803 -380.347)" fill="#fff" opacity="0.5" style="isolation:isolate"/></g></g></g></svg>