<svg xmlns="http://www.w3.org/2000/svg" width="58" height="56" viewBox="0 0 58 56"><g transform="translate(-827 -4429)"><ellipse cx="29" cy="28" rx="29" ry="28" transform="translate(827 4429)" fill="#edf4f8"/><path d="M30.312,5.565,32.941,3.05V2.5H23.835L17.346,18.652,9.963,2.5H.416v.55l3.07,3.7A1.288,1.288,0,0,1,3.9,7.821V22.347a1.656,1.656,0,0,1-.443,1.441L0,27.98v.544H9.807v-.55L6.348,23.788a1.708,1.708,0,0,1-.476-1.441V9.783L14.48,28.53h1l7.4-18.747V24.717c0,.394,0,.475-.258.733l-2.663,2.576v.552H32.88v-.55l-2.567-2.513a.763.763,0,0,1-.294-.733V6.3a.76.76,0,0,1,.292-.733Z" transform="translate(840 4441.5)" fill="#1d44f9"/></g></svg>