<svg xmlns="http://www.w3.org/2000/svg" width="257" height="257" viewBox="0 0 257 257">
  <g id="money-icon" transform="translate(-325 -9970)">
    <g id="Ellipse_137" data-name="Ellipse 137" transform="translate(325 9970)" fill="#fff" stroke="#0086ca" stroke-width="4">
      <circle cx="128.5" cy="128.5" r="128.5" stroke="none"/>
      <circle cx="128.5" cy="128.5" r="126.5" fill="none"/>
    </g>
    <g id="Group_1050" data-name="Group 1050" transform="translate(-103.889 -57.672)">
      <path id="Path_669" data-name="Path 669" d="M351.231,1711.859l.976.243-.976.244a15.913,15.913,0,0,0-11.574,11.577l-.248.97-.241-.97a15.913,15.913,0,0,0-11.574-11.577l-.97-.244.97-.243a15.919,15.919,0,0,0,11.574-11.572l.241-.978.248.978a15.919,15.919,0,0,0,11.574,11.572" transform="translate(298.378 8441.323)" fill="#ffbe1b"/>
      <path id="Path_670" data-name="Path 670" d="M311.359,1740.4l1.177.292-1.177.3a19.194,19.194,0,0,0-13.955,13.952l-.3,1.177-.292-1.177a19.188,19.188,0,0,0-13.96-13.952l-1.167-.3,1.167-.292a19.188,19.188,0,0,0,13.96-13.952l.292-1.175.3,1.175a19.194,19.194,0,0,0,13.955,13.952" transform="translate(227.039 8482.542)" fill="#2d3561"/>
      <path id="Path_671" data-name="Path 671" d="M297.512,1687.793l1.087.267-1.087.274a17.725,17.725,0,0,0-12.889,12.891l-.272,1.082-.274-1.082a17.733,17.733,0,0,0-12.891-12.891l-1.082-.274,1.082-.267a17.736,17.736,0,0,0,12.891-12.894l.274-1.082.272,1.082a17.728,17.728,0,0,0,12.889,12.894" transform="translate(208.652 8400.854)" fill="#5d8ef9"/>
      <path id="Path_672" data-name="Path 672" d="M300.764,1687.659l.691.176-.691.171a11.3,11.3,0,0,0-8.223,8.223l-.173.694-.176-.694a11.3,11.3,0,0,0-8.228-8.223l-.686-.171.686-.176a11.318,11.318,0,0,0,8.228-8.223l.176-.693.173.693a11.324,11.324,0,0,0,8.223,8.223" transform="translate(229.563 8408.671)" fill="#5d8ef9"/>
      <g id="Group_364" data-name="Group 364" transform="translate(464.889 10099.462)">
        <g id="Group_362" data-name="Group 362" transform="translate(0 0)">
          <g id="Group_360" data-name="Group 360">
            <rect id="Rectangle_39" data-name="Rectangle 39" width="135.018" height="68.927" transform="translate(4.093 24.303) rotate(-8.717)" fill="#8ac9f9"/>
            <path id="Path_673" data-name="Path 673" d="M395.372,1683.529l-121.033,18.558a11.32,11.32,0,0,0-9.463,12.884l8.451,55.11a11.317,11.317,0,0,0,12.881,9.463l121.036-18.558A11.312,11.312,0,0,0,416.7,1748.1l-8.446-55.113A11.322,11.322,0,0,0,395.372,1683.529Zm-3.506,72.548-92.456,14.172a22.462,22.462,0,0,0-21.172-15.541l-4.068-26.538A22.463,22.463,0,0,0,289.717,1707l92.456-14.177a22.458,22.458,0,0,0,21.171,15.546l4.068,26.533A22.464,22.464,0,0,0,391.866,1756.076Z" transform="translate(-264.746 -1683.399)" fill="#5d8ef9"/>
          </g>
          <rect id="Rectangle_40" data-name="Rectangle 40" width="135.02" height="68.924" transform="translate(13.868 28.341)" fill="#516ade"/>
          <path id="Path_674" data-name="Path 674" d="M335.813,1722.733a24.553,24.553,0,1,1-24.553-24.551A24.553,24.553,0,0,1,335.813,1722.733Z" transform="translate(-229.882 -1659.929)" fill="#1d44f9"/>
          <path id="Path_675" data-name="Path 675" d="M401.913,1692.527H279.469a11.317,11.317,0,0,0-11.3,11.3v55.757a11.312,11.312,0,0,0,11.3,11.3H401.913a11.312,11.312,0,0,0,11.3-11.3V1703.83A11.317,11.317,0,0,0,401.913,1692.527Zm-14.454,71.179H293.924a22.463,22.463,0,0,0-18.568-18.574v-26.846a22.46,22.46,0,0,0,18.568-18.571h93.535a22.466,22.466,0,0,0,18.574,18.571v26.846A22.468,22.468,0,0,0,387.459,1763.706Z" transform="translate(-259.314 -1668.907)" fill="#1d44f9"/>
          <g id="Group_361" data-name="Group 361" transform="translate(70.202 45.519)">
            <path id="Path_676" data-name="Path 676" d="M302.13,1735.56v-3.043a18.106,18.106,0,0,1-10.255-4.549l3.043-3.628a14.459,14.459,0,0,0,7.212,3.628v-8.086a17.1,17.1,0,0,1-6.9-2.96,6.7,6.7,0,0,1-2.187-5.444,7.614,7.614,0,0,1,2.52-5.9,10.241,10.241,0,0,1,6.565-2.5v-2.083h2.676v2.122a17.5,17.5,0,0,1,8.674,3.131l-2.709,3.834a13.553,13.553,0,0,0-5.964-2.417v7.841h.119a17.006,17.006,0,0,1,7.051,3.04,6.923,6.923,0,0,1,2.256,5.571,7.573,7.573,0,0,1-2.588,5.944,10.743,10.743,0,0,1-6.839,2.5v3Zm-2.934-26.918a3,3,0,0,0-1.069,2.336,2.939,2.939,0,0,0,.836,2.208,8.434,8.434,0,0,0,3.167,1.568v-7.217A4.97,4.97,0,0,0,299.2,1708.641Zm8.777,18.286a3.219,3.219,0,0,0,.248-4.733,9.08,9.08,0,0,0-3.416-1.6v7.5A5.8,5.8,0,0,0,307.973,1726.928Z" transform="translate(-291.876 -1700.99)" fill="#fff"/>
          </g>
        </g>
        <g id="Group_363" data-name="Group 363" transform="translate(108.112 66.649)">
          <path id="Path_677" data-name="Path 677" d="M306.527,1725.442v-2.1c0-2.725,2.624-4.939,5.853-4.939H357.2c3.234,0,5.858,2.215,5.858,4.939v2.1c0,2.725-2.624,4.932-5.858,4.932H312.38c-3.229,0-5.853-2.207-5.853-4.932" transform="translate(-306.527 -1694.471)" fill="#ffbe1b"/>
          <path id="Path_678" data-name="Path 678" d="M306.527,1720.816v-2.1c0-2.725,2.624-4.939,5.853-4.939H357.2c3.234,0,5.858,2.215,5.858,4.939v2.1c0,2.725-2.624,4.932-5.858,4.932H312.38c-3.229,0-5.853-2.207-5.853-4.932" transform="translate(-306.527 -1701.813)" fill="#ffca45"/>
          <path id="Path_679" data-name="Path 679" d="M306.527,1716.191v-2.1c0-2.729,2.624-4.939,5.853-4.939H357.2c3.234,0,5.858,2.21,5.858,4.939v2.1c0,2.725-2.624,4.932-5.858,4.932H312.38c-3.229,0-5.853-2.207-5.853-4.932" transform="translate(-306.527 -1709.156)" fill="#ffe37b"/>
        </g>
      </g>
    </g>
  </g>
</svg>
