<svg xmlns="http://www.w3.org/2000/svg" width="257" height="257" viewBox="0 0 257 257">
  <g id="nex-icon" transform="translate(-322 -9970)">
    <g id="Ellipse_137" data-name="Ellipse 137" transform="translate(322 9970)" fill="#fff" stroke="#0086ca" stroke-width="4">
      <circle cx="128.5" cy="128.5" r="128.5" stroke="none"/>
      <circle cx="128.5" cy="128.5" r="126.5" fill="none"/>
    </g>
    <g id="Group_1051" data-name="Group 1051" transform="translate(21.383 -51.791)">
      <g id="Group_697" data-name="Group 697" transform="translate(459.664 10082.397)">
        <path id="Path_1430" data-name="Path 1430" d="M606.542,2477.08V2373.816a10.086,10.086,0,0,0-10.083-10.083h-24.04a10.086,10.086,0,0,0-10.083,10.083v7.292h-13.6l13.6,13.836v82.134a10.084,10.084,0,0,0,10.083,10.079h24.04A10.084,10.084,0,0,0,606.542,2477.08Z" transform="translate(-548.732 -2363.734)" fill="#1d44f9"/>
        <text id="N_E_X_T" data-name="N
E
X
T" transform="translate(36.336 27.053)" fill="#ffbe1b" font-size="22" font-family="OpenSans-Extrabold, Open Sans" font-weight="800"><tspan x="-9.174" y="0">N</tspan><tspan x="-6.037" y="29">E</tspan><tspan x="-7.955" y="58">X</tspan><tspan x="-6.499" y="87">T</tspan></text>
      </g>
      <g id="Group_698" data-name="Group 698" transform="translate(372.488 10069.2)">
        <path id="Path_1435" data-name="Path 1435" d="M618.2,2418.074a9,9,0,0,0-11.763,2.457l-11.311,15.424a1.973,1.973,0,0,1-3.559-1.25l2.44-59.931a8.455,8.455,0,1,0-16.893-.752L574.382,2426a.821.821,0,0,1-.811.779l-.024.005a.826.826,0,0,1-.832-.822v-58.414a8.646,8.646,0,0,0-8.306-8.742,8.461,8.461,0,0,0-8.617,8.462v58.958a.822.822,0,0,1-1.643.037l-2.031-46.614a8.455,8.455,0,0,0-16.9.61l2.012,46.2a.816.816,0,0,1-.806.851l-.062.005a.824.824,0,0,1-.821-.693l-2.518-22.622a8.445,8.445,0,1,0-16.855,1.079l6.443,58.23a39.815,39.815,0,0,0,11.761,22.416v18.8h51.992v-15.25a42.991,42.991,0,0,0,16.074-20.754c.482-1.316,12.836-25.848,19.274-38.608A8.988,8.988,0,0,0,618.2,2418.074Z" transform="translate(-516.153 -2358.802)" fill="#8ac9f9"/>
      </g>
      <path id="Rectangle_76" data-name="Rectangle 76" d="M1.537,0H65.012a1.535,1.535,0,0,1,1.535,1.535v20.72a1.535,1.535,0,0,1-1.535,1.535H1.537A1.537,1.537,0,0,1,0,22.253V1.537A1.537,1.537,0,0,1,1.537,0Z" transform="translate(383.423 10207.73)" fill="#ffbe1b"/>
      <path id="Path_1437" data-name="Path 1437" d="M579.526,2427.874l1.218.3-1.218.3a19.923,19.923,0,0,0-14.482,14.481l-.308,1.218-.3-1.218a19.93,19.93,0,0,0-14.485-14.481l-1.218-.3,1.218-.3a19.933,19.933,0,0,0,14.485-14.488l.3-1.212.308,1.212a19.926,19.926,0,0,0,14.482,14.488" transform="translate(-89.068 7799.844)" fill="#ffbe1b"/>
      <path id="Path_1438" data-name="Path 1438" d="M569.4,2364.112l.8.206-.8.2a13.1,13.1,0,0,0-9.524,9.526l-.2.8-.2-.8a13.1,13.1,0,0,0-9.523-9.526l-.8-.2.8-.206a13.093,13.093,0,0,0,9.523-9.521l.2-.8.2.8a13.093,13.093,0,0,0,9.524,9.521" transform="translate(-88.364 7702)" fill="#1d44f9"/>
      <path id="Path_1439" data-name="Path 1439" d="M533.881,2376.561l1,.251-1,.249a16.321,16.321,0,0,0-11.865,11.865l-.246.993-.254-.993a16.3,16.3,0,0,0-11.854-11.865l-1-.249,1-.251a16.291,16.291,0,0,0,11.854-11.859l.254-1,.246,1a16.314,16.314,0,0,0,11.865,11.859" transform="translate(-156.218 7718.611)" fill="#5d8ef9"/>
      <path id="Path_1440" data-name="Path 1440" d="M519.514,2382.039l.583.147-.583.147a9.656,9.656,0,0,0-7.011,7l-.145.588-.147-.588a9.654,9.654,0,0,0-7-7l-.591-.147.591-.147a9.646,9.646,0,0,0,7-7l.147-.591.145.591a9.648,9.648,0,0,0,7.011,7" transform="translate(-163 7736.614)" fill="#5d8ef9"/>
    </g>
  </g>
</svg>
