<svg xmlns="http://www.w3.org/2000/svg" width="60.416" height="57.999" viewBox="0 0 60.416 57.999"><path d="M11.583,17.641a12.934,12.934,0,0,0,2.243-1.25c2.439-1.775,4.115-5.235,7.045-6.186,2.827-.918,6.2.866,9.337.866s6.51-1.784,9.337-.866c2.93.951,4.607,4.412,7.045,6.186,2.463,1.792,6.266,2.33,8.058,4.793,1.775,2.439,1.123,6.212,2.074,9.142.918,2.827,3.694,5.483,3.694,8.615s-2.776,5.788-3.694,8.615c-.951,2.93-.3,6.7-2.074,9.142-1.792,2.463-5.6,3-8.058,4.793-2.439,1.775-4.115,5.235-7.045,6.186-2.827.918-6.2-.866-9.337-.866s-6.51,1.784-9.337.866c-2.93-.951-4.607-4.412-7.045-6.186C11.363,59.7,7.56,59.162,5.768,56.7c-1.775-2.439-1.123-6.212-2.074-9.142C2.776,44.73,0,42.074,0,38.941s2.776-5.788,3.694-8.615c.951-2.93.3-6.7,2.074-9.142a6.833,6.833,0,0,1,2.192-1.856" transform="translate(0 -9.942)" fill="#0086ca"/><g transform="translate(5.72 5.491)"><path d="M96.031,78.621c0,2.539-2.25,4.692-2.994,6.984-.771,2.375-.243,5.434-1.681,7.411-1.453,2-4.536,2.432-6.532,3.886-1.977,1.439-3.336,4.244-5.711,5.015-2.291.744-5.03-.7-7.569-.7s-5.278,1.446-7.569.7c-2.375-.771-3.734-3.576-5.711-5.015-2-1.453-5.079-1.889-6.532-3.886-1.439-1.977-.91-5.036-1.681-7.411-.744-2.291-2.994-4.444-2.994-6.984s2.25-4.692,2.994-6.984c.771-2.375.243-5.434,1.681-7.411,1.453-2,4.536-2.432,6.532-3.886C60.24,58.9,61.6,56.1,63.974,55.326c2.291-.744,5.03.7,7.569.7s5.278-1.446,7.569-.7c2.375.771,3.734,3.576,5.711,5.015,2,1.453,5.079,1.889,6.532,3.886,1.439,1.977.91,5.036,1.681,7.411C93.78,73.929,96.031,76.082,96.031,78.621Z" transform="translate(-47.055 -55.113)" fill="#0086ca"/></g><g transform="translate(35.718 0)"><path d="M314.835,30.328c-.951-2.93-.3-6.7-2.074-9.142-1.792-2.463-5.6-3-8.058-4.793-2.439-1.775-4.115-5.235-7.045-6.186a7.86,7.86,0,0,0-3.826-.053c.06.017.12.033.179.053,2.93.951,4.607,4.412,7.045,6.186,2.463,1.792,6.266,2.33,8.058,4.793,1.775,2.439,1.123,6.212,2.074,9.142.918,2.827,3.694,5.483,3.694,8.615s-2.776,5.788-3.694,8.615c-.951,2.93-.3,6.7-2.074,9.142-1.792,2.463-5.6,3-8.058,4.793-2.438,1.775-4.115,5.235-7.045,6.186-.059.019-.12.036-.18.053a7.861,7.861,0,0,0,3.826-.053c2.93-.951,4.607-4.412,7.045-6.186,2.463-1.792,6.266-2.33,8.058-4.793,1.775-2.439,1.123-6.212,2.074-9.142.918-2.827,3.694-5.483,3.694-8.615S315.753,33.155,314.835,30.328Z" transform="translate(-293.832 -9.944)" fill="#0086ca"/></g><g transform="translate(34.243 5.491)"><path d="M299.15,71.639c-.771-2.375-.243-5.434-1.681-7.411-1.453-2-4.536-2.433-6.532-3.885-1.977-1.439-3.336-4.244-5.711-5.015a6.991,6.991,0,0,0-3.534.04c2.305.822,3.653,3.559,5.6,4.975,2,1.453,5.079,1.889,6.532,3.885,1.439,1.977.91,5.036,1.681,7.411.744,2.291,2.994,4.444,2.994,6.984s-2.25,4.692-2.994,6.984c-.771,2.375-.243,5.434-1.681,7.411-1.453,2-4.536,2.433-6.532,3.886-1.945,1.416-3.293,4.153-5.6,4.975a6.993,6.993,0,0,0,3.534.04c2.375-.771,3.734-3.576,5.711-5.015,2-1.453,5.079-1.889,6.532-3.886,1.439-1.977.91-5.036,1.681-7.411.744-2.291,2.994-4.444,2.994-6.984S299.894,73.93,299.15,71.639Z" transform="translate(-281.691 -55.114)" fill="#0086ca"/></g><g transform="translate(19.015 20.664)"><path d="M161.4,198.064l-4.526-5.446a1.935,1.935,0,0,1,.251-2.725l1.269-1.055a1.935,1.935,0,0,1,2.725.251l2.28,2.744a1.425,1.425,0,0,0,2.128.072l11.657-11.374a1.935,1.935,0,0,1,2.736-.066l1.195,1.138a1.935,1.935,0,0,1,.066,2.736L167.1,198.257A3.818,3.818,0,0,1,161.4,198.064Z" transform="translate(-156.423 -179.932)" fill="#fff"/></g><g transform="translate(25.1 20.664)"><path d="M225.081,181.6l-1.195-1.138a1.935,1.935,0,0,0-2.736.066l-.416.406.7.666a1.935,1.935,0,0,1,.066,2.736L207.42,198.258a3.815,3.815,0,0,1-.942.722,3.82,3.82,0,0,0,4.589-.722l14.081-13.918A1.935,1.935,0,0,0,225.081,181.6Z" transform="translate(-206.478 -179.932)" fill="#f7fcff"/></g></svg>