<svg xmlns="http://www.w3.org/2000/svg" xmlns:xlink="http://www.w3.org/1999/xlink" width="1963.498" height="1525.129" viewBox="0 0 1963.498 1525.129"><defs><linearGradient id="a" x1="0.89" y1="-2.096" x2="0.201" y2="1.605" gradientUnits="objectBoundingBox"><stop offset="0" stop-color="#0078be"/><stop offset="1" stop-color="#14c2f3"/></linearGradient></defs><g transform="translate(43.578 -22311.5)"><g transform="translate(1466.391 22311.5)"><path d="M1525.129,0a906.905,906.905,0,0,0-230.89,199.441C1029.242,520.631,582.5,551.714,287.2,209.807,208.9,119.155,107.194,51.1,0,0Z" transform="translate(453.528) rotate(90)" fill="url(#a)"/></g><path d="M0,805.614C0,513.2-203.813,409.256-345.793,341.436c-160.482-76.659-44.786-603.952-540.358-215.526-36.031,31.265,54.042,55.374,0,215.526-22.739,0,18.86,434.775,18.86,464.179V970.835c63.671-8.27-70.789,263.028,0,184.828,149.171-164.761,68.116-109.91,332.266-33.554C-433.025,1151.6-10.076,1211.131,0,805.614Z" transform="translate(851.352 22456.244)" fill="#53d9de" opacity="0.103"/></g></svg>