<svg xmlns="http://www.w3.org/2000/svg" width="58" height="56" viewBox="0 0 58 56"><g transform="translate(-827 -4429)"><ellipse cx="29" cy="28" rx="29" ry="28" transform="translate(827 4429)" fill="#edf4f8"/><path d="M31.1,13.345a3.9,3.9,0,0,0-2.794,1.19A18.76,18.76,0,0,0,18.19,11.369l2.043-9.342,6.506,1.482a2.919,2.919,0,0,0,2.89,2.936,2.973,2.973,0,1,0-2.6-4.3L19.841.531a.688.688,0,0,0-.812.532l-2.243,10.3a18.992,18.992,0,0,0-10.055,3.2A3.9,3.9,0,0,0,3.9,13.345a3.948,3.948,0,0,0-1.689,7.493,8.5,8.5,0,0,0-.192,1.849c0,6.272,6.964,11.355,15.514,11.355,8.587,0,15.55-5.082,15.55-11.355a7.27,7.27,0,0,0-.228-1.88A3.95,3.95,0,0,0,31.1,13.345ZM8.168,21.235A2.91,2.91,0,1,1,11.1,24.17a2.939,2.939,0,0,1-2.928-2.936Zm15.807,7c-2.685,2.724-10.261,2.724-12.947,0A.707.707,0,1,1,12,27.206c2.05,2.134,8.852,2.17,10.991,0a.71.71,0,0,1,.981,1.025Zm-.06-4.056a2.952,2.952,0,1,1,2.928-2.933A2.917,2.917,0,0,1,23.915,24.176Z" transform="translate(839 4439.5)" fill="#1d44f9"/></g></svg>