<svg xmlns="http://www.w3.org/2000/svg" width="58" height="56" viewBox="0 0 58 56"><g transform="translate(-827 -4429)"><ellipse cx="29" cy="28" rx="29" ry="28" transform="translate(827 4429)" fill="#edf4f8"/><path d="M11.443,18.016,10.96,24.8a1.687,1.687,0,0,0,1.348-.653l3.236-3.092,6.7,4.91c1.23.685,2.1.324,2.428-1.131l4.4-20.623h0c.39-1.818-.657-2.529-1.855-2.083l-25.87,9.9c-1.766.685-1.739,1.67-.3,2.115l6.614,2.057L23.03,6.593c.723-.479,1.38-.214.84.265Z" transform="translate(841 4443)" fill="#1d44f9"/></g></svg>