<svg xmlns="http://www.w3.org/2000/svg" width="58" height="56" viewBox="0 0 58 56"><g transform="translate(-827 -4429)"><ellipse cx="29" cy="28" rx="29" ry="28" transform="translate(827 4429)" fill="#edf4f8"/><path d="M30.506,50.934a13.039,13.039,0,0,1-3.6.988,6.219,6.219,0,0,0,2.751-3.457,12.5,12.5,0,0,1-3.966,1.514A6.254,6.254,0,0,0,14.87,54.256a6.44,6.44,0,0,0,.145,1.426A17.7,17.7,0,0,1,2.124,49.14,6.256,6.256,0,0,0,4.046,57.5a6.176,6.176,0,0,1-2.826-.77V56.8a6.283,6.283,0,0,0,5.011,6.145,6.242,6.242,0,0,1-1.64.206,5.53,5.53,0,0,1-1.184-.107A6.313,6.313,0,0,0,9.251,67.4,12.566,12.566,0,0,1,1.5,70.065,11.713,11.713,0,0,1,0,69.979a17.607,17.607,0,0,0,9.594,2.807c11.508,0,17.8-9.533,17.8-17.8,0-.276-.01-.543-.023-.808A12.476,12.476,0,0,0,30.506,50.934Z" transform="translate(841 4397)" fill="#1d44f9"/></g></svg>