<svg xmlns="http://www.w3.org/2000/svg" width="1495.364" height="1385.77" viewBox="0 0 1495.364 1385.77"><g transform="translate(502.006 -29204.205)"><path d="M0,426C0,651.7-203.813,731.932-345.793,784.28c-160.482,59.17-270.716,451.735-766.288,151.925-36.031-24.133-93.254-55.458-147.3-179.073-22.739,0,10.377-517.054,10.377-539.75V0c63.671,6.383,142.855,28.3,213.643,88.657,149.171,127.172,236.182,151.99,500.332,93.054C-433.025,158.952-10.075,113,0,426Z" transform="matrix(0.966, -0.259, 0.259, 0.966, 722.162, 29249.844)" fill="#f7fcff"/><g transform="translate(-4837.186 25396.098) rotate(-30)"><g transform="translate(2013.697 5796)"><path d="M209.027,0C324.469,0,418.053,93.585,418.053,209.028S324.468,418.056,209.026,418.056,0,324.472,0,209.028,93.585,0,209.027,0Z" transform="matrix(0.978, -0.206, 0.206, 0.978, 0, 86.281)" fill="#f2d043"/><path d="M815.881,561.534c0,103.328,83.731,187.133,187.059,187.133a180.059,180.059,0,0,0,26.376-1.883,187.122,187.122,0,0,0,160.437-174.692c.189-3.519.3-7.039.3-10.558,0-103.315-83.746-187.119-187.117-187.119-2.071,0-4.128.058-6.184.116A186.036,186.036,0,0,0,893.18,409.944a190.656,190.656,0,0,0-29.1,26.259,185.652,185.652,0,0,0-45.668,94.711A182.352,182.352,0,0,0,815.881,561.534Z" transform="translate(-755.296 -313.886)" fill="#f2d043" style="mix-blend-mode:multiply;isolation:isolate"/><path d="M170.448,0A170.449,170.449,0,1,1,0,170.449,170.447,170.447,0,0,1,170.448,0Z" transform="translate(30.683 142.678) rotate(-19.18)" fill="#f2d043" style="mix-blend-mode:multiply;isolation:isolate"/><g transform="translate(79.66 77.214)" opacity="0.46" style="mix-blend-mode:screen;isolation:isolate"><path d="M821.9,407.837l235.7,241.217a169.394,169.394,0,0,0,34.471-93.509L916.248,375.567A169.454,169.454,0,0,0,821.9,407.837Z" transform="translate(-753.797 -375.567)" fill="#f2d043"/><path d="M817.2,465.727l192.115,196.649a169.071,169.071,0,0,0,87.164-39.556L858.78,379.446A169.054,169.054,0,0,0,817.2,465.727Z" transform="translate(-817.197 -323.262)" fill="#f2d043"/></g></g><g transform="translate(2174.554 5942.458)"><path d="M967.04,582.769l48.183-50.605L967.04,481.558l48.183-50.605h0L967.04,380.347H822.8V582.769Z" transform="translate(-822.803 -380.347)" fill="#f2d456"/><path d="M851.772,380.37l-23.994,50.238,72.177,50.646Z" transform="translate(-755.718 -380.043)" fill="#f2d456" style="isolation:isolate"/><path d="M900.009,387.335l-72.235,50.687,24.052,50.523Z" transform="translate(-755.772 -286.124)" fill="#f2d456" style="isolation:isolate"/><path d="M822.8,387.335V488.546l72-50.523-24.129-50.687Z" transform="translate(-822.803 -286.124)" fill="#f2d456" style="isolation:isolate"/><path d="M826.109,387.335l24.129,50.687,72.235-50.687Z" transform="translate(-778.237 -286.124)" fill="#f2d456" opacity="0.2" style="isolation:isolate"/><path d="M826.109,387.335l24.129,50.687,72.235-50.687Z" transform="translate(-778.237 -286.124)" fill="#f2d456" style="isolation:isolate"/><path d="M894.863,430.912,822.8,380.347V481.558h47.873Z" transform="translate(-822.803 -380.347)" fill="#f2d456" style="isolation:isolate"/><path d="M922.474,434.484,850.3,383.838l-24.187,50.646Z" transform="translate(-778.237 -333.273)" fill="#f2d456" opacity="0.2" style="isolation:isolate"/><path d="M922.474,434.484,850.3,383.838l-24.187,50.646Z" transform="translate(-778.237 -333.273)" fill="#f2d456" style="isolation:isolate"/><path d="M967.04,582.769l48.183-50.605L967.04,481.558l48.183-50.605h0L967.04,380.347H822.8V582.769Z" transform="translate(-822.803 -380.347)" fill="#f2d456"/><path d="M826.108,481.254,874.291,380.37l48.183,100.884L874.291,582.465Z" transform="translate(-778.237 -380.043)" fill="#f2d456" opacity="0.2" style="isolation:isolate"/><path d="M822.8,488.546V387.335H967.04Z" transform="translate(-822.803 -286.124)" fill="#f2d456" opacity="0.3" style="isolation:isolate"/><path d="M822.8,380.347V481.558H967.04Z" transform="translate(-822.803 -380.347)" fill="#f2d456" opacity="0.5" style="isolation:isolate"/></g></g></g></svg>