<svg xmlns="http://www.w3.org/2000/svg" width="179.437" height="263.362" viewBox="0 0 179.437 263.362"><g transform="translate(-52.235 -234.672)"><g transform="translate(217.211 253.18)"><path d="M124.534,259.179c1.471.41,1.765-.829,2.885-1.514,1.369-.839,6.566-.978,7.412-2.67,1.132-2.257-3.707-.071-3.473-1.62.083-.554,7.578-2.615,4.008-3.932-.789-.291-4.837.715-3.875-.476,1.615-.692,5.453-1.755,4.773-3.375-.322-.763-2.643-.374-3.664.055-5.06,2.139-3.046.232.419-.992,1.8-.633,1.878-1.983-.2-2.148-4.316-.344-8.494,3.788-10.382,7.184C121.637,251.128,121.253,258.265,124.534,259.179Z" transform="translate(-121.883 -242.486)" fill="#ff505c"/><path d="M123.818,248.084c.225-.6.235-1.331.415-1.959a4.761,4.761,0,0,0,.2-2.324c-.31-1.187-1.274-.571-1.739.149-.846,1.319-.791,5-.756,6.5A8.916,8.916,0,0,0,123.818,248.084Z" transform="translate(-121.824 -241.598)" fill="#ff505c"/></g><path d="M55.961,282.582a1.431,1.431,0,0,1-.54-1.454,3.362,3.362,0,0,1-2.478-.379c-.943-.692-.81-1.364-.372-2.165a2.5,2.5,0,0,1,.287-.407c-.062-.045-.123-.069-.185-.116a.794.794,0,0,1-.261-.77c.351-1.447,1.665-2.485,2.826-3.345,3.446-2.556,4.178-4.493,4.29-6.007-1.488.372-1.864.369-2.423,1.144a1.5,1.5,0,0,1-1.469.594,1.039,1.039,0,0,1-.862-1.2c0-.876.938-2.267,1.386-3.039a2.15,2.15,0,0,1,1.6-.995,17.152,17.152,0,0,1,14.39,4.159c.824.831.116,6.76-.173,6.673-.756-.232-3.965-.945-4.965-1.658-1.059,3.856-3.2,7.658-5.453,6.9C59.928,282.526,57.806,284.134,55.961,282.582Z" transform="translate(0 40.403)" fill="#ff505c"/><path d="M121.953,276.932a62.11,62.11,0,0,1-6.123,10.744c-5.751,8.22-15.269,17.775-27.48,15.38-7.649-1.312-23.54-13.919-29.3-18.827A20.348,20.348,0,0,1,56.9,282.3c1.618-.561,3.283-7.48,3.283-7.48.651.279,25.246,11.832,31.18,10.275.479-.135,14.726-24.092,15.849-25.073C118.127,250.666,123.367,272.716,121.953,276.932Z" transform="translate(6.379 31.563)" fill="#ff505c"/><path d="M113.048,271.685c-3.754,1.608-6.3,4.925-9.662,7.232-5.389,3.7-9.721,4.958-16.207,3.323a58.016,58.016,0,0,1-14.16-5.569c-4.5-2.49-8.447-5.832-13.156-7.952a1.2,1.2,0,0,0-1.412.289,1.457,1.457,0,0,0-.647.343c5.761,4.908,21.653,17.514,29.3,18.827,12.211,2.395,21.728-7.161,27.48-15.38A1.216,1.216,0,0,0,113.048,271.685Z" transform="translate(7.623 46.442)" fill="#fc3c4c"/><path d="M109.227,338.143c-.107-1.523-8-7.419-8.371-7.014-1.149,1.241-5.029,6.457-4.787,7.824.232,1.324,7.649,7.942,8.684,6.673C105.65,344.527,109.331,339.612,109.227,338.143Z" transform="translate(59.981 131.997)" fill="#ff505c"/><path d="M100.271,333.511s-6.73,2.108-6.881,8.383c0,0,17.27,16.91,23.223,20.857,0,0,4.579-6.836.341-11.576a100.734,100.734,0,0,0-8.97-8.719S101.167,340.373,100.271,333.511Z" transform="translate(56.33 135.283)" fill="#1f0d52"/><path d="M90.534,298.472c2.43,21.984,35.754,33.75,35.275,43.575-.7,14.421-13.239,61.333-19.938,66.386a13.272,13.272,0,0,0,.912,2.03c2.658,4.8,8.468,9.6,8.468,9.6,12.981-13.741,31.329-44.25,38.845-63.593,11.659-30-29.282-74.238-29.282-74.238-3.657-10.321-25.985-9.008-32.587,4.92A20.638,20.638,0,0,0,90.534,298.472Z" transform="translate(52.21 55.814)" fill="#5f40d5"/><path d="M90.534,294.749c2.43,21.984,35.754,33.75,35.275,43.575-.7,14.421-13.239,61.333-19.938,66.386a13.274,13.274,0,0,0,.912,2.03c7.807-6.208,13.459-14.814,16.823-25.343,1.838-5.787,3.191-11.8,4.678-17.749,1.495-6.04,3.473-12.121,4.273-18.431,1.383-10.7-3.629-20.883-11.187-26.928-10.647-8.52-15.968-19.852-24.855-33.262,2.923-14.418-2.58-1.625-4.287-1.6A20.638,20.638,0,0,0,90.534,294.749Z" transform="translate(52.21 59.537)" fill="#32187c"/><path d="M81.438,339.605c.391-1.476-5.166-9.605-5.652-9.345-1.488.8-6.846,4.482-7.061,5.855-.208,1.329,4.666,9.989,6.059,9.124C75.99,344.492,81.061,341.031,81.438,339.605Z" transform="translate(22.561 130.826)" fill="#ff505c"/><path d="M74.567,331.942s-7.054-.18-9.224,5.711c0,0,10.87,21.584,15.226,27.245,0,0,6.547-4.989,4.069-10.844A100.762,100.762,0,0,0,78.97,342.9S73.2,338.731,74.567,331.942Z" transform="translate(17.941 133.135)" fill="#1f0d52"/><path d="M91.5,293.576c-4.811,21.589,22.915,43.5,19.286,52.64-5.332,13.421-32.369,53.758-40.342,56.368a13.512,13.512,0,0,0,.206,2.22c.962,5.4,4.908,11.825,4.908,11.825,16.723-8.8,43.959-31.738,57.326-47.609,20.736-24.613-3.7-79.722-3.7-79.722-.118-10.946-21.671-16.927-32.423-5.884A20.636,20.636,0,0,0,91.5,293.576Z" transform="translate(24.93 58.67)" fill="#5f40d5"/><path d="M91.5,290.18c-4.811,21.589,22.915,43.5,19.286,52.64-5.332,13.421-32.369,53.758-40.342,56.368a13.511,13.511,0,0,0,.206,2.22c9.394-3.349,17.526-9.664,24.116-18.545,3.61-4.877,6.838-10.133,10.169-15.278,3.368-5.233,7.206-10.344,10-16.058,4.771-9.674,1.341-17.289-3.852-25.454-7.322-11.507-15.9-25.914-10.759-40.865a1.192,1.192,0,0,0,.9-1.957,9.293,9.293,0,0,0-4.465-3.233A20.636,20.636,0,0,0,91.5,290.18Z" transform="translate(24.93 62.066)" fill="#32187c"/><path d="M107.8,290.293a62.1,62.1,0,0,0,11.784,3.754c9.8,2.151,23.273,2.731,30.63-7.3,4.737-6.147,7.888-26.186,8.8-33.7a20.4,20.4,0,0,0,.277-2.873c-1.57.682-7.483-3.278-7.483-3.278-.291.647-10.553,25.807-15.97,28.681-.445.225-27.155-7.746-28.647-7.7C92.819,268.38,103.9,288.149,107.8,290.293Z" transform="translate(65.43 16.727)" fill="#ff505c"/><path d="M108.449,290.493c9.8,2.151,23.273,2.731,30.63-7.3,4.737-6.147,7.888-26.186,8.8-33.7a1.469,1.469,0,0,0-.706.185,1.2,1.2,0,0,0-1.234.746c-2.03,4.747-2.67,9.885-4.292,14.76A58.161,58.161,0,0,1,135,278.872c-3.662,5.595-7.708,7.6-14.174,8.534-4.036.585-8.156-.133-12,1.229A1.21,1.21,0,0,0,108.449,290.493Z" transform="translate(76.565 20.282)" fill="#fc3c4c"/><path d="M76.815,266.207c1.871,8.407,14.513,14.539,22.013,9.359,4.678-3.229,6.751-9.281,6.867-14.741.064-2.985-.711-6.085-.118-9.041,1.149-5.746,4.655-5.855,7.672-9.392a1.179,1.179,0,0,0,.156-.287,1.069,1.069,0,0,0,.258-1.331c-2.641-5.365-12.028-8.054-16.979-4.47-3.127,2.265-4.628,6.168-5.386,9.8a74.318,74.318,0,0,0-.893,8.968c-.18,2.106-.3,5.223-1.2,7-2.407,4.749-8.087,3.233-10.572,2.93C77.791,264.582,76.573,265.11,76.815,266.207Z" transform="translate(33.6 0)" fill="#ffe49b"/><path d="M103.008,272.505c.59,3.4,6.142,7.251,11.368,11.159.8.595,1.6,1.189,2.35,1.784a41.126,41.126,0,0,1,4.586,4.022c7.165-4.034,10.117-14.02,8.58-26.89-6.765-6.547-15.785-9.714-24.014-10.863-1.118-.182-2.189-.3-3.257-.386a52.683,52.683,0,0,0-7.587-.1C86.4,251.727,102.245,268.118,103.008,272.505Z" transform="translate(55.064 22.541)" fill="#f88"/><path d="M97.087,252.351c.876.734,1.75,1.516,2.625,2.3,7.462,7.781,10.171,17.593,4.749,28.167.8.595,13.926-12.073,13.656-15.977-.995-14.461-16.411-14.591-16.877-15.053-1.116-.182-3.373-.474-4.441-.564A.952.952,0,0,0,97.087,252.351Z" transform="translate(60.885 22.651)" fill="#e55773"/><path d="M77.4,329.023a44.717,44.717,0,0,0,12.865,4.6c26.622,5.33,61.419-7.556,61.419-7.556s-7.651-11.559-14.07-23.711c-.616-1.113-1.184-2.227-1.751-3.364-2.821-5.593-2.205-9.262-.5-12.531,2.319-4.5,6.7-8.2,6.985-15.041.474-11.82-24.706-21.7-24.706-21.7-37.755-2.25-28.827,19.9-25.227,37.829.332,1.634.618,3.221.808,4.761.045.332.069.687.095,1.019.045.45.069.876.092,1.326C94.1,312.3,77.4,329.023,77.4,329.023Z" transform="translate(34.445 20.376)" fill="#f88"/><path d="M77.4,307.742a44.716,44.716,0,0,0,12.865,4.6c1.987-2.961,3.124-8.693,4.167-11.322,1.942-5,3.837-10,4.124-15.4.306-6.135-1.116-12.152.827-18.144a4.469,4.469,0,0,1,.379-.545c.924-1.208-1.042-2.558-1.966-1.35-1.587,2.082-3.079,4.264-4.475,6.467.045.45.069.876.092,1.327C94.1,291.019,77.4,307.742,77.4,307.742Z" transform="translate(34.445 41.657)" fill="#e55773"/><path d="M93.409,278.327c-1.826,3.29-5.474,8.734-8.67,11.152-.024-.782-.1-1.563-.192-2.345-.19-1.54-.474-3.127-.8-4.761a25,25,0,0,1,5.235-6.609c6.867-6.493,6.275-22.432,6.275-22.432C96.818,261.289,96.062,273.445,93.409,278.327Z" transform="translate(43.128 25.54)" fill="#e55773"/><path d="M101.622,249.774v6.68s1.8,3.295,0,3.653c-3.946.791-9.645-5.368-9.645-5.368v-8.963Z" transform="translate(54.396 15.198)" fill="#ff505c"/><path d="M91.977,251.126v-5.1s4.908,4.688,9.645,4.955C101.622,250.981,95.914,253.753,91.977,251.126Z" transform="translate(54.396 15.54)" fill="#fc3c4c"/><path d="M106.376,239.234s3.553,7.206,4.441,13.916c.632,4.766-8.092,11.055-15.2,4.344s-5.133-16.977-5.133-16.977Z" transform="translate(52.011 6.244)" fill="#ff505c"/><path d="M97.782,237.7a1,1,0,0,0-.621,1.542c-2.582.516-5.394,2.977-6.5,4.652-2.191,3.33-2.468,8.9-.239,12.3,1.746,2.67,5.036,4.851,6.8,1.315,1.345-2.7,1.125-5.218.912-8.108a13.022,13.022,0,0,1,0-2.774c1.4-1.907,12.682-.919,13.7-3.65C115,234.491,100.4,237.069,97.782,237.7Z" transform="translate(50.161 2.966)" fill="#ffe49b"/><path d="M95.119,242.675s-2.859-1.331-3.43.962,1.521,3.653,2.625,3.236S95.784,243.637,95.119,242.675Z" transform="translate(53.869 10.428)" fill="#ff505c"/><path d="M89.692,242.24c1.078-2.866,3.714-4.325,6.457-5.306,1.421-.512,2.426,1.637.985,2.153-2.1.749-4.37,1.715-5.211,3.951A1.186,1.186,0,0,1,89.692,242.24Z" transform="translate(51.154 2.989)" fill="#5f40d4"/><path d="M95.688,271.01c.592,2.274,5.285,3.482,7.082,4.216,3.721,1.516,6.514,3.885,9.925,5.8-.616-1.113-1.184-2.227-1.751-3.364-2.821-5.593-2.205-9.262-.5-12.531-3.956,1.848-8.385,1.255-12.415,2.793C96.732,268.429,95.24,269.352,95.688,271.01Z" transform="translate(59.364 41.697)" fill="#e55773"/><path d="M98.218,294.1c1.549-1.971,11.512-15.371,11.678-26.613.073-5.117-.6-16.647-7.04-17.2-10.3-.891-21.574,15.487-29.221,27.728C79.213,286.932,86.582,292.678,98.218,294.1Z" transform="translate(29.29 21.322)" fill="#f88"/></g></svg>